<?xml version="1.0" encoding="UTF-8" standalone="no"?>
<!DOCTYPE svg PUBLIC "-//W3C//DTD SVG 1.1//EN" "http://www.w3.org/Graphics/SVG/1.1/DTD/svg11.dtd">
<!-- Created with Vectornator (http://vectornator.io/) -->
<svg height="100%" stroke-miterlimit="10" style="fill-rule:nonzero;clip-rule:evenodd;stroke-linecap:round;stroke-linejoin:round;" version="1.1" viewBox="0 0 170.1 170.1" width="100%" xml:space="preserve" xmlns="http://www.w3.org/2000/svg" xmlns:vectornator="http://vectornator.io" xmlns:xlink="http://www.w3.org/1999/xlink">
<defs>
<filter color-interpolation-filters="sRGB" filterUnits="userSpaceOnUse" height="25.5431" id="Filter" width="26.6695" x="101.652" y="142.769">
<feGaussianBlur in="SourceGraphic" result="Blur" stdDeviation="4.94186"/>
</filter>
</defs>
<g id="Layer-1" vectornator:layerName="Layer 1">
<path d="M7.6522 83.8994C7.6522 41.0369 42.3158 6.28991 85.0755 6.28991C127.835 6.28991 162.499 41.0369 162.499 83.8994C162.499 126.762 127.835 161.509 85.0755 161.509C42.3158 161.509 7.6522 126.762 7.6522 83.8994Z" fill="#e7b255" fill-rule="nonzero" opacity="1" stroke="#3c3c3c" stroke-linecap="butt" stroke-linejoin="miter" stroke-width="0.748783"/>
<path d="M33.5097 44.2435C28.9867 39.5862 28.2284 33.1512 31.8158 29.8705C35.4032 26.5899 41.978 27.7059 46.5009 32.3632C51.0238 37.0205 51.7822 43.4556 48.1948 46.7362C44.6073 50.0169 38.0326 48.9009 33.5097 44.2435Z" fill="#64d6ee" fill-rule="nonzero" opacity="1" stroke="#3c3c3c" stroke-linecap="butt" stroke-linejoin="miter" stroke-width="0.464941"/>
<path d="M36.2654 40.0891C34.5151 37.3882 34.6366 34.2587 36.5366 33.0993C38.4367 31.9398 41.3959 33.1894 43.1462 35.8903C44.8964 38.5912 44.775 41.7207 42.8749 42.8801C40.9749 44.0396 38.0157 42.79 36.2654 40.0891Z" fill="#303030" fill-rule="nonzero" opacity="1" stroke="none"/>
<path d="M36.2654 40.0891C34.5151 37.3882 34.6366 34.2587 36.5366 33.0993C38.4367 31.9398 41.3959 33.1894 43.1462 35.8903C44.8964 38.5912 44.775 41.7207 42.8749 42.8801C40.9749 44.0396 38.0157 42.79 36.2654 40.0891Z" fill="#303030" fill-rule="nonzero" opacity="1" stroke="none"/>
<path d="M106.585 28.9492C109.688 23.0259 115.902 20.0489 120.465 22.2999C125.027 24.5508 126.21 31.1773 123.107 37.1006C120.004 43.0238 113.789 46.0008 109.227 43.7499C104.664 41.4989 103.481 34.8724 106.585 28.9492Z" fill="#64d6ee" fill-rule="nonzero" opacity="1" stroke="#3c3c3c" stroke-linecap="butt" stroke-linejoin="miter" stroke-width="0.464941"/>
<path d="M110.974 29.6353C112.693 26.9151 115.637 25.6327 117.55 26.7709C119.464 27.9092 119.622 31.0371 117.904 33.7573C116.186 36.4775 113.242 37.7599 111.328 36.6217C109.414 35.4834 109.256 32.3555 110.974 29.6353Z" fill="#303030" fill-rule="nonzero" opacity="1" stroke="none"/>
<path d="M41.2465 147.131C36.9324 134.39 33.1667 115.167 31.3053 100.717C29.4845 86.5824 24.8302 75.8529 28.1648 62.3312C32.498 44.7597 47.7256 25.882 73.5086 23.7237C110.244 20.6487 126.722 39.4015 133.778 56.4476C137.999 66.6442 140.37 87.5005 142.195 95.1307C144.217 103.584 144.41 108.544 147.974 130.386" fill="#64d6ee" fill-rule="nonzero" opacity="1" stroke="#3c3c3c" stroke-linecap="round" stroke-linejoin="miter" stroke-width="0.464941"/>
<path d="M147.236 129.798C130.245 163.297 79.1273 174.799 41.3872 146.773" fill="#64d6ee" fill-rule="nonzero" opacity="0.993143" stroke="none"/>
<path d="M87.7814 60.2313C87.7814 50.1511 96.2792 41.9794 106.762 41.9794C117.245 41.9794 125.743 50.1511 125.743 60.2313C125.743 70.3116 117.245 78.4832 106.762 78.4832C96.2792 78.4832 87.7814 70.3116 87.7814 60.2313Z" fill="#ffffff" fill-rule="nonzero" opacity="0.993143" stroke="#3c3c3c" stroke-linecap="butt" stroke-linejoin="miter" stroke-width="0.464941"/>
<path d="M37.6245 65.3152C37.6245 55.4651 46.1993 47.48 56.7769 47.48C67.3544 47.48 75.9292 55.4651 75.9292 65.3152C75.9292 75.1653 67.3544 83.1504 56.7769 83.1504C46.1993 83.1504 37.6245 75.1653 37.6245 65.3152Z" fill="#ffffff" fill-rule="nonzero" opacity="0.993143" stroke="#3c3c3c" stroke-linecap="butt" stroke-linejoin="miter" stroke-width="0.464941"/>
<path d="M107.372 60.0885C107.372 56.3591 110.439 53.3357 114.224 53.3357C118.008 53.3357 121.075 56.3591 121.075 60.0885C121.075 63.818 118.008 66.8413 114.224 66.8413C110.439 66.8413 107.372 63.818 107.372 60.0885Z" fill="#303030" fill-rule="nonzero" opacity="0.993143" stroke="#3c3c3c" stroke-linecap="butt" stroke-linejoin="miter" stroke-width="0.464941"/>
<path d="M42.9494 65.3123C42.9494 61.5396 45.8416 58.4811 49.4094 58.4811C52.9772 58.4811 55.8694 61.5396 55.8694 65.3123C55.8694 69.0851 52.9772 72.1436 49.4094 72.1436C45.8416 72.1436 42.9494 69.0851 42.9494 65.3123Z" fill="#303030" fill-rule="nonzero" opacity="0.993143" stroke="#3c3c3c" stroke-linecap="butt" stroke-linejoin="miter" stroke-width="0.464941"/>
<path d="M114.501 60.6379C114.501 59.1824 115.651 58.0024 117.071 58.0024C118.49 58.0024 119.641 59.1824 119.641 60.6379C119.641 62.0935 118.49 63.2734 117.071 63.2734C115.651 63.2734 114.501 62.0935 114.501 60.6379Z" fill="#ffffff" fill-rule="nonzero" opacity="0.993143" stroke="none"/>
<path d="M45.8408 67.6808C45.8408 66.4163 46.9032 65.3913 48.2138 65.3913C49.5243 65.3913 50.5867 66.4163 50.5867 67.6808C50.5867 68.9452 49.5243 69.9702 48.2138 69.9702C46.9032 69.9702 45.8408 68.9452 45.8408 67.6808Z" fill="#ffffff" fill-rule="nonzero" opacity="0.993143" stroke="none"/>
<path d="M71.8918 81.49C80.3417 75.8729 85.8852 76.5228 93.3505 78.2736C98.9511 79.5871 104.397 87.8352 100.401 89.73C96.404 91.6248 93.1165 88.9662 85.24 89.7482C77.3636 90.5302 76.133 90.857 70.6635 93.3344C66.9976 94.9949 66.3375 85.1822 71.8918 81.49Z" fill="#e5b989" fill-rule="nonzero" opacity="0.993143" stroke="#3c3c3c" stroke-linecap="butt" stroke-linejoin="miter" stroke-width="0.464941"/>
<path d="M81.5287 73.7825L86.3862 73.7282C87.817 73.7282 88.3047 75.851 88.3047 77.622L88.3047 77.622C88.3047 79.3929 87.1447 80.8286 85.7139 80.8286L80.3961 80.8286C78.9653 80.8286 77.8054 79.3929 77.8054 77.622L77.8054 77.622C77.8054 75.851 80.0979 73.7825 81.5287 73.7825Z" fill="#303030" fill-rule="nonzero" opacity="0.993143" stroke="none"/>
<path d="M76.0448 90.596C75.8155 92.9305 77.0354 107.753 87.8962 106.161C98.757 104.569 93.3462 89.5997 93.3462 89.5997" fill="#303030" fill-rule="nonzero" opacity="0.993143" stroke="none"/>
<path d="M86.2184 105.727C82.7992 103.925 90.1592 98.8951 92.5243 99.9112C97.1391 101.894 87.7353 106.527 86.2184 105.727Z" fill="#eb493a" fill-rule="nonzero" opacity="0.993143" stroke="none"/>
<path d="M79.8522 90.3681C79.8522 90.3681 83.5477 89.7957 83.9167 90.0567C84.2857 90.3176 86.1073 99.9214 84.1213 100.918C82.1352 101.914 80.56 101.782 80.56 101.782C78.536 101.782 76.9971 100.585 76.7468 96.9294C76.4965 93.2743 75.5311 91.3657 75.5311 91.3657C77.3486 90.7886 78.2336 90.7332 79.8522 90.3681Z" fill="#ffffff" fill-rule="nonzero" opacity="0.993143" stroke="#303030" stroke-linecap="round" stroke-linejoin="miter" stroke-width="0.464941"/>
<path d="M88.6133 89.7145L91.3932 89.9571C92.0793 91.7859 93.5267 99.4895 91.5406 100.486C89.5545 101.482 87.8937 101.183 87.8937 101.183C85.8697 101.183 85.1301 100.014 84.8798 96.3589C84.6295 92.7038 84.435 89.881 84.435 89.881C88.1682 89.8744 86.5893 89.7145 88.6133 89.7145Z" fill="#ffffff" fill-rule="nonzero" opacity="0.993143" stroke="#303030" stroke-linecap="round" stroke-linejoin="miter" stroke-width="0.464941"/>
<path d="M133.891 133.406C131.314 136.076 142.342 128.409 146.253 127.777C148.709 127.379 151.078 130.045 151.344 132.447C151.943 137.86 146.673 139.942 141.408 143.351C137.033 146.184 134.401 148.964 129.773 146.719" fill="#e5b989" fill-rule="nonzero" opacity="1" stroke="#3c3c3c" stroke-linecap="round" stroke-linejoin="miter" stroke-width="0.464941"/>
<path d="M47.773 148.039C51.266 154.818 51.4563 153.913 53.6629 156.92C55.9258 160.003 59.4216 165.012 66.9189 162.655C72.2109 160.992 69.3639 154.132 68.1712 152.933C66.9785 151.733 64.5277 147.769 61.0094 144.679" fill="#e5b989" fill-rule="nonzero" opacity="1" stroke="#3c3c3c" stroke-linecap="round" stroke-linejoin="miter" stroke-width="0.464941"/>
<path d="M114.392 155.836C113.887 154.829 113.976 155.304 115.846 155.836" fill="none" filter="url(#Filter)" opacity="0.993143" stroke="#000000" stroke-linecap="round" stroke-linejoin="miter" stroke-width="0.243"/>
</g>
</svg>
