<?xml version="1.0" encoding="UTF-8" standalone="no"?>
<!DOCTYPE svg PUBLIC "-//W3C//DTD SVG 1.1//EN" "http://www.w3.org/Graphics/SVG/1.1/DTD/svg11.dtd">
<!-- Created with Vectornator (http://vectornator.io/) -->
<svg height="100%" stroke-miterlimit="10" style="fill-rule:nonzero;clip-rule:evenodd;stroke-linecap:round;stroke-linejoin:round;" version="1.1" viewBox="0 0 170.1 170.1" width="100%" xml:space="preserve" xmlns="http://www.w3.org/2000/svg" xmlns:vectornator="http://vectornator.io" xmlns:xlink="http://www.w3.org/1999/xlink">
<defs>
<clipPath id="TextBounds">
<rect height="31.0027" transform="matrix(0.909628 -0.415423 0.415423 0.909628 37.3057 138.215)" width="134.099" x="0" y="0"/>
</clipPath>
<filter color-interpolation-filters="sRGB" filterUnits="userSpaceOnUse" height="70.3894" id="Filter" width="104.116" x="54.4545" y="84.1677">
<feComponentTransfer in="SourceGraphic" result="Alpha">
<feFuncA slope="0.993143" type="linear"/>
</feComponentTransfer>
<feDropShadow dx="3.35257" dy="-1.30027" flood-color="#000000" flood-opacity="0.141964" in="Alpha" result="Shadow" stdDeviation="2.19863"/>
</filter>
<filter color-interpolation-filters="sRGB" filterUnits="userSpaceOnUse" height="25.406" id="Filter_2" width="26.2676" x="95.0871" y="116.355">
<feGaussianBlur in="SourceGraphic" result="Blur" stdDeviation="4.94186"/>
</filter>
</defs>
<g id="Layer-1" vectornator:layerName="Layer 1">
<path d="M86.8767 2.93216C101.763 3.05217 114.931 6.28125 126.511 12.6854C138.092 19.0895 148.085 28.6687 156.623 41.4889C174.113 67.7526 172.033 98.8502 158.068 123.382C144.103 147.913 118.253 165.879 88.2041 165.879C52.9937 165.879 25.7802 143.921 13.697 115.556C1.61388 87.191 4.66107 52.42 29.972 26.7952C37.9298 18.7387 46.6721 12.7287 56.1668 8.75498C65.6616 4.78124 75.9089 2.84374 86.8767 2.93216Z" fill="#e7b255" fill-rule="nonzero" opacity="1" stroke="#000000" stroke-linecap="round" stroke-linejoin="miter" stroke-width="0.763328"/>
<path d="M2.29702 19.7943C4.39235 31.6943 6.91058 42.8426 9.71101 51.3126C12.8882 60.9223 23.4298 81.0502 29.1768 101.371C33.7177 117.427 31.0702 130.063 30.5239 140.834C46.292 156.085 68.1816 169.463 101.933 164.206C127.919 160.159 151.24 137.902 160.663 117.818C160.461 118.158 160.554 102.826 157.885 90.0814C155.217 77.3366 143.492 52.1026 135.888 39.1078C129.75 28.6167 125.117 11.3721 125.263 6.81648C84.1466 8.38652 72.0783 12.0219 55.2645 14.8509C43.4699 16.8354 29.3166 19.5363 2.29702 19.7943Z" fill="#f9f9f9" fill-rule="nonzero" opacity="0.993143" stroke="none"/>
<path d="M2.28797 19.7773C3.79485 30.5836 7.84167 46.4004 11.5548 56.1402C16.8069 69.9167 22.3407 77.7476 27.2919 95.8123C29.8597 105.181 32.1569 114.396 31.5705 124.705C31.3831 128 31.3012 136.02 30.4847 140.758" fill="none" opacity="0.993143" stroke="#000000" stroke-linecap="round" stroke-linejoin="miter" stroke-width="1.00002"/>
<path d="M2.09816 19.6443C25.588 19.5376 46.9172 15.8537 68.3858 12.4415C86.8245 9.51093 105.366 6.78073 125.468 6.68941" fill="none" opacity="0.993143" stroke="#000000" stroke-linecap="round" stroke-linejoin="miter" stroke-width="1.00002"/>
<path d="M125.559 7.45291C127.899 22.4079 130.401 26.3819 133.6 34.2056C136.759 41.9301 144.522 53.6638 150.887 68.9853C160.805 92.8593 161.05 112.644 160.712 117.908" fill="none" opacity="0.993143" stroke="#000000" stroke-linecap="round" stroke-linejoin="miter" stroke-width="1.00002"/>
<path d="M30.7528 59.8971C29.5975 39.6387 42.1752 18.6186 69.8266 18.6186C97.478 18.6186 108.219 33.4429 114.82 54.8317C122.418 79.4504 103.397 105.462 75.7461 105.462C48.0948 105.462 32.1107 83.7075 30.7528 59.8971Z" fill="#e7b255" fill-rule="nonzero" opacity="1" stroke="#3c3c3c" stroke-linecap="butt" stroke-linejoin="miter" stroke-width="0.748783"/>
<path d="M44.3517 39.8389C41.7858 37.2734 41.3556 33.7286 43.3908 31.9215C45.426 30.1143 49.1559 30.7291 51.7218 33.2946C54.2878 35.8601 54.718 39.4048 52.6828 41.212C50.6476 43.0192 46.9176 42.4044 44.3517 39.8389Z" fill="#64d6ee" fill-rule="nonzero" opacity="1" stroke="#3c3c3c" stroke-linecap="butt" stroke-linejoin="miter" stroke-width="0.464941"/>
<path d="M45.9151 37.5504C44.9221 36.0626 44.991 34.3387 46.069 33.7C47.1469 33.0613 48.8257 33.7497 49.8187 35.2375C50.8116 36.7253 50.7427 38.4492 49.6648 39.0879C48.5868 39.7266 46.908 39.0382 45.9151 37.5504Z" fill="#303030" fill-rule="nonzero" opacity="1" stroke="none"/>
<path d="M45.9151 37.5504C44.9221 36.0626 44.991 34.3387 46.069 33.7C47.1469 33.0613 48.8257 33.7497 49.8187 35.2375C50.8116 36.7253 50.7427 38.4492 49.6648 39.0879C48.5868 39.7266 46.908 39.0382 45.9151 37.5504Z" fill="#303030" fill-rule="nonzero" opacity="1" stroke="none"/>
<path d="M85.8083 31.4139C87.5688 28.1511 91.0943 26.5112 93.6827 27.7511C96.2711 28.9911 96.9422 32.6413 95.1817 35.9042C93.4211 39.167 89.8956 40.8069 87.3072 39.567C84.7188 38.327 84.0477 34.6768 85.8083 31.4139Z" fill="#64d6ee" fill-rule="nonzero" opacity="1" stroke="#3c3c3c" stroke-linecap="butt" stroke-linejoin="miter" stroke-width="0.464941"/>
<path d="M88.2985 31.7919C89.2733 30.2935 90.9436 29.587 92.0293 30.214C93.1149 30.8411 93.2048 32.5641 92.23 34.0625C91.2552 35.5609 89.5849 36.2674 88.4993 35.6404C87.4136 35.0134 87.3238 33.2903 88.2985 31.7919Z" fill="#303030" fill-rule="nonzero" opacity="1" stroke="none"/>
<path d="M48.7409 96.5151C46.2935 89.4965 44.1572 78.9077 43.1011 70.9475C42.0682 63.1615 39.4277 57.2511 41.3195 49.8026C43.7778 40.1232 52.4166 29.7244 67.0437 28.5355C87.8842 26.8416 97.2327 37.1716 101.235 46.5616C103.63 52.1784 104.975 63.6672 106.01 67.8703C107.158 72.5267 107.267 75.2589 109.289 87.2907" fill="#64d6ee" fill-rule="nonzero" opacity="1" stroke="#3c3c3c" stroke-linecap="round" stroke-linejoin="miter" stroke-width="0.464941"/>
<path d="M108.87 86.9671C99.2314 105.42 70.2313 111.756 48.8208 96.3176" fill="#64d6ee" fill-rule="nonzero" opacity="0.993143" stroke="none"/>
<path d="M75.1408 48.6458C75.1408 43.0931 79.9618 38.5917 85.9088 38.5917C91.8558 38.5917 96.6768 43.0931 96.6768 48.6458C96.6768 54.1986 91.8558 58.7 85.9088 58.7C79.9618 58.7 75.1408 54.1986 75.1408 48.6458Z" fill="#ffffff" fill-rule="nonzero" opacity="0.993143" stroke="#3c3c3c" stroke-linecap="butt" stroke-linejoin="miter" stroke-width="0.464941"/>
<path d="M46.6862 51.4463C46.6862 46.0203 51.5508 41.6217 57.5516 41.6217C63.5524 41.6217 68.417 46.0203 68.417 51.4463C68.417 56.8723 63.5524 61.2709 57.5516 61.2709C51.5508 61.2709 46.6862 56.8723 46.6862 51.4463Z" fill="#ffffff" fill-rule="nonzero" opacity="0.993143" stroke="#3c3c3c" stroke-linecap="butt" stroke-linejoin="miter" stroke-width="0.464941"/>
<path d="M85.4113 47.1853C85.4113 44.7827 87.3405 42.8351 89.7202 42.8351C92.0999 42.8351 94.0291 44.7827 94.0291 47.1853C94.0291 49.5878 92.0999 51.5354 89.7202 51.5354C87.3405 51.5354 85.4113 49.5878 85.4113 47.1853Z" fill="#303030" fill-rule="nonzero" opacity="0.993143" stroke="#3c3c3c" stroke-linecap="butt" stroke-linejoin="miter" stroke-width="0.464941"/>
<path d="M49.707 50.2274C49.707 47.8112 51.6358 45.8524 54.015 45.8524C56.3942 45.8524 58.3229 47.8112 58.3229 50.2274C58.3229 52.6437 56.3942 54.6024 54.015 54.6024C51.6358 54.6024 49.707 52.6437 49.707 50.2274Z" fill="#303030" fill-rule="nonzero" opacity="0.993143" stroke="#3c3c3c" stroke-linecap="butt" stroke-linejoin="miter" stroke-width="0.464941"/>
<path d="M89.7924 48.3021C89.7924 47.6019 90.3304 47.0343 90.994 47.0343C91.6577 47.0343 92.1957 47.6019 92.1957 48.3021C92.1957 49.0023 91.6577 49.5699 90.994 49.5699C90.3304 49.5699 89.7924 49.0023 89.7924 48.3021Z" fill="#ffffff" fill-rule="nonzero" opacity="0.993143" stroke="none"/>
<path d="M51.3474 52.3788C51.3474 51.6529 51.945 51.0646 52.6821 51.0646C53.4192 51.0646 54.0168 51.6529 54.0168 52.3788C54.0168 53.1046 53.4192 53.693 52.6821 53.693C51.945 53.693 51.3474 53.1046 51.3474 52.3788Z" fill="#ffffff" fill-rule="nonzero" opacity="0.993143" stroke="none"/>
<path d="M66.1265 60.3563C70.9202 57.2621 74.0651 57.6201 78.3003 58.5845C81.4776 59.3081 84.5674 63.8516 82.3 64.8954C80.0326 65.9391 78.1675 64.4746 73.6991 64.9054C69.2307 65.3361 68.5326 65.5161 65.4296 66.8808C63.3499 67.7956 62.9754 62.3902 66.1265 60.3563Z" fill="#e5b989" fill-rule="nonzero" opacity="0.993143" stroke="#3c3c3c" stroke-linecap="butt" stroke-linejoin="miter" stroke-width="0.464941"/>
<path d="M71.5936 56.1106L74.3494 56.0807C75.1611 56.0807 75.4377 57.25 75.4377 58.2256L75.4377 58.2256C75.4377 59.2011 74.7797 59.9919 73.968 59.9919L70.9511 59.9919C70.1394 59.9919 69.4813 59.2011 69.4813 58.2256L69.4813 58.2256C69.4813 57.25 70.7819 56.1106 71.5936 56.1106Z" fill="#303030" fill-rule="nonzero" opacity="0.993143" stroke="none"/>
<path d="M68.4825 65.3724C68.3524 66.6583 69.0445 74.8233 75.206 73.9463C81.3675 73.0692 78.2979 64.8236 78.2979 64.8236" fill="#303030" fill-rule="nonzero" opacity="0.993143" stroke="none"/>
<path d="M74.2542 73.7075C72.3144 72.7145 76.4899 69.9439 77.8316 70.5037C80.4497 71.5958 75.1147 74.148 74.2542 73.7075Z" fill="#eb493a" fill-rule="nonzero" opacity="0.993143" stroke="none"/>
<path d="M70.6425 65.2468C70.6425 65.2468 72.739 64.9315 72.9484 65.0753C73.1577 65.219 74.1911 70.5093 73.0644 71.0581C71.9377 71.6069 71.0441 71.534 71.0441 71.534C69.8958 71.534 69.0228 70.8746 68.8808 68.8612C68.7388 66.8477 68.1911 65.7964 68.1911 65.7964C69.2222 65.4785 69.7243 65.4479 70.6425 65.2468Z" fill="#ffffff" fill-rule="nonzero" opacity="0.993143" stroke="#303030" stroke-linecap="round" stroke-linejoin="miter" stroke-width="0.464941"/>
<path d="M75.6128 64.8868L77.1899 65.0204C77.5791 66.0278 78.4002 70.2714 77.2735 70.8202C76.1468 71.3689 75.2046 71.2045 75.2046 71.2045C74.0563 71.2045 73.6368 70.5603 73.4948 68.5469C73.3528 66.5335 73.2424 64.9785 73.2424 64.9785C75.3603 64.9749 74.4646 64.8868 75.6128 64.8868Z" fill="#ffffff" fill-rule="nonzero" opacity="0.993143" stroke="#303030" stroke-linecap="round" stroke-linejoin="miter" stroke-width="0.464941"/>
<path d="M101.299 88.9543C99.8378 90.4252 106.094 86.2019 108.312 85.8535C109.706 85.6346 111.05 87.1029 111.201 88.426C111.541 91.4077 108.551 92.555 105.564 94.4329C103.082 95.9931 101.589 97.5246 98.9633 96.2878" fill="#e5b989" fill-rule="nonzero" opacity="1" stroke="#3c3c3c" stroke-linecap="round" stroke-linejoin="miter" stroke-width="0.464941"/>
<path d="M52.4435 97.0153C54.4252 100.75 54.5331 100.251 55.785 101.907C57.0687 103.606 59.052 106.365 63.3053 105.067C66.3075 104.15 64.6923 100.372 64.0157 99.7109C63.3391 99.0501 61.9487 96.8665 59.9527 95.164" fill="#e5b989" fill-rule="nonzero" opacity="1" stroke="#3c3c3c" stroke-linecap="round" stroke-linejoin="miter" stroke-width="0.464941"/>
<g fill="#303030" filter="url(#Filter)" stroke="none" vectornator:shadowAngle="-0.369983" vectornator:shadowColor="#000000" vectornator:shadowOffset="3.59589" vectornator:shadowOpacity="0.141964" vectornator:shadowRadius="4.39726">
<path clip-path="url(#TextBounds)" d="M68.112 128.662C68.4258 128.823 68.6856 129.129 68.8913 129.58C69.3634 130.613 69.4633 132.498 69.1908 135.233C68.9198 138.112 68.3668 139.742 67.5319 140.123C67.3199 140.22 67.1124 140.186 66.9096 140.023C66.9908 140.306 67.1283 140.66 67.322 141.084C67.6488 141.799 68.0705 142.6 68.5869 143.485C68.6232 143.565 68.7184 143.685 68.8724 143.847C69.0265 144.009 69.1247 144.137 69.167 144.229C69.2699 144.455 69.1854 144.726 68.9135 145.042C68.7907 145.194 68.5968 145.331 68.3318 145.452C67.8944 145.651 67.4412 145.746 66.9722 145.736C66.4501 145.751 66.0833 145.614 65.8718 145.326C65.8222 145.252 65.7823 145.183 65.752 145.116C65.6733 144.944 65.6688 144.75 65.7383 144.534C65.8079 144.318 65.8336 144.19 65.8154 144.15L60.1647 132.724C60.1465 132.684 60.0933 132.621 60.0052 132.533C59.917 132.445 59.8578 132.368 59.8275 132.302C59.7307 132.09 59.8273 131.845 60.1174 131.569C60.3401 131.355 60.5972 131.181 60.8888 131.048C60.9815 131.006 61.3678 130.869 62.0474 130.639C62.1269 130.603 62.4637 130.297 63.0577 129.721C63.6518 129.146 64.2204 128.734 64.7638 128.486C65.824 128.001 66.9401 128.06 68.112 128.662ZM65.4768 130.731C65.1587 130.876 64.8208 131.214 64.4631 131.746C64.1053 132.278 63.8286 132.821 63.6331 133.375L65.5919 137.453C65.9995 136.803 66.2722 135.725 66.41 134.221C66.5478 132.716 66.4775 131.659 66.199 131.049C66.0356 130.692 65.7949 130.585 65.4768 130.731Z"/>
<path clip-path="url(#TextBounds)" d="M75.8059 130.146C77.063 130.549 78.1304 131.711 79.008 133.633C79.6859 135.117 79.9525 136.525 79.8077 137.856C79.65 139.37 78.955 140.408 77.7224 140.971C76.5032 141.528 75.3171 141.421 74.1642 140.65C73.1574 139.988 72.3272 138.942 71.6735 137.511C71.0985 136.252 70.8063 135.016 70.7969 133.803C70.7838 132.511 71.1059 131.603 71.7633 131.079C72.1053 130.811 72.4817 130.583 72.8925 130.395C73.913 129.929 74.8841 129.846 75.8059 130.146ZM73.93 132.036C73.4745 132.196 73.2663 132.739 73.3053 133.666C73.3478 134.496 73.5445 135.295 73.8956 136.064C74.4101 137.19 74.8262 137.961 75.1441 138.376C75.7109 139.127 76.3041 139.408 76.9235 139.221C77.3188 139.105 77.4546 138.49 77.3308 137.378C77.2119 136.311 76.9104 135.247 76.4262 134.187C75.6273 132.438 74.7952 131.72 73.93 132.036Z"/>
<path clip-path="url(#TextBounds)" d="M85.6478 126.18C85.7098 126.456 85.5367 126.743 85.1284 127.041C84.6528 127.403 84.3784 127.696 84.3052 127.922L83.1321 132.35L84.3758 135.073C84.4969 135.338 84.7008 135.566 84.9875 135.755C85.2742 135.944 85.4508 136.112 85.5174 136.258C85.584 136.403 85.6102 136.584 85.5962 136.798C85.5766 137.352 85.2223 137.786 84.5332 138.101C84.0561 138.319 83.6178 138.359 83.2185 138.221C82.9482 138.12 82.7525 137.937 82.6315 137.672C82.5831 137.566 82.5237 137.401 82.4534 137.177C82.383 136.952 82.3176 136.774 82.2571 136.642L79.1975 129.942C79.1491 129.836 79.0371 129.731 78.8615 129.627C78.6858 129.523 78.5768 129.425 78.5345 129.332C78.4981 129.253 78.4853 129.154 78.496 129.037C78.5411 128.68 79.0143 128.296 79.9155 127.884C80.6179 127.564 81.0821 127.528 81.308 127.777C81.4022 127.878 81.4675 127.969 81.5038 128.048C81.5643 128.181 81.5582 128.308 81.4855 128.429C81.4128 128.55 81.3915 128.644 81.4218 128.71L81.7612 129.348L82.1935 127.349C82.3015 127.059 82.4179 126.762 82.5428 126.456C82.6676 126.151 82.8698 125.919 83.1493 125.759C83.5877 125.527 84.0641 125.421 84.5785 125.443C85.0928 125.464 85.4286 125.647 85.586 125.992C85.6162 126.058 85.6368 126.12 85.6478 126.18Z"/>
<path clip-path="url(#TextBounds)" d="M93.0777 122.666C92.9717 122.715 92.7894 122.754 92.5308 122.784C92.2722 122.814 92.0833 122.856 91.964 122.911C91.8713 122.953 91.7845 123.009 91.7039 123.077L91.1318 123.771L94.3366 130.789C94.4395 131.014 94.7085 131.243 95.1436 131.477C95.5787 131.711 95.8212 131.952 95.871 132.202C95.9198 132.484 95.8181 132.779 95.566 133.086C95.314 133.393 95.0024 133.632 94.6313 133.801C93.9289 134.122 93.3181 134.065 92.7988 133.629C92.6406 133.493 92.3491 132.978 91.9243 132.082C91.6387 131.492 91.2216 130.561 90.6732 129.29C89.7676 127.237 89.227 126.018 89.0515 125.634C88.9841 125.697 88.8894 125.84 88.7674 126.064C88.6454 126.288 88.4916 126.442 88.3061 126.527C88.1603 126.594 87.9566 126.639 87.695 126.662C86.6402 126.807 86.0432 126.728 85.904 126.423C85.8737 126.357 85.8603 126.275 85.8638 126.177C85.8658 125.936 85.9866 125.745 86.2263 125.603C86.5925 125.388 86.8062 125.242 86.8676 125.166C87.124 124.921 87.5626 124.408 88.1834 123.628L87.1138 121.233C87.0593 121.114 86.9503 120.972 86.7866 120.806C86.6229 120.641 86.5199 120.512 86.4775 120.419C86.4291 120.313 86.4168 120.198 86.4407 120.075C86.5674 119.441 86.9223 118.99 87.5054 118.724C88.1813 118.415 88.7674 118.436 89.2636 118.786C89.4543 118.923 89.5769 119.051 89.6314 119.171C89.698 119.317 89.6866 119.502 89.5971 119.727C89.5077 119.952 89.4933 120.131 89.5538 120.263L90.3147 121.982C90.5109 121.78 90.7033 121.5 90.892 121.142C91.0446 120.88 91.2005 120.713 91.3595 120.64C91.4258 120.61 91.5017 120.583 91.5873 120.56C92.519 120.391 93.1453 120.657 93.4661 121.36C93.569 121.585 93.5896 121.832 93.528 122.1C93.4664 122.369 93.3163 122.557 93.0777 122.666Z"/>
<path clip-path="url(#TextBounds)" d="M103.233 118.701C103.259 119.074 103.097 119.36 102.748 119.559C102.398 119.759 102.057 119.951 101.725 120.135L100.457 121.146L103.097 126.98C103.236 127.285 103.494 127.515 103.87 127.672C104.246 127.829 104.467 127.98 104.534 128.126C104.57 128.205 104.589 128.3 104.592 128.411C104.594 128.907 104.297 129.291 103.7 129.563C103.316 129.739 102.922 129.815 102.519 129.791C102.116 129.767 101.823 129.644 101.642 129.422C101.423 129.154 101.205 128.781 100.987 128.304L98.4359 122.718C98.2192 122.945 97.9561 123.105 97.6463 123.199C96.6835 123.51 96.0749 123.388 95.8207 122.831C95.7421 122.659 95.72 122.453 95.7545 122.213C95.7796 122.057 95.9788 121.862 96.3522 121.627C96.9134 121.243 97.2746 120.982 97.436 120.844C96.6454 119.043 96.2306 117.679 96.1915 116.751C96.1326 115.465 96.6642 114.349 97.7863 113.404C97.873 113.349 97.976 113.294 98.0953 113.239C98.4663 113.07 98.9024 112.999 99.4034 113.026C99.9045 113.054 100.174 113.162 100.213 113.353C100.275 113.629 100.122 113.923 99.752 114.236C99.3149 114.612 99.0562 114.923 98.9759 115.167C98.7348 115.902 98.6746 116.594 98.7951 117.244C98.8756 117.736 99.1167 118.387 99.5184 119.196C99.5991 119.127 99.8845 118.893 100.374 118.493C100.684 118.223 100.987 118.029 101.285 117.909C101.622 117.771 101.988 117.756 102.382 117.864C102.776 117.973 103.036 118.166 103.163 118.445C103.2 118.524 103.223 118.61 103.233 118.701Z"/>
<path clip-path="url(#TextBounds)" d="M109.663 114.683C110.92 115.086 111.988 116.248 112.865 118.17C113.543 119.654 113.81 121.062 113.665 122.394C113.507 123.907 112.812 124.945 111.58 125.508C110.361 126.065 109.174 125.958 108.022 125.187C107.015 124.526 106.185 123.48 105.531 122.048C104.956 120.789 104.664 119.553 104.654 118.34C104.641 117.049 104.963 116.141 105.621 115.616C105.963 115.348 106.339 115.12 106.75 114.933C107.77 114.467 108.741 114.383 109.663 114.683ZM107.787 116.573C107.332 116.733 107.124 117.277 107.163 118.204C107.205 119.033 107.402 119.832 107.753 120.601C108.267 121.727 108.684 122.498 109.001 122.914C109.568 123.664 110.161 123.946 110.781 123.759C111.176 123.643 111.312 123.028 111.188 121.915C111.069 120.848 110.768 119.785 110.284 118.725C109.485 116.975 108.653 116.258 107.787 116.573Z"/>
<path clip-path="url(#TextBounds)" d="M119.958 121.442C119.899 122.013 119.512 122.463 118.796 122.789C118.133 123.092 117.576 123.098 117.123 122.809C116.989 122.726 116.889 122.611 116.822 122.466C116.768 122.346 116.725 122.13 116.693 121.816C116.662 121.501 116.604 121.252 116.519 121.066L111.165 109.553C110.875 108.916 110.726 108.592 110.72 108.579C110.693 108.415 110.821 108.204 111.104 107.947C111.387 107.689 111.714 107.476 112.085 107.306C112.629 107.058 113.014 106.99 113.242 107.103C113.469 107.215 113.628 107.371 113.719 107.569C113.78 107.702 113.826 107.945 113.86 108.298C113.893 108.651 113.952 108.921 114.036 109.106L118.939 119.841C119.024 120.027 119.189 120.239 119.435 120.479C119.681 120.72 119.834 120.906 119.894 121.038C119.949 121.158 119.97 121.292 119.958 121.442Z"/>
<path clip-path="url(#TextBounds)" d="M118.301 105.501C118.359 105.522 118.406 105.573 118.442 105.652C118.491 105.758 118.536 105.962 118.577 106.264C118.63 106.624 118.67 106.87 118.698 107.001C118.726 107.133 118.86 107.392 119.101 107.778C119.216 108.03 119.207 108.23 119.075 108.379C118.943 108.527 118.75 108.659 118.499 108.774C118.141 108.938 117.749 109.044 117.324 109.095C116.794 109.128 116.466 109.006 116.339 108.727C116.303 108.648 116.289 108.514 116.299 108.325C116.309 108.136 116.3 107.992 116.271 107.894C116.255 107.789 116.146 107.55 115.944 107.178C115.784 106.899 115.76 106.67 115.87 106.491C116.016 106.248 116.36 106.003 116.903 105.755C117.5 105.482 117.966 105.398 118.301 105.501ZM120.693 110.054C120.766 110.213 120.779 110.515 120.734 110.96C120.689 111.405 120.718 111.741 120.821 111.966L123.227 117.234C123.336 117.472 123.563 117.777 123.909 118.148C124.254 118.519 124.463 118.784 124.536 118.943C124.645 119.181 124.621 119.408 124.463 119.625C124.223 119.975 123.91 120.238 123.526 120.413C123.022 120.643 122.592 120.647 122.234 120.426C121.787 120.182 121.127 119.106 120.255 117.198C120.05 116.747 119.737 116.037 119.318 115.067C118.899 114.097 118.59 113.393 118.39 112.956C118.312 112.784 118.192 112.574 118.031 112.327C117.87 112.08 117.763 111.897 117.708 111.778C117.527 111.38 117.531 110.97 117.722 110.546C117.8 110.366 118.018 110.195 118.376 110.031C118.734 109.868 119.114 109.754 119.518 109.69C119.921 109.626 120.202 109.638 120.362 109.725C120.522 109.812 120.633 109.922 120.693 110.054Z"/>
<path clip-path="url(#TextBounds)" d="M128.093 114.892C128.192 115.039 128.263 115.23 128.307 115.467C128.352 115.846 128.377 116.059 128.382 116.105C128.466 116.323 128.551 116.552 128.637 116.793C128.723 117.035 128.733 117.25 128.668 117.44C128.602 117.63 128.384 117.81 128.013 117.979C127.642 118.149 127.284 118.224 126.939 118.205C126.535 118.198 126.263 118.058 126.123 117.786C126.068 117.666 126.038 117.504 126.032 117.298C126.027 117.093 126.012 116.939 125.99 116.837C125.967 116.735 125.856 116.482 125.655 116.077C125.516 115.772 125.489 115.512 125.575 115.297C125.661 115.081 125.869 114.898 126.201 114.747C126.545 114.589 126.905 114.517 127.279 114.531C127.653 114.544 127.925 114.664 128.093 114.892Z"/>
<path clip-path="url(#TextBounds)" d="M133.024 103.75C133.523 104.772 134.354 106.434 135.518 108.738C136.327 110.37 136.896 111.544 137.223 112.26C138.128 114.313 138.572 115.688 138.554 116.385C138.536 117.082 138.118 117.657 137.3 118.111C136.276 118.674 135.227 118.849 134.152 118.635C133.706 118.711 133.415 118.74 133.278 118.722C132.999 118.706 132.762 118.573 132.569 118.325C132.189 117.81 132.549 117.301 133.649 116.799C133.928 116.672 134.208 116.584 134.49 116.535C134.694 116.49 134.963 116.535 135.297 116.671C135.631 116.807 135.901 116.836 136.106 116.758C136.502 116.609 136.381 115.8 135.741 114.33C135.542 113.892 135.188 113.205 134.68 112.268C134.535 113.215 134.406 113.843 134.29 114.151C134.041 114.762 133.624 115.2 133.041 115.467C132.219 115.842 131.324 115.634 130.354 114.844C129.455 114.102 128.699 113.061 128.088 111.723C127.452 110.331 127.162 109.046 127.216 107.868C127.283 106.54 127.803 105.646 128.778 105.185C129.302 104.929 129.735 104.844 130.078 104.927C130.42 105.011 130.759 105.105 131.095 105.208C130.729 104.862 130.623 104.526 130.778 104.199C130.864 104 131.052 103.834 131.344 103.701C131.622 103.574 131.93 103.513 132.269 103.518C132.608 103.524 132.86 103.601 133.024 103.75ZM132.727 109.412C132.459 108.685 132.066 108.072 131.549 107.571C130.964 106.99 130.459 106.796 130.035 106.989C129.69 107.147 129.546 107.637 129.601 108.461C129.641 109.179 129.808 109.896 130.102 110.61C130.409 111.351 130.768 111.98 131.18 112.497C131.68 113.101 132.096 113.328 132.428 113.176C132.719 113.043 132.903 112.551 132.978 111.699C133.054 110.848 132.97 110.086 132.727 109.412Z"/>
<path clip-path="url(#TextBounds)" d="M141.374 100.201C142.632 100.604 143.699 101.766 144.577 103.688C145.254 105.172 145.521 106.58 145.376 107.911C145.219 109.425 144.524 110.463 143.291 111.026C142.072 111.583 140.886 111.476 139.733 110.705C138.726 110.044 137.896 108.997 137.242 107.566C136.667 106.307 136.375 105.071 136.365 103.858C136.352 102.567 136.674 101.659 137.332 101.134C137.674 100.866 138.05 100.638 138.461 100.45C139.482 99.9842 140.453 99.9011 141.374 100.201ZM139.499 102.091C139.043 102.251 138.835 102.794 138.874 103.721C138.916 104.551 139.113 105.35 139.464 106.119C139.979 107.245 140.395 108.016 140.713 108.432C141.279 109.182 141.873 109.463 142.492 109.277C142.887 109.16 143.023 108.546 142.899 107.433C142.78 106.366 142.479 105.302 141.995 104.242C141.196 102.493 140.364 101.776 139.499 102.091Z"/>
</g>
<path d="M107.765 129.285C107.378 128.511 107.446 128.876 108.878 129.285" fill="none" filter="url(#Filter_2)" opacity="0.993143" stroke="#000000" stroke-linecap="round" stroke-linejoin="miter" stroke-width="0.243"/>
</g>
</svg>
