<?xml version="1.0" encoding="UTF-8" standalone="no"?>
<!DOCTYPE svg PUBLIC "-//W3C//DTD SVG 1.1//EN" "http://www.w3.org/Graphics/SVG/1.1/DTD/svg11.dtd">
<!-- Created with Vectornator (http://vectornator.io/) -->
<svg height="100%" stroke-miterlimit="10" style="fill-rule:nonzero;clip-rule:evenodd;stroke-linecap:round;stroke-linejoin:round;" version="1.1" viewBox="0 0 2224 1668" width="100%" xml:space="preserve" xmlns="http://www.w3.org/2000/svg" xmlns:vectornator="http://vectornator.io" xmlns:xlink="http://www.w3.org/1999/xlink">
<defs/>
<g id="Layer-1" vectornator:layerName="Layer 1">
<path d="M1298.72 768.135C1317.46 763.233 1334.73 753.578 1352.08 744.863C1397.16 722.217 1443.04 701.15 1487.36 676.986C1497.16 671.646 1505.73 663.987 1515.94 659.532C1518.35 658.483 1523.57 660.259 1523.57 657.593C1523.57 654.941 1509.75 656.763 1517.85 661.472C1529.83 668.441 1548.82 670.958 1561.67 675.047C1590.11 684.09 1613.89 690.81 1643.61 694.44C1665.51 697.115 1688.23 698.319 1710.3 698.319C1714.11 698.319 1720.03 694.85 1721.73 698.319C1722.53 699.954 1719.46 701.257 1717.92 702.198C1705.85 709.567 1686.94 711.992 1674.1 717.712C1651.94 727.579 1629.52 736.897 1607.4 746.802C1558.99 768.485 1506.81 788.552 1462.59 818.557C1454.97 823.729 1447.06 828.478 1439.73 834.072C1432.08 839.912 1421.67 846.628 1414.96 853.465C1413.95 854.487 1414.47 857.344 1413.05 857.344C1411.44 857.344 1396.26 839.594 1394 837.95C1378.21 826.473 1363.05 813.234 1346.36 803.043C1331.49 793.961 1314.23 787.66 1298.72 779.771C1295.67 778.214 1289.2 779.373 1289.2 775.892C1289.2 771.753 1294.79 769.165 1298.72 768.135Z" fill="#ffffff" fill-rule="nonzero" opacity="1" stroke="#3c3c3c" stroke-linecap="round" stroke-linejoin="miter" stroke-width="6"/>
<path d="M1192.02 708.016C1246.68 680.202 1307.02 665.799 1363.51 642.079C1399.23 627.079 1433.52 608.77 1468.31 591.656C1471.64 590.016 1475.78 588.974 1477.84 585.838C1478.89 584.225 1473.89 585.118 1472.12 585.838C1459.71 590.891 1481.68 599.815 1485.46 601.353C1506.1 609.758 1528.2 612.791 1550.24 614.928C1588.92 618.677 1627.98 617.185 1666.47 620.746C1675.22 621.556 1682.38 624.625 1691.24 624.625C1692.51 624.625 1688.68 624.371 1687.43 624.625C1685.46 625.026 1683.56 625.759 1681.72 626.564C1679.11 627.703 1676.46 628.839 1674.1 630.443C1664.77 636.77 1657.9 648.38 1649.32 655.654C1620.67 679.959 1586.23 693.701 1554.05 711.894C1540.96 719.3 1533.6 731.96 1517.85 735.166C1500.11 738.778 1485 723.229 1468.31 719.652C1450.11 715.753 1431.59 713.292 1413.05 711.894C1375.53 709.065 1336.44 708.631 1298.72 709.955C1278.03 710.681 1257.88 714.843 1237.75 708.016" fill="#ffffff" fill-rule="nonzero" opacity="1" stroke="#3c3c3c" stroke-linecap="round" stroke-linejoin="miter" stroke-width="6"/>
<path d="M1230.13 910.675C1222.97 913.105 1202.67 923.306 1209.17 919.402C1247.37 896.462 1287.15 876.317 1325.4 853.465C1374.81 823.945 1423.04 792.404 1472.12 762.317C1478.94 758.138 1486.17 754.699 1493.08 750.681C1495.07 749.524 1498.8 749.133 1498.8 746.802C1498.8 744.137 1490.54 746.156 1491.17 748.741C1492.35 753.539 1505.99 757.575 1508.32 758.438C1524.96 764.596 1541.27 771.609 1557.86 777.831C1592.55 790.837 1629.7 794.017 1664.57 806.921C1669.67 808.809 1674.77 810.688 1679.81 812.739C1681.13 813.276 1684.07 813.307 1683.62 814.678C1682.21 819.001 1653.87 829.666 1649.32 832.132C1623.88 845.946 1598.29 860.476 1573.11 874.798C1524.41 902.496 1478.51 934.46 1432.11 965.946C1422.59 972.405 1410.51 990.349 1399.71 993.096C1397.17 993.743 1401.25 987.978 1401.62 985.339C1402.07 982.139 1402.73 978.669 1401.62 975.642C1398.62 967.514 1380.52 956.404 1373.04 952.371C1342.55 935.942 1314.34 930.117 1281.58 921.341C1273.7 919.233 1254.49 906.007 1249.18 905.827C1242.64 905.605 1236.34 908.568 1230.13 910.675Z" fill="#ffffff" fill-rule="nonzero" opacity="1" stroke="#3c3c3c" stroke-linecap="round" stroke-linejoin="miter" stroke-width="6"/>
<path d="M545.126 963.037C545.527 963.244 544.604 963.874 544.174 964.006C509.937 974.556 475.727 985.219 441.28 995.036C398.247 1007.3 354.702 1017.79 311.711 1029.94C297.218 1034.04 283.927 1038.72 269.791 1043.52C265.981 1044.81 258.359 1043.31 258.359 1047.4C258.359 1058.91 282.331 1069.51 288.846 1072.61C328.883 1091.63 367.83 1106.92 410.793 1117.21C418.34 1119.02 431.837 1121.18 437.469 1126.91C439.808 1129.29 440.849 1139.16 445.091 1138.55C456.807 1136.84 470.018 1128.35 481.294 1124.97C497.611 1120.09 514.398 1116.04 530.836 1111.4C588.421 1095.11 646.785 1080.23 702.325 1059.03C729.489 1048.67 760.277 1041.9 788.069 1033.82C792.83 1032.44 801.234 1032.06 805.218 1028C807.014 1026.18 799.955 1028.96 797.596 1028C794.158 1026.6 791.508 1023.59 788.069 1022.19C777.1 1017.72 766.285 1014.01 755.677 1008.61C737.04 999.127 718.486 985.874 698.514 979.521C665.671 969.075 631.123 971.207 597.526 965.946C583.185 963.7 568.201 962.067 553.701 962.067C550.825 962.067 542.564 961.709 545.126 963.037Z" fill="#ffffff" fill-rule="nonzero" opacity="1" stroke="#3c3c3c" stroke-linecap="round" stroke-linejoin="miter" stroke-width="6"/>
<path d="M547.985 929.099C480.886 954.252 412.756 977.317 346.009 1002.79C321.578 1012.12 296.323 1017.71 271.697 1026.06C269.662 1026.76 250.737 1033.26 250.737 1035.76C250.737 1038.07 275.407 1046.07 279.319 1047.4C309.081 1057.49 338.735 1069.4 368.874 1078.43C377.003 1080.86 385.605 1081.52 393.645 1084.24C412.149 1090.52 427.865 1102.65 446.997 1107.52C448.447 1107.89 457.78 1108.79 460.335 1111.4C462.028 1113.12 461.817 1118.08 466.051 1117.21C478.705 1114.64 496.929 1102.76 509.876 1097.82C550.415 1082.35 589.452 1062.84 629.918 1047.4C662.846 1034.83 695.549 1019.96 729.001 1008.61C738.433 1005.41 748.037 1001.69 757.582 998.914C761.297 997.834 765.267 997.929 769.015 996.975C770.393 996.624 773.83 996.058 772.826 995.036C770.094 992.255 764.98 994.557 761.393 993.096C752.592 989.513 743.365 983.522 734.717 979.521C693.618 960.508 653.907 941.955 608.958 934.917C594.431 932.642 579.392 930.384 565.133 927.159C559.122 925.8 553.673 924.728 547.985 923.281C546.752 922.967 544.174 921.988 544.174 923.281C544.174 925.611 550.133 928.293 547.985 929.099Z" fill="#ffffff" fill-rule="nonzero" opacity="1" stroke="#3c3c3c" stroke-linecap="round" stroke-linejoin="miter" stroke-width="6"/>
<path d="M580.377 890.312C580.873 890.716 582.872 890.072 582.282 890.312C559.504 899.586 536.838 909.2 513.687 917.463C449.3 940.441 385.019 960.996 321.238 985.339C298.15 994.151 276.794 997.342 252.643 1000.85C249.787 1001.27 236.551 1001.5 235.494 1004.73C234.914 1006.5 263.217 1020.91 265.981 1022.19C297.319 1036.68 329.796 1043.89 363.158 1051.28C398.037 1058.99 433.504 1063.05 467.956 1072.61C470.93 1073.43 486.658 1081.29 488.916 1080.37C491.418 1079.35 492.528 1076.26 494.632 1074.55C503.89 1067.01 518.538 1062.74 528.93 1057.09C566.867 1036.5 608.271 1021.6 647.067 1002.79C673.234 990.111 699.922 976.317 727.095 965.946C728.889 965.261 746.15 962.779 746.15 960.128C746.15 955.886 730.542 954.125 727.095 952.371C717.683 947.581 710.312 939.951 700.419 934.917C671.321 920.109 646.479 903.439 614.675 894.191C604.443 891.215 594.299 887.925 584.188 884.494C580.523 883.251 571.818 878.74 572.755 882.555C573.627 886.102 577.571 888.028 580.377 890.312Z" fill="#ffffff" fill-rule="nonzero" opacity="1" stroke="#3c3c3c" stroke-linecap="round" stroke-linejoin="miter" stroke-width="6"/>
<path d="M585.14 855.404C585.335 855.66 586.399 855.319 586.093 855.404C551.183 865.184 516.051 874.163 481.294 884.494C413.113 904.76 345.919 926.02 277.413 944.613C257.541 950.007 234.957 954.583 216.439 964.006C213.565 965.469 190.271 974.479 193.574 979.521C195.655 982.697 230.266 987.966 235.494 989.218C269.257 997.303 301.938 1006.16 336.482 1010.55C356.251 1013.07 376.165 1015.31 395.55 1020.25C422.763 1027.17 454.139 1043.62 483.2 1037.7C505.559 1033.15 529.602 1018.25 549.89 1008.61C578.412 995.064 606.809 980.721 635.634 967.885C662.565 955.894 690.594 940.326 719.473 932.977C723.703 931.901 734.665 933.137 736.622 927.159C737.893 923.281 729.001 924.574 725.19 923.281C716.951 920.486 710.235 915.223 702.325 911.645C674.675 899.137 650.595 880.501 622.296 868.98C618.442 867.41 576.009 843.437 585.14 855.404Z" fill="#ffffff" fill-rule="nonzero" opacity="1" stroke="#3c3c3c" stroke-linecap="round" stroke-linejoin="miter" stroke-width="6"/>
<path d="M562.275 817.587C562.69 817.762 561.748 818.41 561.323 818.557C530.899 829.092 500.643 840.188 469.862 849.586C415.559 866.167 362.949 880.04 309.805 898.069C291.457 904.294 270.404 906.353 252.643 913.584C243.356 917.365 237.429 920.849 227.872 923.281C226.058 923.742 206.407 928.07 208.818 932.977C210.866 937.147 216.523 938.025 220.25 940.735C247.909 960.843 283.345 964.606 315.522 973.703C334.818 979.159 354.516 985.333 374.59 987.278C389.075 988.682 403.914 986.048 418.415 987.278C426.121 987.932 433.737 991.817 441.28 993.096C446.842 994.04 452.867 992.153 458.429 993.096C462.392 993.768 465.845 996.975 469.862 996.975C478.641 996.975 497.135 982.126 502.254 979.521C530.977 964.904 560.439 951.99 589.904 938.795C620.23 925.215 652.334 912.04 681.365 896.13C685.873 893.659 692.413 893.034 694.703 888.373C696.151 885.425 687.466 888.764 685.176 886.433C679.308 880.461 675.378 875.907 668.027 870.919C649.867 858.597 632.725 843.446 612.769 834.072C606.194 830.983 598.533 830.991 591.809 828.254C586.974 826.285 556.751 815.268 562.275 817.587Z" fill="#ffffff" fill-rule="nonzero" opacity="1" stroke="#3c3c3c" stroke-linecap="round" stroke-linejoin="miter" stroke-width="6"/>
<path d="M636.587 797.225C636.298 797.09 637.857 797.242 637.54 797.225C625.473 796.561 613.421 795.285 601.337 795.285C574.018 795.285 546.693 795.962 519.403 797.225C439.215 800.934 361.291 806.901 288.846 843.768C276.22 850.194 263.946 855.845 250.737 861.222C248.812 862.006 235.255 866.313 235.494 867.04C237.564 873.361 262.306 882.624 265.981 884.494C294.688 899.103 323.285 907.168 353.63 917.463C372.129 923.739 390.591 929.612 406.983 940.735C415.032 946.196 422.018 970.255 433.659 967.885C457.74 962.983 481.945 952.69 506.065 946.553C519.367 943.168 532.741 940.088 546.079 936.856C556.87 934.241 567.71 931.837 578.471 929.099C604.794 922.401 630.81 913.015 656.594 907.766C664.164 906.225 667.605 896.237 675.649 894.191C680.378 892.987 699.67 890.79 698.514 882.555C695.694 862.467 674.803 840.441 662.31 826.314C653.182 815.992 648.806 802.899 636.587 797.225Z" fill="#ffffff" fill-rule="nonzero" opacity="1" stroke="#3c3c3c" stroke-linecap="round" stroke-linejoin="miter" stroke-width="6"/>
<path d="M490.822 761.347C491.457 762.963 494.257 765.417 492.727 766.195C478.166 773.606 461.607 776.34 446.997 783.649C398.796 807.763 359.54 838.362 309.805 857.344C288.991 865.288 289.833 875.732 275.508 890.312C274.054 891.792 255.996 902.439 265.981 905.827C275.556 909.075 297.074 910.042 305.995 911.645C332.569 916.418 359.221 921.947 386.023 925.22C404.849 927.519 422.888 927.778 441.28 932.977C451.617 935.9 477.673 952.274 488.916 946.553C525.435 927.968 566.56 915.686 603.242 896.13C621.836 886.217 639.679 874.678 658.5 865.101C669.874 859.312 682.49 853.138 694.703 849.586C695.414 849.38 706.635 846.781 708.041 845.708C710.521 843.814 710.318 838.283 709.946 836.011C707.554 821.401 689.262 818.651 677.554 814.678C672.406 812.932 667.459 810.607 662.31 808.86C620.547 794.692 577.415 782.059 534.647 772.013C527.666 770.374 492.613 754.617 488.916 756.499C487.387 757.277 490.186 759.731 490.822 761.347Z" fill="#ffffff" fill-rule="nonzero" opacity="1" stroke="#3c3c3c" stroke-linecap="round" stroke-linejoin="miter" stroke-width="6"/>
<path d="M616.58 764.256C571.386 783.969 518.684 773.837 469.862 779.771C428.907 784.748 388.598 794.202 347.914 801.103C327.445 804.575 304.987 805.723 285.035 810.8C272.144 814.08 262.385 826.139 252.643 834.072C247.987 837.863 244.358 841.85 239.304 845.708C238.168 846.575 234.858 846.354 235.494 847.647C239.021 854.828 261.969 854.544 267.886 855.404C273.683 856.247 279.283 858.168 285.035 859.283C325.539 867.135 366.872 868.47 406.983 878.676C441.86 887.551 477.787 899.193 509.876 915.523C511.579 916.39 541.007 927.787 542.268 925.22C543.717 922.272 541.645 917.582 544.174 915.523C555.174 906.567 573.078 901.925 586.093 896.13C614.794 883.35 645.611 877.132 675.649 868.98C691.129 864.778 705.837 857.419 721.379 853.465C727.663 851.866 734.175 851.285 740.433 849.586C743.681 848.705 773.843 838.724 774.731 836.011C776.36 831.036 760.174 825.548 757.582 824.375C738.617 815.796 722.235 802.654 702.325 795.285C688.136 790.034 673.273 786.815 658.5 783.649C632.828 778.149 600.64 770.074 574.661 770.074" fill="#ffffff" fill-rule="nonzero" opacity="1" stroke="#3c3c3c" stroke-linecap="round" stroke-linejoin="miter" stroke-width="6"/>
<path d="M473.673 705.107C475.4 704.227 481.205 703.467 479.389 704.137C445.209 716.756 411.275 730.196 376.496 740.984C344.519 750.903 311.534 757.115 279.319 766.195C258.183 772.152 239.758 780.461 218.345 785.589C198.517 790.337 176.743 791.591 157.371 797.225C153.274 798.416 144.033 799.164 145.938 803.043C146.058 803.286 182.174 810.527 184.047 810.8C220.126 816.046 256.813 816.355 292.657 822.436C352.239 832.543 411.898 841.277 471.767 849.586C483.265 851.182 516.242 855.915 527.025 851.526C536.704 847.585 546.355 838.78 555.606 834.072C576.449 823.465 598.493 815.026 620.391 806.921C641.594 799.074 664.849 792.053 687.081 787.528C692.346 786.456 698.242 789.883 702.325 783.649C703.099 782.466 681.521 775.96 681.365 775.892C665.998 769.189 650.867 759.855 635.634 752.62C597.036 734.287 551.029 730.899 509.876 721.591C502.944 720.023 495.879 719.13 488.916 717.712C483.174 716.543 477.473 715.174 471.767 713.834C469.216 713.234 463.577 714.496 464.146 711.894C464.986 708.043 470.205 706.871 473.673 705.107Z" fill="#ffffff" fill-rule="nonzero" opacity="1" stroke="#3c3c3c" stroke-linecap="round" stroke-linejoin="miter" stroke-width="6"/>
<path d="M547.985 673.108C552.164 674.652 565.377 671.251 561.323 673.108C519.484 692.27 476.061 707.636 433.659 725.47C399.205 739.96 365.177 755.481 330.765 770.074C317.041 775.894 303.087 781.24 288.846 785.589C278.194 788.841 280.253 788.022 273.602 791.407C272.332 792.053 268.787 792.324 269.791 793.346C276.01 799.675 297.133 797.811 305.995 799.164C330.909 802.968 355.53 805.95 380.306 810.8C422.014 818.963 462.578 826.087 504.16 832.132C520.502 834.508 537.738 831.369 553.701 836.011C554.023 836.105 569.299 837.228 567.039 841.829C565.034 845.911 560.589 839.443 570.85 832.132C578.792 826.474 586.949 821.031 595.62 816.618C615.34 806.583 637.769 797.379 658.5 789.467C682.586 780.274 708.133 771.791 732.811 764.256C735.805 763.342 758.367 757.182 759.488 752.62C760.697 747.695 728.713 729.767 723.284 725.47C688.834 698.198 652.672 691.503 610.864 680.865C596.542 677.221 581.488 674.578 567.039 673.108C566.112 673.013 535.588 668.526 547.985 673.108Z" fill="#ffffff" fill-rule="nonzero" opacity="1" stroke="#3c3c3c" stroke-linecap="round" stroke-linejoin="miter" stroke-width="6"/>
<path d="M675.087 1062.42C675.087 1062.42 644.613 1057.08 631.257 1054.36C607.766 1049.58 578.564 1062.14 583.882 1089.2C585.195 1095.88 589.715 1106.03 596.16 1108.84C620.009 1119.24 692.26 1138.92 716.277 1126.69" fill="#e5b989" fill-rule="nonzero" opacity="1" stroke="#3c3c3c" stroke-linecap="round" stroke-linejoin="miter" stroke-width="6"/>
<path d="M864.513 714.319C849.015 706.432 800.529 674.703 783.832 667.906C747.982 653.311 741.077 680.612 746.999 710.749C750.917 730.688 830.904 769.659 848.728 769.659" fill="#e5b989" fill-rule="nonzero" opacity="1" stroke="#3c3c3c" stroke-linecap="round" stroke-linejoin="miter" stroke-width="6"/>
<path d="M832.942 735.741C818.911 717.89 811.03 679.465 798.149 649.763C776.815 600.568 794.431 470.386 805.451 444.216C811.714 429.342 862.759 328.728 894.33 309.092C925.901 289.455 1008.21 252.066 1094.28 257.323C1181.98 262.678 1207.74 266.808 1288.97 319.803C1357.37 364.431 1393.21 520.022 1394.96 605.709C1397.01 705.671 1411.83 731.944 1384.56 834.777C1354.75 947.241 1355.62 970.019 1260.91 1080.27C1248.71 1094.47 1148.71 1139.43 1113.57 1144.54C1100.68 1146.41 947.651 1162.1 897.838 1157.03C863.659 1153.56 782.078 1146.32 718.936 1124.9C655.794 1103.48 663.67 1058.75 659.302 1032.07C651.989 987.42 657.918 937.363 666.317 894.619C667.556 888.315 689.119 801.791 754.015 767.874C818.911 733.956 887.234 729.084 929.611 741.407C939.118 744.172 1000.46 746.64 1000.46 748.323" fill="#64d6ee" fill-rule="nonzero" opacity="1" stroke="#3c3c3c" stroke-linecap="round" stroke-linejoin="miter" stroke-width="6"/>
<path d="M994.975 1119.09C993.806 1119.09 992.375 1118.34 991.467 1119.09C982.798 1126.25 973.708 1133.27 966.912 1142.29C960.069 1151.38 956.156 1162.4 951.126 1172.64C936.505 1202.4 967.979 1209.72 989.713 1206.56C1009.62 1203.66 1029.68 1192.53 1045.84 1181.57C1064.05 1169.21 1147.32 1117.3 1119.51 1117.3" fill="#e5b989" fill-rule="nonzero" opacity="1" stroke="#3c3c3c" stroke-linecap="round" stroke-linejoin="miter" stroke-width="6"/>
<path d="M969.942 609.673C965.414 608.444 958.916 609.666 956.861 613.953C951.709 624.702 952.782 634.315 952.403 646.269C952.052 657.321 949.641 663.156 960.877 668.875C968.437 672.722 977.978 659.674 978.712 655.194C980.142 646.463 979.231 639.127 980.466 628.417C981.701 617.708 981.735 614.448 979.843 612.384C976.523 608.764 974.643 610.949 969.942 609.673Z" fill="#ffffff" fill-rule="nonzero" opacity="1" stroke="#3c3c3c" stroke-linecap="round" stroke-linejoin="miter" stroke-width="6"/>
<path d="M998.425 614.448C993.348 614.991 980.764 610.225 980.706 618.84C980.648 627.455 982.567 651.223 985.234 662.871C987.095 670.997 1001.38 673.822 1010.52 666.107C1016.5 661.057 1016.24 616.227 1010.61 612.929C1006.3 610.407 1003.37 613.92 998.425 614.448Z" fill="#ffffff" fill-rule="nonzero" opacity="1" stroke="#3c3c3c" stroke-linecap="round" stroke-linejoin="miter" stroke-width="6"/>
<path d="M1071.24 474.019C1071.24 420.464 1114.97 377.05 1168.93 377.05C1222.88 377.05 1266.62 420.464 1266.62 474.019C1266.62 527.573 1222.88 570.988 1168.93 570.988C1114.97 570.988 1071.24 527.573 1071.24 474.019Z" fill="#ffffff" fill-rule="nonzero" opacity="1" stroke="#3c3c3c" stroke-linecap="butt" stroke-linejoin="miter" stroke-width="6"/>
<path d="M918.798 606.467C915.035 593.976 915.314 586.73 921.012 575.13C933.851 548.996 965.526 564.04 990.527 564.04C999.759 564.04 1016.52 564.275 1025.05 566.011C1032.82 567.593 1045.45 571.198 1047.3 578.701C1048.82 584.901 1051.94 606.742 1049.05 612.618C1046.59 617.621 1027.81 628.836 1004.89 615.254C988.925 605.796 975.517 607.472 959.831 613.074C944.145 618.676 919.718 609.256 919.718 607.925C919.718 606.02 919.346 608.289 918.798 606.467Z" fill="#e5b989" fill-rule="nonzero" opacity="1" stroke="#3c3c3c" stroke-linecap="round" stroke-linejoin="miter" stroke-width="6"/>
<path d="M752.46 462.491C752.46 411.156 791.679 369.541 840.058 369.541C888.436 369.541 927.655 411.156 927.655 462.491C927.655 513.826 888.436 555.442 840.058 555.442C791.679 555.442 752.46 513.826 752.46 462.491Z" fill="#ffffff" fill-rule="nonzero" opacity="1" stroke="#3c3c3c" stroke-linecap="butt" stroke-linejoin="miter" stroke-width="6"/>
<path d="M981.818 576.666C956.623 583.9 948.855 548.786 973.925 544.533C983.516 542.906 1000.47 542.845 1009.72 546.126C1016.92 548.678 1017.77 552.87 1017.77 562.385C1017.77 565.605 1013.8 570.662 1011.27 573.246C1003.1 581.554 991.597 573.858 981.818 576.666Z" fill="#000000" fill-rule="nonzero" opacity="1" stroke="#3c3c3c" stroke-linecap="round" stroke-linejoin="miter" stroke-width="6"/>
<path d="M1159.47 463.964C1159.47 443.233 1177.06 426.427 1198.76 426.427C1220.46 426.427 1238.05 443.233 1238.05 463.964C1238.05 484.694 1220.46 501.5 1198.76 501.5C1177.06 501.5 1159.47 484.694 1159.47 463.964Z" fill="#303030" fill-rule="nonzero" opacity="1" stroke="#3c3c3c" stroke-linecap="butt" stroke-linejoin="miter" stroke-width="6"/>
<path d="M757.031 442.687C757.031 420.686 774.858 402.851 796.848 402.851C818.839 402.851 836.665 420.686 836.665 442.687C836.665 464.687 818.839 482.523 796.848 482.523C774.858 482.523 757.031 464.687 757.031 442.687Z" fill="#303030" fill-rule="nonzero" opacity="1" stroke="#3c3c3c" stroke-linecap="butt" stroke-linejoin="miter" stroke-width="6"/>
<path d="M1194.95 474.561C1194.95 464.196 1202.55 455.793 1211.94 455.793C1221.32 455.793 1228.93 464.196 1228.93 474.561C1228.93 484.926 1221.32 493.329 1211.94 493.329C1202.55 493.329 1194.95 484.926 1194.95 474.561Z" fill="#ffffff" fill-rule="nonzero" opacity="1" stroke="#3c3c3c" stroke-linecap="butt" stroke-linejoin="miter" stroke-width="6"/>
<path d="M772.73 439.432C772.73 429.278 781.197 421.047 791.643 421.047C802.088 421.047 810.556 429.278 810.556 439.432C810.556 449.587 802.088 457.818 791.643 457.818C781.197 457.818 772.73 449.587 772.73 439.432Z" fill="#ffffff" fill-rule="nonzero" opacity="1" stroke="#3c3c3c" stroke-linecap="butt" stroke-linejoin="miter" stroke-width="6"/>
<path d="M997.841 262.577C992.831 269.079 994.872 250.974 996.103 248.163C998.852 241.883 1010.84 232.723 1017.24 230.99C1022.68 229.518 1029.72 227.17 1035.63 227.648C1046.55 228.533 1061.91 243.973 1063.2 254.695" fill="#64d6ee" fill-rule="nonzero" opacity="1" stroke="#3c3c3c" stroke-linecap="round" stroke-linejoin="miter" stroke-width="6"/>
<path d="M1291.98 346.844C1294.93 337.84 1303.43 331.649 1310.64 325.625C1327.1 311.858 1370.43 297.138 1388.54 315.574C1396.05 323.219 1392.17 334.02 1394.03 343.494C1398.41 365.791 1392.06 382.409 1374.28 395.983C1371.7 397.955 1369.93 401.716 1366.6 402.684C1364.46 403.306 1361.92 402.636 1360.01 403.801C1349.68 410.109 1346.44 412.819 1335.87 414.969C1334.27 415.295 1333.04 417.729 1331.48 417.202C1328.92 416.331 1328.08 414.969 1323.8 414.969" fill="#64d6ee" fill-rule="nonzero" opacity="1" stroke="#3c3c3c" stroke-linecap="round" stroke-linejoin="miter" stroke-width="6"/>
<path d="M1328.74 401.567C1326.12 399.043 1317.9 399.318 1319.41 395.983C1325.84 381.778 1337.35 370.454 1347.94 359.129C1357.39 349.028 1370.61 345.342 1372.08 349.078C1377.44 362.711 1355.79 389.436 1345.75 397.1C1339.25 402.06 1335.03 407.626 1328.74 401.567Z" fill="#deae78" fill-rule="nonzero" opacity="1" stroke="#3c3c3c" stroke-linecap="round" stroke-linejoin="miter" stroke-width="6"/>
<path d="M1408.29 1028C1457.9 1016.72 1507 1003.17 1555.96 989.218C1579.18 982.6 1609.37 975.611 1632.18 964.006C1653.98 952.911 1679.58 941.885 1698.87 927.159C1702.52 924.369 1711.77 919.087 1714.11 915.523C1716.71 911.557 1717.09 903.614 1723.64 901.948C1736.55 898.664 1754.71 904.529 1767.46 905.827C1798.75 909.011 1830.2 906.45 1860.83 911.645C1874.61 913.983 1889.02 911.588 1902.75 913.584C1911.02 914.786 1927.52 917.463 1927.52 917.463C1927.52 917.463 1923.51 916.595 1921.8 917.463C1918.57 919.109 1918.65 926.425 1917.99 929.099C1916.58 934.822 1910.45 938.71 1906.56 942.674C1891.26 958.244 1871.83 970.402 1853.21 981.46C1823.57 999.054 1790.46 1016.97 1757.93 1028C1732.72 1036.56 1705.32 1039.98 1679.81 1047.4C1657.59 1053.86 1635.61 1059.13 1613.12 1064.85C1612.03 1065.13 1595.32 1067.41 1597.88 1072.61C1598.68 1074.25 1605.5 1071.35 1605.5 1070.67C1605.5 1068.13 1560.36 1055.79 1557.86 1055.15C1521.19 1045.82 1485.28 1035.76 1447.35 1035.76C1435.05 1035.76 1422.86 1036.21 1411.15 1033.82C1408.36 1033.26 1406.31 1030.51 1403.52 1029.94C1401.66 1029.56 1396.04 1030.66 1397.81 1029.94C1401.1 1028.6 1404.82 1028.79 1408.29 1028Z" fill="#ffffff" fill-rule="nonzero" opacity="1" stroke="#3c3c3c" stroke-linecap="round" stroke-linejoin="miter" stroke-width="6"/>
<path d="M1753.17 854.435C1739.57 871.944 1717.85 881.067 1698.87 892.251C1662.13 913.899 1623.27 934.707 1582.63 948.492C1551.26 959.135 1518.6 965.043 1487.36 975.642C1467.21 982.479 1448.01 989.45 1428.29 996.975C1426.96 997.484 1411.15 1002 1411.15 1002.79C1411.15 1004.73 1443.62 1010.21 1445.44 1010.55C1476.32 1016.26 1506.89 1017.82 1536.9 1028C1558.61 1035.37 1586.79 1040.24 1609.31 1043.52C1616.11 1044.51 1623.49 1042.37 1630.27 1043.52C1637.41 1044.73 1652.19 1052.73 1658.85 1049.34C1662.07 1047.7 1663.26 1043.21 1666.47 1041.58C1694.19 1027.48 1723.5 1019.85 1750.31 1002.79C1773.25 988.201 1795.35 971.887 1818.91 958.188C1844.15 943.506 1867.99 929.452 1891.31 911.645C1895.43 908.503 1914.76 897.904 1912.27 890.312C1910.33 884.391 1876.38 874.904 1870.35 872.858C1846.87 864.891 1823.82 859.564 1799.85 853.465C1796.41 852.589 1768.55 842.462 1765.56 843.768C1760.59 845.937 1756.53 850.117 1753.17 854.435Z" fill="#ffffff" fill-rule="nonzero" opacity="1" stroke="#3c3c3c" stroke-linecap="round" stroke-linejoin="miter" stroke-width="6"/>
<path d="M1759.84 801.103C1760.73 798.682 1762.04 792.047 1759.84 793.346C1719.31 817.296 1683.09 848.551 1641.7 870.919C1610.97 887.526 1576.97 896.921 1544.53 909.705C1525.91 917.039 1508 924.23 1489.27 931.038C1473.33 936.833 1459.85 943.749 1443.54 948.492C1441.62 949.05 1421.91 956.837 1422.58 958.188C1423.85 960.771 1439.37 961.3 1441.63 962.067C1463.62 969.526 1484.85 982.009 1506.42 991.157C1531.65 1001.86 1558.22 1011 1584.54 1018.31C1593.47 1020.79 1597.73 1024.05 1605.5 1028C1606.77 1028.65 1609.31 1029.94 1609.31 1029.94C1609.31 1029.94 1603.59 1026.87 1603.59 1024.13C1603.59 1020.04 1611.8 1015.1 1613.12 1014.43C1630.44 1005.61 1650.57 1001.68 1668.38 993.096C1709.76 973.146 1747.95 948.734 1788.42 927.159C1816.97 911.94 1844.76 894.221 1874.17 880.616C1878.89 878.431 1906.88 869.625 1908.46 863.162C1909.83 857.603 1882.43 841.4 1877.98 839.89C1847.15 829.43 1813.2 829.64 1782.7 818.557C1773.85 815.34 1769.08 810.204 1759.84 808.86C1757.95 808.586 1754.12 810.8 1754.12 808.86C1754.12 805.628 1758.72 804.13 1759.84 801.103Z" fill="#ffffff" fill-rule="nonzero" opacity="1" stroke="#3c3c3c" stroke-linecap="round" stroke-linejoin="miter" stroke-width="6"/>
<path d="M1462.59 916.493C1456.24 919.47 1447.01 912.906 1441.63 917.463C1438.08 920.475 1441.22 929.113 1445.44 931.038C1461.47 938.352 1479.71 938.964 1496.89 942.674C1526.93 949.16 1557.96 953.769 1588.35 958.188C1611.86 961.607 1637.1 967.885 1660.76 967.885C1662.05 967.885 1675.52 968.863 1676 967.885C1677.14 965.572 1674.2 961.956 1676 960.128C1685 950.968 1697.88 947.419 1708.39 940.735C1736.87 922.617 1761.9 898.697 1790.33 880.616C1817.53 863.31 1846.97 849.433 1874.17 832.132C1880.74 827.95 1886.77 822.934 1893.22 818.557C1896.21 816.529 1903.83 812.828 1900.84 810.8C1893.63 805.904 1864.13 809.486 1853.21 806.921C1824.1 800.085 1795.15 795.709 1765.56 791.407C1758.45 790.373 1751.04 788.865 1744.6 785.589C1742.19 784.362 1741.57 779.771 1738.88 779.771C1729.13 779.771 1692.48 809.459 1683.62 814.678C1646.6 836.492 1607.02 852.845 1567.39 868.98C1539 880.538 1511.24 892.677 1483.55 905.827C1478.9 908.035 1465.23 915.259 1462.59 916.493Z" fill="#ffffff" fill-rule="nonzero" opacity="1" stroke="#3c3c3c" stroke-linecap="round" stroke-linejoin="miter" stroke-width="6"/>
<path d="M1460.69 900.978C1462.21 898.69 1450.45 897.322 1453.06 898.069C1465.83 901.724 1478.16 907.092 1491.17 909.705C1526.52 916.805 1562.26 921.667 1597.88 927.159C1604.19 928.133 1610.56 928.717 1616.93 929.099C1620.08 929.287 1640.47 931.837 1643.61 931.038C1651.22 929.102 1660.28 913.827 1668.38 909.705C1720.26 883.305 1770.47 853.361 1818.91 820.496C1838.34 807.308 1856.34 796.829 1874.17 781.71C1878.2 778.287 1886.95 770.878 1883.69 764.256C1881.12 759.02 1864.68 764.256 1860.83 764.256C1830.71 764.256 1801.26 762.376 1771.27 758.438C1749.43 755.569 1725.81 751.035 1704.58 744.863C1690.06 740.64 1678.07 734.866 1662.66 737.105C1652.86 738.531 1658.33 743.644 1656.95 750.681C1654.96 760.782 1644.91 769.772 1637.89 775.892C1609.08 801.025 1577.2 820.702 1544.53 839.89C1519.03 854.862 1492.17 870.711 1468.31 888.373C1461.47 893.435 1455.98 900.691 1449.25 905.827C1446.98 907.561 1444.17 908.412 1441.63 909.705C1440.36 910.352 1436.4 911.645 1437.82 911.645C1445.91 911.645 1456.56 907.198 1460.69 900.978Z" fill="#ffffff" fill-rule="nonzero" opacity="1" stroke="#3c3c3c" stroke-linecap="round" stroke-linejoin="miter" stroke-width="6"/>
<path d="M1462.59 850.556C1461.99 846.251 1448.85 841.114 1453.06 841.829C1462.61 843.448 1471.05 849.131 1479.74 853.465C1503.46 865.3 1526.61 878.288 1550.24 890.312C1561.27 895.922 1574.05 901.785 1586.45 903.887C1589.27 904.367 1644.45 884.376 1658.85 878.676C1705.19 860.333 1751.08 839.272 1797.95 822.436C1808.44 818.668 1818.05 812.384 1828.44 808.86C1848.06 802.201 1868.19 798.778 1887.5 791.407C1899.05 786.999 1910.63 785.457 1921.8 779.771C1923.07 779.124 1926.62 778.853 1925.61 777.831C1921.79 773.945 1906.13 772.38 1900.84 770.074C1893.53 766.883 1886.89 762.278 1879.88 758.438C1852.68 743.53 1820.46 719.652 1788.42 719.652C1784.09 719.652 1773.27 732.117 1771.27 733.227C1760.57 739.166 1748.15 745.293 1736.97 750.681C1694.04 771.38 1649.43 786.689 1605.5 804.982C1573.05 818.494 1541.3 833.503 1508.32 845.708C1495.75 850.362 1482.82 849.388 1470.21 851.526C1466.4 852.172 1462.53 852.511 1458.78 853.465C1457.4 853.816 1453.83 856.272 1454.97 855.404C1457.37 853.575 1463.02 853.575 1462.59 850.556Z" fill="#ffffff" fill-rule="nonzero" opacity="1" stroke="#3c3c3c" stroke-linecap="round" stroke-linejoin="miter" stroke-width="6"/>
<path d="M1006.24 1246.18C1009.32 1244.25 1009.95 1239.57 1012.91 1237.45C1063.76 1201.01 1116.26 1167.02 1167.25 1130.79C1183.6 1119.17 1199.37 1106.7 1214.89 1093.94C1221.66 1088.37 1209.51 1085.63 1211.08 1092C1212.31 1097.03 1221.9 1097.65 1224.41 1097.82C1230.75 1098.25 1237.13 1097.42 1243.47 1097.82C1276.83 1099.94 1304.51 1117.55 1336.83 1123.03C1380.77 1130.48 1425.19 1134.75 1468.31 1146.3C1479.57 1149.32 1489.67 1152.79 1500.7 1156C1502.07 1156.4 1504.51 1156.49 1504.51 1157.94C1504.51 1165.18 1471.51 1177.08 1466.4 1179.27C1435.25 1192.62 1405.71 1209.64 1374.94 1223.88C1320.05 1249.27 1264.38 1274.83 1211.08 1303.39C1200.64 1308.98 1180.22 1328.6 1167.25 1328.6C1165.83 1328.6 1166.2 1325.88 1165.34 1324.72C1160.07 1317.56 1156 1313.97 1148.2 1309.21C1112.34 1287.31 1070.29 1268.54 1030.06 1256.84C1014.1 1252.21 1013.46 1252.97 999.572 1252.97C995.761 1252.97 985.445 1255.71 988.139 1252.97C992.686 1248.34 1000.76 1249.61 1006.24 1246.18Z" fill="#ffffff" fill-rule="nonzero" opacity="1" stroke="#3c3c3c" stroke-linecap="round" stroke-linejoin="miter" stroke-width="6"/>
<path d="M1111.99 1194.79C1129.78 1183.8 1148.08 1173.63 1165.34 1161.82C1225.59 1120.61 1286.08 1079.67 1344.46 1035.76C1348.49 1032.72 1334.26 1025.39 1342.55 1033.82C1353.27 1044.73 1378.21 1049.8 1392.09 1055.15C1431.47 1070.36 1462.29 1075.98 1504.51 1080.37C1540.87 1084.14 1576.62 1086.18 1613.12 1086.18C1615.24 1086.18 1632.18 1086.18 1632.18 1086.18C1635.99 1091.36 1608.3 1103.11 1607.4 1103.64C1582.78 1118.26 1555.96 1129.23 1531.19 1144.36C1495.56 1166.12 1452.63 1188.6 1420.67 1216.12C1414.56 1221.38 1390.11 1249.89 1382.56 1252.97C1376.05 1255.62 1361.09 1246.66 1353.98 1245.21C1332.13 1240.76 1310.51 1236.6 1289.2 1229.69C1267.07 1222.53 1247.35 1211.61 1224.41 1206.42C1209.25 1202.99 1193.73 1202.75 1178.68 1198.66C1174.67 1197.57 1142.48 1176.26 1142.48 1175.39C1142.48 1173.45 1146.29 1175.39 1148.2 1175.39" fill="#ffffff" fill-rule="nonzero" opacity="1" stroke="#3c3c3c" stroke-linecap="round" stroke-linejoin="miter" stroke-width="6"/>
<path d="M1340.64 1060C1335.59 1061.29 1335.42 1069.63 1331.12 1072.61C1278.66 1108.9 1224.05 1141.86 1171.06 1177.33C1153.54 1189.06 1136.39 1201.37 1119.61 1214.18C1118.48 1215.05 1117.99 1216.64 1117.71 1218.06C1114.45 1234.66 1145.3 1241.8 1153.91 1245.21C1200.21 1263.53 1243.17 1286.67 1291.1 1301.45C1313.29 1308.29 1335.82 1313.39 1357.79 1320.84C1363.73 1322.86 1374.94 1322.23 1374.94 1328.6C1374.94 1329.89 1372.4 1328.6 1371.13 1328.6C1362.72 1328.6 1356.93 1318.8 1363.51 1311.15C1379.48 1292.57 1400.47 1277.15 1418.77 1260.72C1448.52 1234 1481.07 1211.34 1514.04 1188.97C1524.49 1181.88 1549.14 1172.38 1554.05 1159.88C1559.18 1146.84 1515.34 1133.76 1508.32 1130.79C1464.33 1112.13 1418 1101.44 1373.04 1086.18C1368.08 1084.5 1339.07 1072.83 1338.74 1070.67C1338.2 1067.1 1344.09 1059.13 1340.64 1060Z" fill="#ffffff" fill-rule="nonzero" opacity="1" stroke="#3c3c3c" stroke-linecap="round" stroke-linejoin="miter" stroke-width="6"/>
<path d="M1367.32 1034.79C1365.24 1033.27 1366.05 1027.68 1363.51 1028C1351.55 1029.53 1340.21 1034.64 1329.21 1039.64C1288.62 1058.1 1247.23 1079.42 1207.26 1099.76C1176.21 1115.56 1146.99 1133.14 1113.9 1144.36C1111.32 1145.24 1087.85 1154.03 1089.13 1157.94C1089.76 1159.88 1092.98 1159.12 1094.84 1159.88C1099.1 1161.61 1102.26 1165.4 1106.28 1167.64C1129.18 1180.35 1157.16 1182 1182.49 1185.09C1208.23 1188.23 1231.57 1193.53 1256.81 1198.66C1262.66 1199.86 1276.85 1197.4 1281.58 1200.6C1282.76 1201.41 1278.67 1203.46 1279.67 1204.48C1281.92 1206.77 1284.85 1200.73 1287.29 1198.66C1296.81 1190.59 1294.1 1193.83 1306.35 1187.03C1339.64 1168.54 1373.42 1149.99 1407.33 1132.73C1426.58 1122.93 1447.85 1112.52 1468.31 1105.58C1471.85 1104.37 1488.35 1100.63 1489.27 1097.82C1490.8 1093.15 1480.38 1093.94 1475.93 1092C1470.98 1089.84 1468.55 1083.98 1464.5 1080.37C1450.29 1067.71 1427.05 1055.38 1409.24 1049.34C1394.49 1044.33 1380.16 1044.23 1367.32 1034.79Z" fill="#ffffff" fill-rule="nonzero" opacity="1" stroke="#3c3c3c" stroke-linecap="round" stroke-linejoin="miter" stroke-width="6"/>
<path d="M1484.5 1052.25C1483.21 1048.93 1486.87 1040.44 1483.55 1041.58C1438.52 1057.08 1396.03 1079.4 1352.08 1097.82C1320.45 1111.07 1288.52 1123.58 1256.81 1136.61C1252.32 1138.45 1247.89 1140.42 1243.47 1142.42C1242.17 1143.01 1238.65 1143.34 1239.66 1144.36C1240.45 1145.17 1257.1 1140.97 1264.43 1146.3C1273.69 1153.04 1280.52 1162.25 1291.1 1167.64C1336.41 1190.69 1387.41 1200.24 1434.01 1220C1441.89 1223.34 1456.27 1229.08 1462.59 1235.51C1463.6 1236.53 1463.15 1238.93 1464.5 1239.39C1466.78 1240.17 1492.29 1220.25 1494.98 1218.06C1518.86 1198.62 1542.15 1177.46 1567.39 1159.88C1593.06 1142 1623.88 1130.74 1651.23 1115.27C1652.3 1114.67 1668.41 1109.51 1666.47 1105.58C1665.3 1103.19 1661.19 1104.83 1658.85 1103.64C1651.11 1099.7 1644.25 1094.8 1635.99 1092C1631.6 1090.51 1627.06 1089.53 1622.65 1088.12C1592.01 1078.38 1559.33 1070.62 1527.38 1066.79C1508.2 1064.49 1492.04 1071.55 1484.5 1052.25Z" fill="#ffffff" fill-rule="nonzero" opacity="1" stroke="#3c3c3c" stroke-linecap="round" stroke-linejoin="miter" stroke-width="6"/>
<path d="M1337.79 1004.73C1340.09 1004.54 1346.6 1001.92 1344.46 1002.79C1315.33 1014.65 1286.6 1027.71 1256.81 1037.7C1230.62 1046.49 1203.4 1051.74 1176.78 1059.03C1148.93 1066.66 1119.46 1075.03 1094.84 1090.06C1091.31 1092.22 1075.75 1094.01 1073.88 1097.82C1072.71 1100.2 1078.89 1099.76 1081.51 1099.76C1086.59 1099.76 1091.67 1099.76 1096.75 1099.76C1105.03 1099.76 1113.28 1100.86 1121.52 1101.7C1155.1 1105.12 1187.23 1109.1 1220.6 1115.27C1254.39 1121.53 1287.41 1132.26 1321.59 1136.61C1333.52 1138.12 1345.89 1137.03 1357.79 1138.55C1359.54 1138.77 1389.81 1144.74 1390.19 1144.36C1391.53 1142.99 1389.21 1140.21 1390.19 1138.55C1392.5 1134.63 1396.54 1132.08 1399.71 1128.85C1407.53 1120.89 1419.67 1116.48 1428.29 1109.46C1437.64 1101.84 1446.85 1092.98 1456.88 1086.18C1470.38 1077.02 1485.05 1067.43 1498.8 1059.03C1501.54 1057.36 1508.71 1057.09 1510.23 1053.22C1514.04 1043.52 1469.81 1036.63 1466.4 1035.76C1443.29 1029.88 1419.74 1020.73 1395.9 1018.31C1385.24 1017.22 1374.16 1017.72 1363.51 1016.37C1352.82 1015.01 1343.09 1008.15 1333.02 1004.73C1330.54 1003.89 1328.02 1002.79 1325.4 1002.79C1323.98 1002.79 1320.19 1004.51 1321.59 1004.73C1326.93 1005.57 1332.41 1005.19 1337.79 1004.73Z" fill="#ffffff" fill-rule="nonzero" opacity="1" stroke="#3c3c3c" stroke-linecap="round" stroke-linejoin="miter" stroke-width="6"/>
<path d="M1414 954.31C1416.35 952.522 1423.58 948.166 1420.67 948.492C1389.33 951.998 1358.31 958.129 1327.31 964.006C1293.51 970.414 1259.75 977.191 1226.32 985.339C1211.28 989.005 1197.37 996.529 1182.49 1000.85C1168.67 1004.87 1152.86 1009.86 1138.67 1012.49C1134.92 1013.18 1128.94 1009.02 1127.24 1012.49C1124.04 1019 1152.39 1023.82 1153.91 1024.13C1190.33 1031.54 1226.09 1043.04 1262.52 1051.28C1307.11 1061.36 1353.9 1057.85 1397.81 1066.79C1406.25 1068.51 1446.66 1082.54 1453.06 1080.37C1458.18 1078.63 1459.95 1071.67 1464.5 1068.73C1477.85 1060.08 1493.96 1052.1 1508.32 1045.46C1517.66 1041.14 1577.86 1022.23 1580.73 1010.55C1582.87 1001.85 1549.82 989.075 1544.53 987.278C1512.04 976.256 1477.51 972.366 1445.44 960.128C1436.45 956.697 1426.28 958.188 1416.86 958.188C1413 958.188 1403.11 963.274 1405.43 960.128C1407.49 957.331 1411.26 956.408 1414 954.31Z" fill="#ffffff" fill-rule="nonzero" opacity="1" stroke="#3c3c3c" stroke-linecap="round" stroke-linejoin="miter" stroke-width="6"/>
<path d="M579.424 1152.12C582.282 1152.12 590.748 1151.33 587.999 1152.12C536.125 1167.11 484.277 1182.36 431.753 1194.79C374.234 1208.39 316.559 1216.47 258.359 1223.88C245.71 1225.49 182 1217.34 185.952 1237.45C187.125 1243.42 195.644 1247.23 199.29 1249.09C216.828 1258.01 234.669 1266.32 252.643 1274.3C287.471 1289.75 327.873 1297.33 365.063 1303.39C400.586 1309.17 435.699 1314.02 469.862 1326.66C476.354 1329.06 486.635 1332.64 492.727 1336.36C493.318 1336.72 499.074 1342.19 498.443 1344.11C497.994 1345.49 493.255 1346.4 494.632 1346.05C520.99 1339.35 546.84 1327.23 572.755 1318.9C632.586 1299.67 693.112 1282.65 753.771 1266.54C791.17 1256.61 828.88 1248.88 866.192 1239.39C869.973 1238.43 892.959 1233.39 894.773 1229.69C895.944 1227.31 889.583 1228.74 887.152 1227.75C882.899 1226.02 879.646 1222.4 875.719 1220C858.384 1209.41 839.725 1204.86 820.461 1198.66C759.716 1179.14 699.395 1163.58 635.634 1157.94C616.598 1156.25 597.508 1153.5 578.471 1152.12C574.67 1151.84 570.85 1152.12 567.039 1152.12C565.133 1152.12 559.417 1152.12 561.323 1152.12C567.356 1152.12 573.39 1152.12 579.424 1152.12Z" fill="#ffffff" fill-rule="nonzero" opacity="1" stroke="#3c3c3c" stroke-linecap="round" stroke-linejoin="miter" stroke-width="6"/>
<path d="M990.045 1270.42C993.84 1270.77 1005.29 1270.42 1001.48 1270.42C955.112 1270.42 908.708 1268.51 862.381 1270.42C801.19 1272.94 740.149 1279.53 679.459 1287.87C669.31 1289.27 659.172 1290.81 648.972 1291.75C642.156 1292.38 609.981 1289.53 607.053 1301.45C605.864 1306.29 622.832 1314.37 624.202 1315.02C631.673 1318.6 639.478 1321.41 647.067 1324.72C682.206 1340.05 717.729 1354.37 753.771 1367.39C796.444 1382.8 842.75 1391.33 883.341 1411.99C891.51 1416.15 908.965 1431.38 919.544 1431.38C930.611 1431.38 943.439 1420.83 953.842 1417.81C967.768 1413.76 981.835 1410.22 995.761 1406.17C1045.98 1391.57 1097.62 1382.19 1148.2 1369.33C1181.93 1360.74 1215.49 1356.79 1249.18 1349.93C1254.82 1348.78 1263.76 1353.23 1266.33 1347.99C1268.87 1342.82 1256.17 1342.82 1251.09 1340.24C1234.35 1331.72 1218.13 1320.9 1199.64 1315.02C1146.84 1298.23 1095.9 1283.93 1041.49 1274.3C1034.5 1273.06 1027.55 1271.49 1020.53 1270.42C1017.71 1269.99 980.518 1266.79 980.518 1268.48C980.518 1271.78 986.82 1270.12 990.045 1270.42Z" fill="#ffffff" fill-rule="nonzero" opacity="1" stroke="#3c3c3c" stroke-linecap="round" stroke-linejoin="miter" stroke-width="6"/>
<path d="M1603.59 1164.73C1606.31 1164.73 1608.66 1168.57 1611.22 1167.64C1638.53 1157.66 1664.56 1144.33 1691.24 1132.73C1734.42 1113.95 1777.8 1095.64 1820.81 1076.49C1832.52 1071.27 1844.48 1066.25 1855.11 1059.03C1858.85 1056.5 1863.55 1053.77 1864.64 1049.34C1864.98 1047.93 1861.73 1044.44 1862.73 1045.46C1881.71 1064.77 1937.3 1071.28 1963.72 1076.49C2008.52 1085.31 2053.6 1092.96 2099.01 1097.82C2112.22 1099.23 2125.87 1100.03 2139.02 1101.7C2147.76 1102.81 2146.61 1102.65 2152.36 1105.58C2153.63 1106.22 2156.8 1106.22 2156.17 1107.52C2154.84 1110.23 2129.38 1113.03 2127.59 1113.33C2094.46 1118.95 2062.14 1129.35 2030.41 1140.48C1970.82 1161.4 1910.68 1191.48 1855.11 1221.94C1847.34 1226.19 1839.99 1231.21 1832.25 1235.51C1826.01 1238.97 1819.47 1241.83 1813.19 1245.21C1811.64 1246.04 1793.73 1258.2 1788.42 1256.84C1787.04 1256.49 1787.52 1253.99 1786.52 1252.97C1780.81 1247.16 1772.46 1244.84 1765.56 1241.33C1760.98 1239 1756.53 1236.39 1752.22 1233.57C1717.14 1210.62 1680.71 1179.68 1637.89 1173.45C1625.88 1171.71 1613.78 1170.6 1601.69 1169.57C1597.89 1169.25 1594.04 1170 1590.26 1169.57C1588.26 1169.35 1582.65 1168.32 1584.54 1167.64C1590.59 1165.44 1597.17 1164.73 1603.59 1164.73Z" fill="#ffffff" fill-rule="nonzero" opacity="1" stroke="#3c3c3c" stroke-linecap="round" stroke-linejoin="miter" stroke-width="6"/>
<path d="M281.224 1124.97C279.954 1124.97 278.663 1124.74 277.413 1124.97C246.886 1130.56 215.89 1134.17 185.952 1142.42C147.762 1152.96 110.834 1167.78 73.5319 1181.21C72.5424 1181.57 41.1487 1194.76 41.1395 1194.79C39.8535 1198.71 46.8907 1201.01 50.6667 1202.54C66.427 1208.96 82.1933 1214.53 98.3025 1220C113.747 1225.24 128.473 1232.58 144.033 1237.45C169.975 1245.58 196.315 1250.37 222.156 1258.78C254.092 1269.19 283.977 1279.62 317.427 1282.06C322.247 1282.41 335.49 1284.01 340.292 1282.06C344.726 1280.25 349.108 1272.98 353.63 1270.42C363.599 1264.78 371.533 1261.92 382.212 1256.84C410.588 1243.37 440.181 1230.87 467.956 1216.12C478.294 1210.63 487.857 1203.64 498.443 1198.66C505.411 1195.39 516.976 1196.38 519.403 1188.97C521.633 1182.16 492.382 1178.51 488.916 1177.33C453.53 1165.33 417.861 1154.85 380.306 1152.12C331.108 1148.54 277.171 1152.69 229.777 1136.61" fill="#ffffff" fill-rule="nonzero" opacity="1" stroke="#3c3c3c" stroke-linecap="round" stroke-linejoin="miter" stroke-width="6"/>
<path d="M1308.25 1245.21C1306.87 1251.52 1302.36 1257.56 1296.82 1260.72C1249.75 1287.6 1200.02 1309.33 1152.01 1334.42C1129.51 1346.18 1107.15 1358.26 1085.32 1371.26C1080.6 1374.07 1070.67 1382.89 1075.79 1384.84C1084.52 1388.17 1099.05 1386.86 1108.18 1388.72C1118.31 1390.78 1127.17 1397.1 1136.76 1400.35C1172.23 1412.39 1212.68 1422.3 1249.18 1429.44C1288.24 1437.09 1327.79 1440.8 1367.32 1444.96C1390.11 1447.36 1414.01 1449.16 1435.92 1456.59C1437.65 1457.18 1452.53 1466.01 1454.97 1464.35C1456.15 1463.55 1455.11 1449.59 1456.88 1446.9C1461.9 1439.23 1473.13 1430.95 1479.74 1425.57C1497.68 1410.96 1515.88 1395.87 1535 1382.9C1556.32 1368.43 1580.15 1358.3 1601.69 1344.11C1620.63 1331.64 1637.43 1317.24 1656.95 1305.33C1660 1303.46 1670 1297.02 1674.1 1295.63C1675.3 1295.22 1677.91 1295.63 1677.91 1295.63C1677.91 1295.63 1667.74 1295.63 1662.66 1295.63C1655.01 1295.63 1647.42 1294.34 1639.8 1293.69C1618.64 1291.9 1597.88 1288.78 1576.92 1285.93C1517.19 1277.83 1456.56 1270.64 1397.81 1256.84C1368.86 1250.05 1338.92 1255.93 1310.16 1247.15C1306.88 1246.15 1303.05 1245.73 1300.63 1243.27C1298.78 1241.38 1308.82 1242.61 1308.25 1245.21Z" fill="#ffffff" fill-rule="nonzero" opacity="1" stroke="#3c3c3c" stroke-linecap="round" stroke-linejoin="miter" stroke-width="6"/>
<path d="M1171.13 812.301C1171.71 817.315 1119.59 833.671 1110.79 836.229C1056.77 851.938 1004.25 875.498 952.492 895.252C948.259 896.867 910.484 911.853 910.174 912.799C908.593 917.626 932.968 925.648 936.819 927.156C960.364 936.372 983.715 948.313 1002.65 965.44C1013.72 975.459 1019.96 987.913 1026.16 1000.53C1029.43 1007.2 1038.55 1011.55 1043.4 1016.49C1046.14 1019.28 1043.11 1027.99 1044.96 1029.25C1045.92 1029.9 1066.48 1011.12 1068.47 1010.11C1092.48 997.891 1117.68 986.725 1142.14 975.012C1157.49 967.659 1171.99 962.407 1187.59 955.869C1209.36 946.744 1229.48 933.841 1251.85 925.56C1254.47 924.593 1287.06 913.936 1287.9 912.799C1292.08 907.118 1269.56 885.702 1265.96 882.49C1243.89 862.838 1215.67 854.106 1195.43 831.444C1187.34 822.393 1183.67 819.82 1173.48 813.896C1171.04 812.476 1162.83 810.706 1165.65 810.706C1167.55 810.706 1170.91 810.379 1171.13 812.301Z" fill="#ffffff" fill-rule="nonzero" opacity="1" stroke="#3c3c3c" stroke-linecap="round" stroke-linejoin="miter" stroke-width="6"/>
<path d="M1238.75 763.221C1237 763.816 1183.91 790.208 1178.87 805.616C1176.09 814.084 1138.17 832.134 1165.7 853.613C1193.23 875.091 1219.08 846.655 1232.8 836.184C1254.81 819.381 1306.03 776.902 1306.03 771.945" fill="#e5b989" fill-rule="nonzero" opacity="1" stroke="#3c3c3c" stroke-linecap="round" stroke-linejoin="miter" stroke-width="6"/>
<g opacity="1">
<path d="M242.25 1159.94C236.755 1163.03 231.117 1165.85 225.5 1168.69C231.133 1165.88 236.735 1162.98 242.25 1159.94ZM225.5 1168.69C220.751 1171.05 215.982 1173.38 211.156 1175.59C190.04 1185.29 168.419 1193.82 147.25 1203.41C147.021 1203.51 146.927 1203.77 147.031 1204C147.135 1204.23 147.396 1204.32 147.625 1204.22C173.581 1192.37 200.04 1181.57 225.5 1168.69Z" fill="#3c3c3c" stroke="none"/>
</g>
<g opacity="1">
<path d="M289.656 1168.72C260.769 1182.29 231.941 1195.99 203.25 1209.97C203.024 1210.08 202.952 1210.37 203.062 1210.59C203.173 1210.82 203.431 1210.92 203.656 1210.81C222.748 1201.42 241.776 1191.87 260.906 1182.56C270.47 1177.91 280.073 1173.33 289.656 1168.72Z" fill="#3c3c3c" stroke="none"/>
</g>
<g opacity="1">
<path d="M354.312 1179.69C345.307 1183.09 336.173 1186.18 327.094 1189.38C316.669 1193.04 306.234 1196.97 296.5 1202.25C283.783 1209.15 272.995 1219.06 261.375 1227.56C261.172 1227.71 261.133 1228.02 261.281 1228.22C261.43 1228.42 261.704 1228.46 261.906 1228.31C266.469 1224.95 270.91 1221.43 275.344 1217.91C282.183 1212.46 289.093 1207.02 296.75 1202.75C306.771 1197.17 317.613 1193.08 328.375 1189.19C337.033 1186.05 345.726 1183.02 354.312 1179.69Z" fill="#3c3c3c" stroke="none"/>
</g>
<g opacity="1">
<path d="M403.875 1197.22C375.8 1209.51 347.693 1221.72 319.656 1234.09C319.427 1234.2 319.304 1234.46 319.406 1234.69C319.508 1234.92 319.77 1235.04 320 1234.94C347.99 1222.46 375.923 1209.79 403.875 1197.22Z" fill="#3c3c3c" stroke="none"/>
</g>
<g opacity="1">
<path d="M410.469 1275.75C410.231 1275.67 409.986 1275.79 409.906 1276.03C409.826 1276.27 409.949 1276.55 410.188 1276.62C447.63 1289.17 485.768 1299.36 524.531 1306.91C506.816 1303.31 489.206 1299.23 471.75 1294.53C451.112 1288.98 430.711 1282.6 410.469 1275.75Z" fill="#3c3c3c" stroke="none"/>
</g>
<g opacity="1">
<path d="M440.656 1256.03C440.418 1255.95 440.143 1256.07 440.062 1256.31C439.982 1256.55 440.106 1256.79 440.344 1256.88C470.968 1267.23 501.652 1277.59 533.156 1284.97C522.695 1282.41 512.308 1279.55 502 1276.44C481.364 1270.2 461.05 1263.01 440.656 1256.03Z" fill="#3c3c3c" stroke="none"/>
</g>
<g opacity="1">
<path d="M468.625 1247.25C468.384 1247.18 468.133 1247.32 468.062 1247.56C467.992 1247.8 468.134 1248.05 468.375 1248.12C498.559 1256.84 528.79 1265.37 559 1274C528.874 1265.08 498.777 1256.08 468.625 1247.25Z" fill="#3c3c3c" stroke="none"/>
</g>
<g opacity="1">
<path d="M548.344 1216.53C548.098 1216.48 547.832 1216.63 547.781 1216.88C547.73 1217.12 547.91 1217.35 548.156 1217.41C579.773 1223.93 611.427 1230.29 643.062 1236.72C611.489 1229.99 579.937 1223.17 548.344 1216.53Z" fill="#3c3c3c" stroke="none"/>
</g>
<g opacity="1">
<path d="M582.812 1185.81C582.566 1185.76 582.33 1185.94 582.281 1186.19C582.232 1186.43 582.379 1186.67 582.625 1186.72C617.88 1193.7 653.249 1200.4 688.156 1209C705.607 1213.3 722.892 1218.16 740.031 1223.56C725.059 1218.75 709.97 1214.34 694.75 1210.38C657.777 1200.75 620.261 1193.31 582.812 1185.81Z" fill="#3c3c3c" stroke="none"/>
</g>
<g opacity="1">
<path d="M714.312 1313.03C714.077 1312.94 713.839 1313.08 713.75 1313.31C713.661 1313.55 713.765 1313.82 714 1313.91C739.996 1323.69 766.103 1333.17 792.375 1342.19C844.904 1360.22 897.888 1376.84 951.188 1392.44C907.935 1379.61 864.9 1366.13 822.156 1351.69C785.981 1339.47 750.029 1326.53 714.312 1313.03Z" fill="#3c3c3c" stroke="none"/>
</g>
<g opacity="1">
<path d="M816.438 1311.09C813.869 1311.1 811.3 1311.28 808.75 1311.53C803.075 1312.09 797.431 1312.96 791.719 1313.03C791.467 1313.03 791.278 1313.22 791.281 1313.47C791.285 1313.72 791.499 1313.94 791.75 1313.94C797.488 1313.86 803.144 1312.98 808.844 1312.41C813.857 1311.9 818.964 1311.61 823.938 1312.62C827.169 1313.28 830.202 1314.62 833.25 1315.84C836.594 1317.18 839.91 1318.54 843.219 1319.97C855.386 1325.2 867.297 1331.04 879.125 1337C902.274 1348.66 925.055 1361.11 948.75 1371.66C960.817 1377.03 973.115 1381.79 985.688 1385.84C973.136 1381.74 960.854 1376.92 948.812 1371.5C925.166 1360.86 902.46 1348.28 879.375 1336.5C867.562 1330.47 855.681 1324.6 843.531 1319.28C839.674 1317.59 835.786 1315.97 831.875 1314.41C829.324 1313.39 826.794 1312.34 824.094 1311.78C821.566 1311.26 819.006 1311.09 816.438 1311.09Z" fill="#3c3c3c" stroke="none"/>
</g>
<g opacity="1">
<path d="M862.938 1295.47C862.691 1295.42 862.456 1295.6 862.406 1295.84C862.357 1296.09 862.504 1296.33 862.75 1296.38C886.197 1301.07 909.47 1306.54 932.562 1312.75C964.938 1321.46 996.931 1331.52 1028.78 1341.97C992.438 1329.84 955.895 1318.23 918.844 1308.44C900.337 1303.55 881.698 1299.26 862.938 1295.47Z" fill="#3c3c3c" stroke="none"/>
</g>
<g opacity="1">
<path d="M962.062 1297.69C961.817 1297.63 961.587 1297.79 961.531 1298.03C961.476 1298.28 961.63 1298.51 961.875 1298.56C976.707 1301.88 991.489 1305.41 1005.97 1310.06C1018.22 1314 1030.17 1318.75 1041.72 1324.44C1033.37 1320.21 1024.83 1316.44 1016.06 1313.16C998.494 1306.58 980.331 1301.85 962.062 1297.69Z" fill="#3c3c3c" stroke="none"/>
</g>
<g opacity="1">
<path d="M384.625 769.125C384.386 769.047 384.109 769.167 384.031 769.406C383.953 769.645 384.105 769.922 384.344 770C403.108 776.119 421.887 782.106 440.781 787.812C478.56 799.224 516.58 809.86 554.719 820C526.159 812.25 497.667 804.286 469.312 795.812C440.954 787.338 412.746 778.356 384.625 769.125Z" fill="#3c3c3c" stroke="none"/>
</g>
<g opacity="1">
<path d="M427.594 766.906C427.343 766.895 427.136 767.093 427.125 767.344C427.114 767.595 427.312 767.801 427.562 767.812C438.905 768.305 450.243 768.442 461.594 768.562C480.442 768.762 499.37 769.083 518.031 772C537.53 775.048 556.465 780.815 575.281 786.625C585.635 789.822 595.999 792.965 606.438 795.875C596.015 792.913 585.649 789.717 575.312 786.469C556.508 780.56 537.623 774.699 518.125 771.531C488.217 766.672 457.75 768.272 427.594 766.906Z" fill="#3c3c3c" stroke="none"/>
</g>
<g opacity="1">
<path d="M481.5 738.406C481.252 738.366 481.041 738.533 481 738.781C480.959 739.029 481.127 739.272 481.375 739.312C527.439 746.813 573.401 754.759 619.344 762.969C573.454 754.461 527.547 746.021 481.5 738.406Z" fill="#3c3c3c" stroke="none"/>
</g>
<g opacity="1">
<path d="M615.188 707.719C614.951 707.633 614.711 707.764 614.625 708C614.539 708.236 614.639 708.508 614.875 708.594C635.007 715.85 655.211 722.926 675.375 730.094C655.315 722.641 635.28 715.084 615.188 707.719Z" fill="#3c3c3c" stroke="none"/>
</g>
<g opacity="1">
<path d="M1696.97 1161.72C1696.74 1161.61 1696.48 1161.71 1696.38 1161.94C1696.27 1162.17 1696.37 1162.46 1696.59 1162.56C1715.11 1171.08 1733.42 1180.03 1751.53 1189.38C1772.96 1200.43 1794.16 1211.98 1815.31 1223.56C1776.41 1201.92 1737.38 1180.43 1696.97 1161.72Z" fill="#3c3c3c" stroke="none"/>
</g>
<g opacity="1">
<path d="M1742.28 1159.56C1742.07 1159.43 1741.79 1159.51 1741.66 1159.72C1741.52 1159.93 1741.57 1160.21 1741.78 1160.34C1761.92 1172.72 1782.18 1184.92 1802.38 1197.22C1782.34 1184.66 1762.36 1172.04 1742.28 1159.56Z" fill="#3c3c3c" stroke="none"/>
</g>
<g opacity="1">
<path d="M1768.06 1126.62C1767.83 1126.53 1767.56 1126.64 1767.47 1126.88C1767.37 1127.11 1767.49 1127.37 1767.72 1127.47C1812.1 1145.41 1856.68 1162.88 1901.5 1179.69C1879.15 1171.14 1856.84 1162.48 1834.62 1153.59C1812.4 1144.71 1790.23 1135.65 1768.06 1126.62Z" fill="#3c3c3c" stroke="none"/>
</g>
<g opacity="1">
<path d="M1869.31 1095.91C1869.07 1095.83 1868.82 1095.98 1868.75 1096.22C1868.68 1096.46 1868.79 1096.71 1869.03 1096.78C1902.09 1106.96 1935.2 1116.97 1968.28 1127.06C1935.28 1116.68 1902.34 1106.2 1869.31 1095.91Z" fill="#3c3c3c" stroke="none"/>
</g>
<g opacity="1">
<path d="M1339.06 1282.78C1293.44 1307.59 1247.75 1332.29 1203.34 1359.25C1191.65 1366.35 1180.08 1373.67 1168.59 1381.09C1168.38 1381.23 1168.33 1381.51 1168.47 1381.72C1168.61 1381.93 1168.88 1381.98 1169.09 1381.84C1192.03 1366.97 1215.34 1352.7 1238.94 1338.91C1271.98 1319.6 1305.53 1301.21 1339.06 1282.78Z" fill="#3c3c3c" stroke="none"/>
</g>
<g opacity="1">
<path d="M1399.41 1284.97C1387.08 1290.63 1374.6 1295.85 1362.09 1301.09C1343.07 1309.08 1323.99 1317.38 1306.62 1328.62C1279.33 1346.3 1257.5 1370.8 1233.19 1392.09C1233 1392.26 1232.99 1392.53 1233.16 1392.72C1233.32 1392.91 1233.59 1392.95 1233.78 1392.78C1242.68 1384.96 1251.25 1376.8 1259.81 1368.62C1274.65 1354.46 1289.66 1340.31 1306.88 1329.03C1324.46 1317.51 1343.87 1309.04 1363.16 1300.84C1375.31 1295.68 1387.43 1290.53 1399.41 1284.97Z" fill="#3c3c3c" stroke="none"/>
</g>
<g opacity="1">
<path d="M1442.5 1282.78C1400.38 1312.62 1357.77 1341.84 1316.81 1373.28C1306.03 1381.56 1295.42 1390.04 1284.91 1398.66C1284.71 1398.82 1284.68 1399.09 1284.84 1399.28C1285 1399.48 1285.31 1399.5 1285.5 1399.34C1304.39 1383.81 1323.68 1368.8 1343.28 1354.19C1375.95 1329.83 1409.36 1306.49 1442.5 1282.78Z" fill="#3c3c3c" stroke="none"/>
</g>
<g opacity="1">
<path d="M1494.22 1309.09C1445.72 1341.44 1397.34 1373.94 1349.59 1407.41C1349.39 1407.55 1349.32 1407.83 1349.47 1408.03C1349.61 1408.24 1349.92 1408.3 1350.12 1408.16C1397.8 1374.6 1445.89 1341.69 1494.22 1309.09Z" fill="#3c3c3c" stroke="none"/>
</g>
<g opacity="1">
<path d="M1257.31 1012.56C1257.07 1012.49 1256.82 1012.63 1256.75 1012.88C1256.68 1013.12 1256.82 1013.36 1257.06 1013.44C1268.63 1016.91 1280.28 1020.06 1292.03 1022.84C1321.43 1029.8 1351.26 1034.83 1381.03 1039.91C1396.52 1042.55 1411.99 1045.25 1427.44 1048.09C1417.94 1046.29 1408.45 1044.52 1398.94 1042.81C1375.15 1038.55 1351.3 1034.56 1327.59 1029.81C1303.93 1025.07 1280.41 1019.56 1257.31 1012.56Z" fill="#3c3c3c" stroke="none"/>
</g>
<g opacity="1">
<path d="M1306.81 1001.59C1306.56 1001.56 1306.34 1001.72 1306.31 1001.97C1306.28 1002.22 1306.44 1002.47 1306.69 1002.5C1344.49 1007.2 1382.42 1011.22 1420.03 1017.34C1427.77 1018.6 1435.49 1019.97 1443.19 1021.44C1439.89 1020.79 1436.62 1020.01 1433.31 1019.41C1391.42 1011.73 1349.05 1006.94 1306.81 1001.59Z" fill="#3c3c3c" stroke="none"/>
</g>
<g opacity="1">
<path d="M1427.16 979.688C1423.39 979.741 1419.63 979.964 1415.88 980.25C1399.51 981.498 1383.35 984.593 1367.03 986.219C1366.78 986.244 1366.6 986.469 1366.62 986.719C1366.65 986.969 1366.87 987.15 1367.12 987.125C1379.62 985.846 1392.01 983.719 1404.47 982.125C1415.7 980.687 1427.08 979.598 1438.41 980.469C1449.99 981.358 1461.22 984.595 1472.31 987.844C1478.87 989.763 1485.43 991.658 1492.06 993.281C1485.44 991.611 1478.92 989.685 1472.38 987.719C1461.28 984.384 1450.03 981.044 1438.44 980.062C1434.68 979.745 1430.92 979.634 1427.16 979.688Z" fill="#3c3c3c" stroke="none"/>
</g>
<g opacity="1">
<path d="M1558.88 1107.31C1521.43 1137.9 1483.92 1168.4 1446.53 1199.06C1446.34 1199.22 1446.31 1199.52 1446.47 1199.72C1446.63 1199.91 1446.9 1199.94 1447.09 1199.78C1484.41 1169.03 1521.62 1138.13 1558.88 1107.31Z" fill="#3c3c3c" stroke="none"/>
</g>
<g opacity="1">
<path d="M1537.31 1087.56C1497.01 1113.75 1456.66 1139.89 1416.41 1166.16C1416.2 1166.29 1416.14 1166.57 1416.28 1166.78C1416.42 1166.99 1416.7 1167.04 1416.91 1166.91C1457.1 1140.54 1497.17 1114.01 1537.31 1087.56Z" fill="#3c3c3c" stroke="none"/>
</g>
<g opacity="1">
<path d="M1533.22 850.312C1533 850.192 1532.75 850.28 1532.62 850.5C1532.5 850.72 1532.56 850.973 1532.78 851.094C1551.48 861.278 1570.28 871.304 1589.03 881.406C1570.43 871.039 1551.87 860.598 1533.22 850.312Z" fill="#3c3c3c" stroke="none"/>
</g>
<g opacity="1">
<path d="M1608.59 867.812C1608.36 867.732 1608.08 867.856 1608 868.094C1607.92 868.332 1608.04 868.607 1608.28 868.688C1616.92 871.557 1625.61 874.25 1634.28 877.031C1625.71 873.964 1617.19 870.792 1608.59 867.812Z" fill="#3c3c3c" stroke="none"/>
</g>
<g opacity="1">
<path d="M1681.94 806.469C1681.73 806.334 1681.45 806.382 1681.31 806.594C1681.18 806.806 1681.26 807.084 1681.47 807.219C1695.78 816.269 1710.69 823.85 1726.94 828.781C1719.61 826.414 1712.5 823.527 1705.59 820.125C1697.41 816.095 1689.61 811.391 1681.94 806.469Z" fill="#3c3c3c" stroke="none"/>
</g>
<g opacity="1">
<path d="M1774.53 760.375C1774.3 760.282 1774.03 760.392 1773.94 760.625C1773.84 760.858 1773.95 761.126 1774.19 761.219C1790.73 767.745 1807.33 774.092 1823.91 780.531C1807.44 773.811 1791.03 767.009 1774.53 760.375Z" fill="#3c3c3c" stroke="none"/>
</g>
<g opacity="1">
<path d="M1489.91 622.625C1468.99 637.122 1448.02 651.52 1427.16 666.094C1426.95 666.238 1426.92 666.544 1427.06 666.75C1427.21 666.956 1427.48 666.988 1427.69 666.844C1448.48 652.175 1469.16 637.37 1489.91 622.625Z" fill="#3c3c3c" stroke="none"/>
</g>
<g opacity="1">
<path d="M1576.12 646.75C1571.84 648.761 1567.6 650.86 1563.44 653.094C1567.63 650.902 1571.82 648.719 1576.12 646.75ZM1563.44 653.094C1561.84 653.932 1560.18 654.653 1558.59 655.531C1536.75 667.65 1516.61 682.599 1496.12 696.812C1495.92 696.956 1495.86 697.231 1496 697.438C1496.14 697.644 1496.42 697.706 1496.62 697.562C1514.92 684.77 1532.78 671.21 1551.91 659.656C1555.7 657.367 1559.54 655.182 1563.44 653.094Z" fill="#3c3c3c" stroke="none"/>
</g>
<g opacity="1">
<path d="M1541.62 629.188C1527.16 637.555 1512.12 644.923 1497.78 653.5C1493.01 656.354 1488.33 659.355 1483.81 662.594C1481.3 664.396 1478.76 666.225 1476.47 668.312C1467.61 676.39 1462.24 687.463 1455.06 696.906C1454.91 697.107 1454.96 697.411 1455.16 697.562C1455.36 697.714 1455.66 697.669 1455.81 697.469C1462.92 688.055 1468.24 676.921 1476.94 668.812C1479.55 666.375 1482.48 664.27 1485.38 662.188C1490.29 658.655 1495.39 655.377 1500.59 652.281C1514.08 644.254 1528.1 637.159 1541.62 629.188Z" fill="#3c3c3c" stroke="none"/>
</g>
<g opacity="1">
<path d="M1636.44 631.375C1594.4 650.52 1559.15 680.972 1521.97 707.781C1521.77 707.928 1521.73 708.203 1521.88 708.406C1522.02 708.61 1522.3 708.678 1522.5 708.531C1533.78 700.357 1544.86 691.91 1555.94 683.469C1573.08 670.404 1590.31 657.392 1608.75 646.188C1617.71 640.746 1626.93 635.782 1636.44 631.375Z" fill="#3c3c3c" stroke="none"/>
</g>
<g opacity="1">
<path d="M983.844 920.562C983.661 920.39 983.36 920.411 983.188 920.594C983.015 920.777 983.036 921.046 983.219 921.219C1003.09 939.879 1023.4 958.185 1041.78 978.344C1045.44 982.35 1048.98 986.431 1052.44 990.594C1051.04 988.882 1049.75 987.089 1048.31 985.406C1028.5 962.208 1005.99 941.484 983.844 920.562ZM1052.44 990.594C1056.11 995.087 1059.79 999.557 1063.25 1004.22C1059.75 999.585 1056.14 995.052 1052.44 990.594Z" fill="#3c3c3c" stroke="none"/>
</g>
<g opacity="1">
<path d="M1013.94 913.938C1013.73 913.794 1013.46 913.857 1013.31 914.062C1013.17 914.269 1013.23 914.544 1013.44 914.688C1038.61 932.186 1063.9 949.516 1089.12 966.938C1064.07 949.268 1039.04 931.531 1013.94 913.938Z" fill="#3c3c3c" stroke="none"/>
</g>
<g opacity="1">
<path d="M1037.69 905.188C1037.49 905.03 1037.19 905.054 1037.03 905.25C1036.87 905.446 1036.93 905.749 1037.12 905.906C1060.86 924.869 1084.7 943.673 1108.5 962.562C1084.89 943.437 1061.35 924.24 1037.69 905.188Z" fill="#3c3c3c" stroke="none"/>
</g>
<g opacity="1">
<path d="M1093.16 870.094C1092.95 870.242 1092.91 870.516 1093.06 870.719C1103.77 885.365 1112.73 901.513 1125.59 914.469C1132.93 921.86 1141.66 927.624 1150.34 933.281C1155.12 936.393 1159.88 939.508 1164.53 942.812C1159.91 939.466 1155.19 936.311 1150.44 933.156C1141.82 927.438 1133.15 921.606 1125.91 914.156C1113.2 901.091 1104.43 884.846 1093.78 870.188C1093.63 869.984 1093.36 869.946 1093.16 870.094Z" fill="#3c3c3c" stroke="none"/>
</g>
<g opacity="1">
<path d="M1125.44 856.969C1125.26 857.145 1125.23 857.415 1125.41 857.594C1141.97 874.368 1158.68 891.011 1175.31 907.719C1158.9 890.798 1142.54 873.824 1126.06 856.969C1125.89 856.79 1125.62 856.793 1125.44 856.969Z" fill="#3c3c3c" stroke="none"/>
</g>
</g>
</svg>
