<?xml version="1.0" encoding="UTF-8" standalone="no"?>
<!DOCTYPE svg PUBLIC "-//W3C//DTD SVG 1.1//EN" "http://www.w3.org/Graphics/SVG/1.1/DTD/svg11.dtd">
<!-- Created with Vectornator (http://vectornator.io/) -->
<svg height="100%" stroke-miterlimit="10" style="fill-rule:nonzero;clip-rule:evenodd;stroke-linecap:round;stroke-linejoin:round;" version="1.1" viewBox="0 0 2224 1668" width="100%" xml:space="preserve" xmlns="http://www.w3.org/2000/svg" xmlns:vectornator="http://vectornator.io" xmlns:xlink="http://www.w3.org/1999/xlink">
<defs/>
<g id="Layer-1" vectornator:layerName="Layer 1">
<path d="M1709.25 773.333C1697.83 809.465 1686.85 1129.69 1682.3 1170.71C1681.5 1177.96 1665.46 1319.01 1677.28 1369.19C1682.86 1392.9 1762.56 1403.48 1768.49 1385.58C1789.25 1322.95 1787.36 1183.48 1790.98 1142.09C1797.48 1067.84 1814.51 864.255 1817.67 818.294C1818.89 800.537 1820.47 758.992 1825.74 742.346" fill="#e7b255" fill-rule="nonzero" opacity="1" stroke="#3c3c3c" stroke-linecap="round" stroke-linejoin="miter" stroke-width="6"/>
<path d="M1355.99 723.975C1317.63 736.612 1283.61 777.864 1255.24 810.57C1237.22 831.357 1214.99 849.576 1198.46 871.819C1151.29 935.273 1186.2 1012.51 1258.91 998.542C1331.98 984.499 1426.97 904.033 1478.72 844.363C1494.13 826.594 1509.93 805.756 1526.34 791.561C1526.6 791.338 1532.69 785.075 1531.84 783.113C1531.15 781.533 1510.79 778.053 1508.02 776.777C1484.44 765.901 1459.47 758.556 1434.75 751.432C1409.14 744.048 1381.72 715.498 1355.99 723.975Z" fill="#e94420" fill-rule="nonzero" opacity="1" stroke="#3c3c3c" stroke-linecap="round" stroke-linejoin="miter" stroke-width="6"/>
<path d="M1475.05 379.711C1481.91 363.901 1513.22 367.038 1526.34 367.038C1572.76 367.038 1623.26 373.662 1669.22 367.038C1713.66 360.633 1760.66 360.73 1804.77 352.254C1827.3 347.923 1851.72 353.873 1874.37 350.142C1900.19 345.889 1931.65 353.167 1956.8 345.918C1961.11 344.676 1966.65 341.96 1971.45 343.806C2046.03 372.47 2086.76 515.732 2077.7 599.364C2074.14 632.197 2064.49 662.381 2057.55 694.407C2056.47 699.359 2054.68 723.062 2052.05 726.088C2050.87 727.452 2039.55 727.58 2037.4 728.2C2012.04 735.51 1987.1 744.933 1960.46 749.32C1877.85 762.928 1793.28 767.369 1711.35 783.113C1671.75 790.723 1617.36 808.942 1577.63 793.673C1564.71 788.709 1549.29 787.337 1535.5 787.337C1531.62 787.337 1512.48 791.561 1520.85 791.561" fill="#e94420" fill-rule="nonzero" opacity="1" stroke="#3c3c3c" stroke-linecap="round" stroke-linejoin="miter" stroke-width="6"/>
<path d="M1365.15 711.303C1354.16 685.972 1364.3 644.057 1366.98 616.261C1373.85 544.989 1379.59 462.325 1425.6 409.279C1439.39 393.37 1462.65 375.606 1484.21 381.823C1559.99 403.666 1553.12 588.612 1541 658.502C1536.25 685.859 1535.5 719.262 1535.5 747.208C1535.5 757.005 1532.27 790.438 1530.01 785.225" fill="#a83117" fill-rule="nonzero" opacity="1" stroke="#3c3c3c" stroke-linecap="round" stroke-linejoin="miter" stroke-width="6"/>
<path d="M1744.32 629.989C1742.36 629.296 1737.69 635.122 1738.82 633.157C1742.9 626.103 1749.23 621.067 1753.48 614.149C1759.65 604.099 1764.04 592.715 1769.96 582.468C1787.89 551.457 1809.29 516.002 1832.24 489.538C1880.87 433.473 1920.91 361.748 1964.13 299.453C1971.94 288.192 1980.53 257.257 1991.6 250.875C1992.83 250.171 1994.51 251.678 1995.27 252.988C2001.84 264.36 2019.73 281.875 2031.9 288.892C2064.37 307.612 2100.14 318.727 2132.65 337.47C2135.07 338.866 2156.46 347.029 2156.46 350.142C2156.46 351.716 2153.97 351.444 2152.8 352.254C2137.88 362.574 2126.55 378.297 2114.33 392.383C2109.06 398.456 2071.62 445.544 2070.37 445.184C2065.98 443.918 2067.29 439.523 2064.87 436.736C2060.17 431.308 1974.18 382.185 1969.62 383.935C1969.31 384.054 1941.42 408.678 1938.48 411.392C1886.48 459.364 1843.61 525.762 1801.1 584.58C1788.74 601.684 1771.75 616.37 1762.64 637.381C1761.42 640.197 1761.7 645.829 1758.97 645.829C1756.72 645.829 1746.72 630.839 1744.32 629.989Z" fill="#e7b255" fill-rule="nonzero" opacity="1" stroke="#3c3c3c" stroke-linecap="round" stroke-linejoin="miter" stroke-width="6"/>
<path d="M646.086 305.524C649.658 284.253 657.292 255.909 672.029 238.358C692.186 214.353 745.236 197.225 760.01 233.88C772.622 265.17 730.683 302.711 730.683 333.51" fill="#64d6ee" fill-rule="nonzero" opacity="1" stroke="#3c3c3c" stroke-linecap="round" stroke-linejoin="miter" stroke-width="6"/>
<path d="M163.533 1130.84C131.968 1146.5 96.9885 1158.81 76.6798 1189.05C71.0063 1197.49 63.0035 1225.81 80.0637 1228.23C120.055 1233.9 156.598 1202 189.476 1185.69" fill="#e5b989" fill-rule="nonzero" opacity="1" stroke="#3c3c3c" stroke-linecap="round" stroke-linejoin="miter" stroke-width="6"/>
<path d="M588.499 1303.97C588.499 1297.21 589.5 1317.48 590.755 1324.12C592.621 1334 595.715 1343.61 598.651 1353.23C607.741 1382.99 635.132 1425.98 671.969 1410.32C693.83 1401.02 681.842 1330.01 675.353 1310.69C673.43 1304.96 660.689 1263.81 660.689 1274.86" fill="#e5b989" fill-rule="nonzero" opacity="1" stroke="#3c3c3c" stroke-linecap="round" stroke-linejoin="miter" stroke-width="6"/>
<path d="M859.47 811.27C875.32 811.27 888.646 798.95 903.461 793.359C930.171 783.279 1001.13 758.526 1033.18 767.612C1042.55 770.269 1046.49 784.177 1047.84 792.24C1050.49 808.004 1029.83 825.051 1018.51 832.54C1004.94 841.519 992.477 852.176 977.906 859.406C955.759 870.396 931.591 875.791 910.228 888.512C896.982 896.399 879.91 897.162 866.238 905.303C862.599 907.47 842.292 915.464 849.318 913.139" fill="#e5b989" fill-rule="nonzero" opacity="1" stroke="#3c3c3c" stroke-linecap="round" stroke-linejoin="miter" stroke-width="6"/>
<path d="M198.262 1276.45C200.946 1278.35 171.812 1236.42 164.482 1230.6C147.956 1217.48 136.61 1185.26 133.719 1165.18C125.53 1108.29 122.557 1066.56 138.114 1012.52C146.843 982.202 204.207 856.304 219.417 835.882C294.128 735.567 279.187 801.427 252.102 678.972C232.325 589.561 246.258 485.394 329.01 364.941C394.932 268.988 495.018 248.455 603.683 258.084C726.736 268.988 871.763 299.518 939.882 497.968C971.676 590.592 956.207 689.385 959.798 733.272C961.041 748.469 947.404 838.425 936.397 878.939C921.173 934.972 896.524 1020.2 887.913 1041.56C863.672 1101.71 867.42 1137.42 828.092 1195.71C808.118 1225.31 731.254 1310.2 699.55 1325.93C670.398 1340.4 547.009 1389.85 416.078 1365.81C301.662 1344.8 263.354 1333.79 246.855 1325.6C243.492 1323.93 184.182 1266.49 198.262 1276.45Z" fill="#64d6ee" fill-rule="nonzero" opacity="1" stroke="#3c3c3c" stroke-linecap="round" stroke-linejoin="miter" stroke-width="6"/>
<path d="M297.484 1296.13C297.484 1285.32 283.065 1330.69 280.565 1339.79C272.34 1369.72 247.343 1432.15 298.612 1439.42C332.639 1444.25 346.597 1422.54 359.522 1396.88C368.364 1379.33 379.197 1364.05 385.466 1345.39C389.965 1331.99 390.35 1317.78 396.745 1305.09C398.358 1301.89 399.001 1286.43 399.001 1290.54" fill="#e5b989" fill-rule="nonzero" opacity="1" stroke="#3c3c3c" stroke-linecap="round" stroke-linejoin="miter" stroke-width="6"/>
<path d="M510.67 877.464C508.098 872.358 506.636 888.584 507.286 894.255C508.47 904.597 512.498 914.419 515.182 924.48C522.015 950.1 539.636 996.42 574.964 989.408C595.861 985.26 599.779 961.779 599.779 944.63C599.779 909.871 597.775 875.725 581.732 843.881" fill="#e5b989" fill-rule="nonzero" opacity="1" stroke="#3c3c3c" stroke-linecap="round" stroke-linejoin="miter" stroke-width="6"/>
<path d="M411.469 358.138C414.127 363.415 404.579 348.518 401.317 343.585C398.086 338.699 388.405 325.792 384.398 317.838C369.129 287.533 380.618 253.107 410.341 238.358C452.885 217.247 489.198 275.609 501.706 306.644C503.87 312.012 510.699 317.686 511.858 323.435C513.063 329.416 511.32 336.921 514.114 342.466" fill="#64d6ee" fill-rule="nonzero" opacity="1" stroke="#3c3c3c" stroke-linecap="round" stroke-linejoin="miter" stroke-width="6"/>
<path d="M438.54 360.377C431.573 343.091 417.57 329.527 406.957 314.48C400.347 305.108 393.763 250.582 418.237 270.822C426.384 277.56 429.657 287.837 435.156 296.569C444.89 312.025 458.614 331.044 471.251 343.585C475.796 348.096 476.487 355.499 481.403 360.377" fill="#e5b989" fill-rule="nonzero" opacity="1" stroke="#3c3c3c" stroke-linecap="round" stroke-linejoin="miter" stroke-width="6"/>
<path d="M556.664 518.746C540.215 455.555 584.854 390.04 650.609 390.04C716.364 390.04 769.668 442.857 769.668 508.011C769.668 573.165 732.705 617.114 666.95 617.114C601.196 617.114 571.434 575.484 556.664 518.746Z" fill="#ffffff" fill-rule="nonzero" opacity="1" stroke="#3c3c3c" stroke-linecap="butt" stroke-linejoin="miter" stroke-width="6"/>
<path d="M648.678 482.554C648.678 454.092 672.881 431.019 702.738 431.019C732.594 431.019 756.797 454.092 756.797 482.554C756.797 511.016 732.594 534.089 702.738 534.089C672.881 534.089 648.678 511.016 648.678 482.554Z" fill="#303030" fill-rule="nonzero" opacity="1" stroke="#3c3c3c" stroke-linecap="butt" stroke-linejoin="miter" stroke-width="6"/>
<path d="M691.154 483.796C691.154 471.108 700.95 460.823 713.035 460.823C725.119 460.823 734.916 471.108 734.916 483.796C734.916 496.484 725.119 506.769 713.035 506.769C700.95 506.769 691.154 496.484 691.154 483.796Z" fill="#ffffff" fill-rule="nonzero" opacity="1" stroke="#3c3c3c" stroke-linecap="butt" stroke-linejoin="miter" stroke-width="6"/>
<path d="M848.421 439.26C829.29 390.259 863.118 352.102 913.266 352.102C963.414 352.102 1004.07 394.703 1004.07 447.254C1004.07 499.806 984 537.077 933.852 537.077C883.704 537.077 870.37 495.48 848.421 439.26Z" fill="#ffffff" fill-rule="nonzero" opacity="1" stroke="#3c3c3c" stroke-linecap="butt" stroke-linejoin="miter" stroke-width="6"/>
<path d="M928.493 429.343C928.493 406.468 946.674 387.924 969.1 387.924C991.527 387.924 1009.71 406.468 1009.71 429.343C1009.71 452.219 991.527 470.763 969.1 470.763C946.674 470.763 928.493 452.219 928.493 429.343Z" fill="#303030" fill-rule="nonzero" opacity="1" stroke="#3c3c3c" stroke-linecap="butt" stroke-linejoin="miter" stroke-width="6"/>
<path d="M970.032 434.551C970.032 424.659 978.365 416.64 988.643 416.64C998.922 416.64 1007.25 424.659 1007.25 434.551C1007.25 444.443 998.922 452.462 988.643 452.462C978.365 452.462 970.032 444.443 970.032 434.551Z" fill="#ffffff" fill-rule="nonzero" opacity="1" stroke="#3c3c3c" stroke-linecap="butt" stroke-linejoin="miter" stroke-width="6"/>
<path d="M869.882 586.813C866.315 581.106 863.89 658.723 881.644 664.351C898.267 669.621 907.072 649.366 906.902 637.943C906.784 630.009 905.422 582.719 905.201 581.797" fill="#ffffff" fill-rule="nonzero" opacity="1" stroke="#3c3c3c" stroke-linecap="round" stroke-linejoin="miter" stroke-width="6"/>
<path d="M905.118 580.282C905.118 598.359 913.796 637.22 920.304 646.181C926.813 655.143 937.952 657.789 945.103 650.692C957.153 638.734 944.988 588.474 940.069 574.652" fill="#ffffff" fill-rule="nonzero" opacity="1" stroke="#3c3c3c" stroke-linecap="round" stroke-linejoin="miter" stroke-width="6"/>
<path d="M855.438 521.372C839.006 528.841 820.666 538.217 808.751 561.836C796.521 586.079 803.295 602.134 811.53 608.672C836.413 628.428 870.938 594.741 894.999 590.761C911.13 588.093 928.523 590.6 944.63 587.403C957.5 584.848 975.201 575.783 971.701 562.775C959.601 517.81 934.817 515.378 908.535 510.161C902.657 508.995 862.076 518.356 855.438 521.372Z" fill="#e5b989" fill-rule="nonzero" opacity="1" stroke="#3c3c3c" stroke-linecap="round" stroke-linejoin="miter" stroke-width="6"/>
<path d="M888.141 497.864C870.127 499.609 848.019 511.377 863.741 524.179C876.24 534.356 924.034 524.98 924.359 512.449C924.871 492.778 889.328 497.749 888.141 497.864Z" fill="#303030" fill-rule="nonzero" opacity="1" stroke="#3c3c3c" stroke-linecap="round" stroke-linejoin="miter" stroke-width="6"/>
<path d="M1053.22 789.579C1059.57 758.033 1062.77 680.549 1068.63 665.994C1069.03 665.02 1129.98 644.466 1135.05 642.454C1181.07 624.183 1228.18 613.213 1274.99 597.727C1307.05 587.124 1338.46 574.015 1371.06 564.771C1390.86 559.156 1448.3 529.613 1449.33 530.638C1451.37 532.658 1432.24 604.372 1431.54 607.143C1429.08 616.918 1426.43 686.543 1422.05 721.313C1417.23 759.58 1416.84 808.427 1418.5 816.651C1418.82 818.253 1421.32 823.268 1419.68 824.89C1418.19 826.374 1361.03 843.115 1341.41 849.607C1296.15 864.578 1250.32 879.346 1205.02 894.333C1178.43 903.129 1074.65 924.12 1050.84 931.997C1049.13 932.564 1030.75 940.306 1030.68 940.236C1029.08 938.65 1048.3 813.956 1053.22 789.579Z" fill="#ffffff" fill-rule="nonzero" opacity="1" stroke="#3c3c3c" stroke-linecap="round" stroke-linejoin="miter" stroke-width="6"/>
<path d="M1067.45 669.525C1081.42 669.525 1096.76 693.738 1107.77 702.481C1118.06 710.651 1205.83 792.79 1208.58 803.704C1208.8 804.6 1207.56 808.299 1210.95 806.058C1214.71 803.571 1216.22 794.522 1219.25 790.756C1228.39 779.425 1238.04 768.42 1246.53 756.623C1259.98 737.937 1338.28 648.233 1361.57 621.268C1380.11 599.803 1401.12 577.961 1417.31 556.532C1421.63 550.813 1430.12 542.55 1436.29 538.877C1437.65 538.061 1450.7 529.956 1444.59 532.992" fill="none" opacity="1" stroke="#3c3c3c" stroke-linecap="round" stroke-linejoin="miter" stroke-width="6"/>
<path d="M1603.97 1400.53C1609.89 1373.14 1582.66 1344.81 1565.76 1324.69C1563 1321.41 1537.74 1298.48 1537.74 1298.14C1537.74 1297.53 1545.35 1303.17 1545.38 1303.2C1550.38 1307.33 1549.66 1306.24 1554.3 1309.52C1565.27 1317.3 1577.92 1326.65 1587.41 1336.06C1589.29 1337.93 1601.25 1357.14 1602.69 1349.97C1606.99 1328.63 1582.84 1268.72 1572.13 1250.11C1566.66 1240.62 1559.93 1232.41 1555.57 1222.3C1551.99 1214.02 1554.58 1220.13 1549.2 1213.46C1548.02 1211.98 1545.31 1207.07 1546.65 1208.4C1575.28 1236.81 1595.58 1269.99 1615.43 1304.46C1621.28 1314.63 1624.23 1325.72 1629.44 1336.06C1629.86 1336.91 1629.76 1338.59 1630.71 1338.59C1635.29 1338.59 1628.66 1311.95 1628.17 1309.52C1621.53 1276.57 1612.18 1243 1598.87 1212.19C1594.75 1202.65 1592.09 1192.4 1587.41 1183.12C1585.48 1179.29 1583 1175.62 1581.04 1171.74C1580.62 1170.9 1579.77 1168.27 1579.77 1169.22C1579.77 1178.65 1601.19 1199.59 1606.51 1208.4C1622.38 1234.64 1641.31 1267.77 1651.09 1296.88C1658.94 1320.26 1662.35 1345.57 1670.19 1368.93C1673.79 1379.64 1679.48 1389.74 1681.66 1400.53C1681.91 1401.77 1681.66 1404.32 1681.66 1404.32C1681.66 1404.32 1681.13 1390.81 1680.38 1384.09C1679.15 1373.04 1677.11 1363.25 1674.02 1352.49C1663.15 1314.75 1657.7 1275.23 1646 1237.47C1641.7 1223.61 1636.82 1209.88 1633.26 1195.76C1631.8 1189.98 1630.71 1178.06 1630.71 1178.06C1630.71 1178.06 1634.44 1189.25 1637.08 1194.5C1642.69 1205.63 1649.31 1216.24 1654.91 1227.36C1667.1 1251.55 1664.88 1287.82 1684.2 1306.99C1686.25 1309.03 1695.24 1341.11 1696.94 1346.17C1697.36 1347.44 1696.87 1349.97 1698.21 1349.97C1699.49 1349.97 1698.21 1347.44 1698.21 1346.17C1698.21 1336.89 1699.2 1327.63 1700.76 1318.37C1704.6 1295.5 1710.65 1273.45 1717.32 1251.38C1717.66 1250.23 1723.63 1233.68 1724.96 1233.68C1726.29 1233.68 1722.6 1260.88 1722.41 1262.75C1720.55 1281.24 1721.23 1300.03 1718.59 1318.37C1717.84 1323.56 1718.59 1329.56 1718.59 1334.8C1718.59 1337.36 1718.04 1344.19 1719.87 1342.38C1721.45 1340.81 1722.94 1324.88 1723.69 1322.16C1726.72 1311.1 1733.61 1297.35 1740.24 1288.03C1768.03 1248.96 1799.41 1210.76 1831.94 1175.54C1840.85 1165.9 1848.63 1156.29 1858.69 1147.73C1861.88 1145.01 1865.72 1135.15 1867.6 1138.88C1868.95 1141.55 1829.51 1192.66 1828.12 1194.5C1804.49 1225.77 1780.53 1258.74 1761.89 1293.09C1757.3 1301.56 1736.42 1330.68 1736.42 1338.59C1736.42 1342.22 1740.6 1332.64 1742.79 1329.74C1747.63 1323.34 1753.64 1317.71 1759.35 1312.05C1775.54 1295.97 1794.13 1282.45 1811.57 1267.81C1816.63 1263.55 1821.68 1259.27 1826.85 1255.17C1829.24 1253.27 1834.49 1247.07 1834.49 1250.11C1834.49 1253.59 1807.28 1287.49 1803.92 1291.82C1796.48 1301.43 1788.77 1310.27 1781 1319.63C1775.17 1326.66 1769.68 1333.7 1764.44 1341.12C1762.69 1343.61 1759.35 1351.74 1759.35 1348.7C1759.35 1340.15 1779.77 1330.14 1786.09 1325.95C1810.18 1310.01 1834.59 1294.18 1859.96 1280.45C1862.08 1279.3 1880.09 1265.15 1882.89 1266.54C1884.59 1267.39 1881.68 1270.27 1880.34 1271.6C1871.6 1280.28 1863.19 1288.96 1854.87 1298.14C1839.26 1315.35 1821.8 1331.37 1807.74 1349.97C1802.08 1357.46 1796.86 1365.21 1791.19 1372.72C1789.91 1374.4 1785.24 1377.77 1787.37 1377.77C1790.39 1377.77 1797.75 1365.74 1800.1 1363.87C1820.61 1347.59 1840.32 1327.33 1862.51 1313.31C1862.7 1313.19 1888.18 1294.74 1889.26 1296.88C1889.88 1298.12 1874.51 1313.98 1873.97 1314.58C1863.18 1326.62 1852.4 1339.34 1842.13 1351.23C1827.29 1368.42 1817.36 1392.25 1801.38 1408.11C1795.23 1414.21 1784.61 1407.06 1778.45 1413.17C1774.74 1416.85 1766.54 1442.24 1761.89 1442.24C1758.83 1442.24 1757.28 1437.61 1754.25 1437.18C1735.05 1434.46 1709.31 1434.44 1691.85 1424.54C1686.29 1421.39 1682.78 1411.83 1677.84 1409.37C1672.54 1406.74 1667.46 1428.82 1665.1 1429.6C1664.06 1429.94 1647.68 1417.46 1644.72 1415.69C1630.84 1407.43 1629.86 1415.69 1621.8 1415.69C1617.05 1415.69 1602.52 1407.2 1603.97 1400.53Z" fill="#68c40c" fill-rule="nonzero" opacity="1" stroke="#3c3c3c" stroke-linecap="round" stroke-linejoin="miter" stroke-width="6"/>
</g>
</svg>
