<?xml version="1.0" encoding="UTF-8" standalone="no"?>
<!DOCTYPE svg PUBLIC "-//W3C//DTD SVG 1.1//EN" "http://www.w3.org/Graphics/SVG/1.1/DTD/svg11.dtd">
<!-- Created with Vectornator (http://vectornator.io/) -->
<svg height="100%" stroke-miterlimit="10" style="fill-rule:nonzero;clip-rule:evenodd;stroke-linecap:round;stroke-linejoin:round;" version="1.1" viewBox="0 0 2224 1668" width="100%" xml:space="preserve" xmlns="http://www.w3.org/2000/svg" xmlns:vectornator="http://vectornator.io" xmlns:xlink="http://www.w3.org/1999/xlink">
<defs/>
<clipPath id="ArtboardFrame">
<rect height="1668" width="2224" x="0" y="0"/>
</clipPath>
<g clip-path="url(#ArtboardFrame)" id="Layer-1" vectornator:layerName="Layer 1">
<path d="M1796.81 1259.83C1796.14 1258.98 1792.33 1253.26 1793.4 1253.09C1798.19 1252.34 1823.35 1236.03 1828.08 1234.99C1841.34 1232.08 1856.03 1221.67 1869.23 1218.27C1900.42 1210.24 1939.69 1183.53 1970.92 1176.4C1980.79 1174.15 1989.88 1170.09 1999.1 1166.09C1999.85 1165.76 2006.9 1162.26 2007.18 1162.58C2009.12 1164.74 2006.34 1197.47 2006.59 1202.79C2007.24 1216.98 2005.44 1232.05 2002.68 1245.99C2002.37 1247.53 2003.15 1259.04 2002.75 1259.41C2001.58 1260.46 1969.55 1274.98 1947.67 1285.63C1922.44 1297.92 1912.42 1304.82 1886.13 1314.67C1877.2 1318.02 1860.79 1330.76 1851.93 1334.13C1846.71 1336.12 1842.59 1340.01 1837.3 1342.03C1831.68 1344.17 1826.78 1347.14 1821.14 1349.05C1820.58 1349.24 1819.82 1350.25 1819.52 1349.75C1816.86 1345.26 1808.09 1334.76 1808.35 1329.84C1809.3 1312.28 1798.8 1298.21 1801.38 1280.44C1802.37 1273.65 1801.28 1265.51 1796.81 1259.83Z" fill="#5e5e5e" fill-rule="nonzero" opacity="1" stroke="#3c3c3c" stroke-linecap="round" stroke-linejoin="miter" stroke-width="6"/>
<path d="M1816.35 1155.93C1816.43 1155.17 1816.56 1144.04 1817.22 1143.65C1825.54 1138.77 1842.72 1106 1854.82 1101.13C1866.92 1096.25 1876.04 1087.05 1904.61 1081.79C1931.87 1076.77 1949.68 1068.75 1976.75 1058.43C1980.56 1056.98 2011.77 1057.52 2012.61 1061.86C2014.19 1070.04 2008.6 1100.91 2008.62 1109.05C2008.67 1137.96 2006.87 1161.35 2006.43 1161.75C2005.86 1162.26 2000.01 1163.77 1991.93 1167.28C1978.86 1172.95 1948.2 1184.1 1934.75 1188.66C1906.64 1198.18 1894.54 1210.49 1869.82 1220.99C1861.56 1224.5 1845.04 1233.96 1835.19 1234.83C1830.91 1235.21 1819.3 1241.61 1819.12 1241.6C1816.24 1241.44 1817.29 1230.2 1817.44 1227.32C1817.63 1223.91 1817.81 1220.5 1817.99 1217.09C1819.03 1197.83 1814.53 1174.96 1816.35 1155.93Z" fill="#5e5e5e" fill-rule="nonzero" opacity="1" stroke="#3c3c3c" stroke-linecap="round" stroke-linejoin="miter" stroke-width="6"/>
<path d="M266.337 1218.63C270.748 1210.8 242.279 1237.5 236.842 1243.02C218.951 1261.18 176.218 1295.7 208.669 1322.89C230.206 1340.94 248.703 1331.19 268.096 1318.13C281.362 1309.2 295.079 1302.77 307.022 1291.93C315.594 1284.16 321.656 1274.03 331.252 1267.57C333.672 1265.94 340.423 1255.02 338.746 1258" fill="#e5b989" fill-rule="nonzero" opacity="1" stroke="#3c3c3c" stroke-linecap="round" stroke-linejoin="miter" stroke-width="6"/>
<path d="M668.235 413.518C665.37 395.627 659.245 371.786 647.423 357.025C631.253 336.834 588.694 322.428 576.842 353.259C566.725 379.576 600.369 411.152 600.369 437.056" fill="#64d6ee" fill-rule="nonzero" opacity="1" stroke="#3c3c3c" stroke-linecap="round" stroke-linejoin="miter" stroke-width="6"/>
<path d="M201.463 1040.57C173.841 1034.26 145.76 1023.97 117.885 1033.14C110.098 1035.71 90.8917 1050.1 100.364 1060.65C122.569 1085.39 161.445 1083.65 190.216 1090.22" fill="#e5b989" fill-rule="nonzero" opacity="1" stroke="#3c3c3c" stroke-linecap="round" stroke-linejoin="miter" stroke-width="6"/>
<path d="M746.127 838.895C758.842 838.895 769.533 828.532 781.417 823.83C802.845 815.351 859.772 794.532 885.478 802.174C892.996 804.409 896.156 816.107 897.242 822.888C899.366 836.147 882.795 850.485 873.715 856.784C862.828 864.336 852.828 873.3 841.139 879.381C823.372 888.625 803.984 893.162 786.847 903.861C776.22 910.496 762.525 911.137 751.556 917.985C748.637 919.807 732.346 926.53 737.983 924.575" fill="#e5b989" fill-rule="nonzero" opacity="1" stroke="#3c3c3c" stroke-linecap="round" stroke-linejoin="miter" stroke-width="6"/>
<path d="M193.67 1151.44C186.147 1113.1 179.136 1059.2 191.617 1013.75C198.62 988.243 226.495 879.741 232.662 859.595C258.679 774.611 256.819 808.088 258.883 727.62C260.853 650.787 215.139 583.402 281.524 482.091C334.408 401.385 453.755 365.517 540.929 373.616C639.645 382.787 755.989 408.466 810.635 575.38C836.141 653.284 823.732 736.378 826.612 773.291C827.61 786.073 816.67 861.734 807.839 895.81C795.626 942.938 775.853 1014.62 768.945 1032.59C749.498 1083.18 725.468 1149.36 712.106 1169.66C695.835 1194.39 643.269 1258.54 617.835 1271.77C594.449 1283.94 495.464 1325.53 390.428 1305.31C298.641 1287.64 299.595 1280.48 274.156 1260.36C248.163 1239.79 202.658 1197.25 193.67 1151.44Z" fill="#64d6ee" fill-rule="nonzero" opacity="1" stroke="#3c3c3c" stroke-linecap="round" stroke-linejoin="miter" stroke-width="6"/>
<path d="M520.3 883.373C523.566 879.998 510.817 883.012 506.646 884.995C499.041 888.61 492.532 894.368 485.51 899.111C467.628 911.189 436.594 937.243 450.638 963.717C458.946 979.377 477.839 976.457 490.934 972.035C517.475 963.07 543.055 952.659 563.424 931.602" fill="#e5b989" fill-rule="nonzero" opacity="1" stroke="#3c3c3c" stroke-linecap="round" stroke-linejoin="miter" stroke-width="6"/>
<path d="M371.318 455.833C375.443 458.282 362.435 452.325 358.061 450.399C353.728 448.491 341.518 443.988 335.301 440.298C311.61 426.237 303.932 396.793 317.185 372.59C336.156 337.947 386.388 361.797 408.562 377.657C412.398 380.401 419.482 381.177 422.817 384.657C426.286 388.277 428.468 394.34 432.803 396.912" fill="#64d6ee" fill-rule="nonzero" opacity="1" stroke="#3c3c3c" stroke-linecap="round" stroke-linejoin="miter" stroke-width="6"/>
<path d="M390.374 444.75C378.022 435.916 362.638 432.973 348.852 427.408C340.266 423.943 311.575 388.885 336.92 391.605C345.358 392.511 352.121 398.169 359.68 401.706C373.061 407.968 390.692 414.856 404.71 417.723C409.752 418.753 413.512 423.608 418.965 424.723" fill="#e5b989" fill-rule="nonzero" opacity="1" stroke="#3c3c3c" stroke-linecap="round" stroke-linejoin="miter" stroke-width="6"/>
<path d="M503.21 592.856C490.013 539.707 525.824 484.602 578.574 484.602C631.324 484.602 674.086 529.027 674.086 583.827C674.086 638.627 644.433 675.592 591.683 675.592C538.934 675.592 515.058 640.577 503.21 592.856Z" fill="#ffffff" fill-rule="nonzero" opacity="1" stroke="#3c3c3c" stroke-linecap="butt" stroke-linejoin="miter" stroke-width="6"/>
<path d="M577.025 562.415C577.025 538.476 596.442 519.07 620.393 519.07C644.344 519.07 663.761 538.476 663.761 562.415C663.761 586.354 644.344 605.761 620.393 605.761C596.442 605.761 577.025 586.354 577.025 562.415Z" fill="#303030" fill-rule="nonzero" opacity="1" stroke="#3c3c3c" stroke-linecap="butt" stroke-linejoin="miter" stroke-width="6"/>
<path d="M611.1 563.46C611.1 552.788 618.959 544.137 628.653 544.137C638.348 544.137 646.207 552.788 646.207 563.46C646.207 574.131 638.348 582.782 628.653 582.782C618.959 582.782 611.1 574.131 611.1 563.46Z" fill="#ffffff" fill-rule="nonzero" opacity="1" stroke="#3c3c3c" stroke-linecap="butt" stroke-linejoin="miter" stroke-width="6"/>
<path d="M737.263 526.001C721.916 484.786 749.053 452.694 789.283 452.694C829.513 452.694 862.126 488.525 862.126 532.725C862.126 576.925 846.028 608.274 805.798 608.274C765.568 608.274 754.871 573.287 737.263 526.001Z" fill="#ffffff" fill-rule="nonzero" opacity="1" stroke="#3c3c3c" stroke-linecap="butt" stroke-linejoin="miter" stroke-width="6"/>
<path d="M801.499 517.66C801.499 498.42 816.084 482.823 834.075 482.823C852.066 482.823 866.65 498.42 866.65 517.66C866.65 536.9 852.066 552.498 834.075 552.498C816.084 552.498 801.499 536.9 801.499 517.66Z" fill="#303030" fill-rule="nonzero" opacity="1" stroke="#3c3c3c" stroke-linecap="butt" stroke-linejoin="miter" stroke-width="6"/>
<path d="M834.822 522.04C834.822 513.72 841.507 506.976 849.753 506.976C857.999 506.976 864.683 513.72 864.683 522.04C864.683 530.36 857.999 537.105 849.753 537.105C841.507 537.105 834.822 530.36 834.822 522.04Z" fill="#ffffff" fill-rule="nonzero" opacity="1" stroke="#3c3c3c" stroke-linecap="butt" stroke-linejoin="miter" stroke-width="6"/>
<path d="M754.48 650.107C751.618 645.306 749.673 710.589 763.915 715.323C777.251 719.755 784.314 702.719 784.178 693.111C784.083 686.438 782.991 646.663 782.813 645.887" fill="#ffffff" fill-rule="nonzero" opacity="1" stroke="#3c3c3c" stroke-linecap="round" stroke-linejoin="miter" stroke-width="6"/>
<path d="M782.747 644.613C782.747 659.818 789.709 692.503 794.93 700.04C800.151 707.578 809.087 709.803 814.824 703.834C824.49 693.776 814.732 651.503 810.785 639.878" fill="#ffffff" fill-rule="nonzero" opacity="1" stroke="#3c3c3c" stroke-linecap="round" stroke-linejoin="miter" stroke-width="6"/>
<path d="M742.893 595.065C729.71 601.346 714.998 609.232 705.439 629.098C695.628 649.489 701.062 662.992 707.668 668.492C727.63 685.108 755.327 656.774 774.629 653.427C787.57 651.183 801.523 653.291 814.444 650.602C824.769 648.454 838.969 640.829 836.161 629.888C826.455 592.068 806.572 590.023 785.488 585.635C780.772 584.654 748.217 592.527 742.893 595.065Z" fill="#e5b989" fill-rule="nonzero" opacity="1" stroke="#3c3c3c" stroke-linecap="round" stroke-linejoin="miter" stroke-width="6"/>
<path d="M769.127 575.292C754.676 576.76 736.941 586.658 749.554 597.425C759.58 605.985 797.922 598.099 798.183 587.56C798.593 571.014 770.08 575.195 769.127 575.292Z" fill="#303030" fill-rule="nonzero" opacity="1" stroke="#3c3c3c" stroke-linecap="round" stroke-linejoin="miter" stroke-width="6"/>
<path d="M549.84 1287.82C547.424 1282.73 555.388 1297.61 558.664 1302.14C563.534 1308.88 569.193 1314.96 574.739 1321.1C591.91 1340.1 626.95 1362.21 647.804 1336.6C660.179 1321.41 626.183 1272.43 614.615 1260.32C611.187 1256.73 587.324 1230.52 591.278 1238.84" fill="#e5b989" fill-rule="nonzero" opacity="1" stroke="#3c3c3c" stroke-linecap="round" stroke-linejoin="miter" stroke-width="6"/>
<path d="M247.272 498.742C247.272 484.634 226.018 473.911 214.904 470.027C189.644 461.199 148.109 447.79 136.474 484.384C118.188 541.902 207.643 500.193 226.108 513.099" fill="none" opacity="1" stroke="#3c3c3c" stroke-linecap="round" stroke-linejoin="miter" stroke-width="6"/>
<path d="M193.741 688C176.396 675.877 144.736 680.441 126.515 681.474C118.8 681.911 119.819 681.721 115.311 684.085" fill="none" opacity="1" stroke="#3c3c3c" stroke-linecap="round" stroke-linejoin="miter" stroke-width="6"/>
<path d="M143.944 716.715C153.111 716.715 162.215 715.111 171.332 714.105" fill="none" opacity="1" stroke="#3c3c3c" stroke-linecap="round" stroke-linejoin="miter" stroke-width="6"/>
<path d="M348.11 1353.67C411.601 1353.67 475.092 1353.67 538.582 1353.67" fill="none" opacity="1" stroke="#3c3c3c" stroke-linecap="round" stroke-linejoin="miter" stroke-width="6"/>
<path d="M341.886 1374.55C340.641 1374.55 336.91 1374.45 338.151 1374.55C410.349 1380.31 482.672 1384.48 554.766 1391.52C656.565 1401.45 758.138 1413.8 859.771 1425.46C864.383 1425.98 868.9 1427.2 873.465 1428.07" fill="none" opacity="1" stroke="#3c3c3c" stroke-linecap="round" stroke-linejoin="miter" stroke-width="6"/>
<path d="M1820.24 955.992C1819.44 956.212 1817.06 956.941 1817.83 956.651C1824.78 954.065 1831.72 951.437 1838.76 949.099C1855.57 943.515 1872.49 938.3 1889.35 932.887C1909.31 926.48 1920.46 920.5 1940.11 913.528C1952.95 908.972 1975.59 903.76 1987.56 897.146C1990.49 895.525 2014.11 886.989 2015.69 887.615C2016.86 888.075 2017.38 900.183 2017.25 902.693C2016.32 919.801 2016.96 937.377 2016.02 954.712C2015.85 957.795 2017.18 967.232 2014.47 968.834C2013.18 969.598 2008.83 969.546 2007.3 970.026C1999.02 972.633 1991.09 976.301 1983.1 979.769C1944.32 996.612 1904.05 1008.51 1864.72 1023.89C1853.09 1028.44 1827.91 1035.72 1815.43 1041.65" fill="#5e5e5e" fill-rule="nonzero" opacity="1" stroke="#3c3c3c" stroke-linecap="round" stroke-linejoin="miter" stroke-width="6"/>
<path d="M1819 1044.03C1816.91 1039.21 1840.21 1033.58 1845.12 1031.69C1865.91 1023.72 1876.48 1018.93 1897.7 1012.25C1928.18 1002.66 1957.61 989.485 1987.87 979.237C1996.63 976.267 2003.81 973.08 2012.07 969.493C2012.61 969.259 2013.21 968.44 2013.68 968.791C2014.01 969.036 2016.42 988.947 2016.47 990.249C2017.15 1008.67 2015.24 1027.73 2014.25 1046.16C2014.11 1048.74 2013.44 1061.11 2011.78 1062.6C2010.59 1063.67 2008.56 1062.71 2007.02 1063.13C2002.25 1064.44 1997.91 1066.95 1993.3 1068.71C1978.24 1074.45 1963.11 1079.89 1948.17 1086C1903.1 1104.45 1858.81 1123.67 1814.9 1142.74" fill="#5e5e5e" fill-rule="nonzero" opacity="1" stroke="#3c3c3c" stroke-linecap="round" stroke-linejoin="miter" stroke-width="6"/>
<path d="M1419.08 1218.97C1430.79 1218.35 1456.91 1213.46 1473.48 1213.56C1490.05 1213.66 1543.42 1209.99 1578.42 1211.87C1639.16 1215.15 1658.39 1223.71 1719.22 1224.35C1737.4 1224.54 1784.42 1222.33 1802.56 1222.01C1805.45 1221.96 1815.81 1243.01 1818.08 1244.71C1818.5 1245.03 1818.13 1245.78 1818 1246.29C1816.14 1253.51 1818.24 1283.16 1818.92 1290.82C1819.9 1302 1822.34 1339.39 1818.48 1354.43C1817.63 1357.75 1800.39 1355.03 1797.15 1354.86C1773.99 1353.61 1750.86 1354.73 1727.78 1353.48C1685.71 1351.21 1643.66 1353.34 1601.54 1352.99C1564.74 1352.68 1528.06 1350.6 1491.29 1348.62C1472.56 1347.61 1454.32 1344.26 1435.55 1343.25C1433.23 1343.12 1421 1345.4 1419.72 1343.97C1417.87 1341.91 1417.43 1331.85 1416.6 1328.81C1410.93 1308.16 1416.4 1286.83 1415.43 1265.63C1415.06 1257.68 1413.17 1219.28 1419.08 1218.97Z" fill="#5e5e5e" fill-rule="nonzero" opacity="1" stroke="#3c3c3c" stroke-linecap="round" stroke-linejoin="miter" stroke-width="6"/>
<path d="M1416.56 1231.39C1414.54 1230.54 1415.38 1207.14 1415.61 1197.94C1416.12 1177.24 1417.84 1151.95 1422.67 1131.63C1423.39 1128.62 1431.28 1132.88 1439.79 1132.77C1462.62 1132.48 1485.53 1134.32 1508.25 1136.46C1557.12 1141.06 1609.17 1136.36 1658.03 1141.04C1680.88 1143.23 1705.24 1141.83 1728.25 1143.07C1753.43 1144.43 1770.95 1141.52 1796.13 1142.88C1803.26 1143.27 1811.6 1140.16 1818.45 1138.83C1818.96 1138.74 1821.56 1179.94 1820.8 1192.55C1820.04 1205.17 1818.67 1207.72 1819.66 1221.73C1819.87 1224.61 1822.58 1238.5 1820.04 1240.79C1819.3 1241.45 1810.48 1240.46 1809.64 1240.31C1805.56 1239.58 1803.31 1240.37 1799.37 1240.55C1780.26 1241.42 1760.19 1240.79 1740.97 1240.55C1660.5 1239.57 1595.17 1239 1514.79 1234.67C1492.09 1233.45 1453.31 1230.39 1430.56 1230.92C1424.34 1231.06 1418.57 1232.24 1416.56 1231.39Z" fill="#5e5e5e" fill-rule="nonzero" opacity="1" stroke="#3c3c3c" stroke-linecap="round" stroke-linejoin="miter" stroke-width="6"/>
<path d="M1421.12 1131.25C1421.12 1131.25 1422.18 1096.42 1422.72 1090.4C1423.51 1081.49 1421.97 1042.77 1424.49 1039.4C1424.81 1038.98 1425.54 1039.45 1426.06 1039.48C1433.41 1039.88 1428.72 1040.63 1436.06 1041.02C1462.09 1042.43 1488.06 1042.54 1514.09 1042.86C1593.59 1043.84 1672.67 1041.95 1752.24 1046.24C1775.59 1047.5 1801.01 1046.51 1817.02 1044.99C1818.85 1044.82 1818.93 1068 1818.76 1071.13C1817.68 1091.3 1816.85 1106.54 1818.58 1118.47C1820.3 1130.4 1820.67 1140.06 1817.25 1143.14C1816.02 1144.24 1723.03 1143.71 1693.97 1143.22C1656.8 1142.6 1574.76 1137.35 1537.58 1136.46C1489.56 1135.31 1421.12 1131.25 1421.12 1131.25Z" fill="#5e5e5e" fill-rule="nonzero" opacity="1" stroke="#3c3c3c" stroke-linecap="round" stroke-linejoin="miter" stroke-width="6"/>
<path d="M1430.08 1038.12C1428.79 1037.89 1426.64 1039.13 1426.15 1037.91C1422.02 1027.52 1422.25 983.91 1421.46 978.468C1420.36 970.808 1421.7 945.244 1423.02 947.35C1424.34 949.456 1435.33 946.781 1441.36 947.106C1460.63 948.145 1471.39 949.069 1490.73 949.271C1566.35 950.059 1642.13 949.544 1717.77 953.623C1742.35 954.948 1767.23 956.158 1791.82 956.038C1795.42 956.02 1814.83 954.126 1817.13 955.035C1818.6 955.613 1816.96 958.183 1816.88 959.756C1816.62 964.515 1815.73 969.924 1816.07 974.707C1816.92 986.748 1816.79 1037.33 1817.2 1044.6C1817.34 1047.05 1803.78 1047.56 1801.86 1047.46C1791.37 1046.89 1780.87 1046.99 1770.38 1046.43C1738.56 1044.71 1696.7 1041.84 1664.85 1042.31C1611.44 1043.11 1568.42 1038.69 1515.05 1039.76C1482.74 1040.41 1462.22 1043.75 1430.08 1038.12Z" fill="#5e5e5e" fill-rule="nonzero" opacity="1" stroke="#3c3c3c" stroke-linecap="round" stroke-linejoin="miter" stroke-width="6"/>
<path d="M1421.09 946.224C1460.33 934.039 1569.95 907.39 1597.23 898.15C1604.28 895.761 1706.62 868.342 1714.06 866.903C1727.51 864.301 1766.98 869.899 1780.66 869.661C1818.1 869.008 1833.18 872.493 1870.51 874.506C1901.92 876.2 1933.07 878.714 1964.48 880.408C1977.05 881.086 1989.48 880.922 2001.96 881.595C2002.48 881.623 2013.61 882.223 2013.61 882.223C2013.51 883.95 1993.92 891.585 1991.35 892.704C1966.23 903.616 1898.67 926.888 1890.1 928.963C1881.06 931.153 1831.17 947.456 1816.24 952.514C1814 953.274 1814.24 955.165 1811.9 955.618C1804.23 957.102 1793.91 954.647 1786.11 954.227C1769.86 953.351 1753.4 953.298 1736.98 952.412C1711 951.011 1683.99 949.879 1657.81 950.646C1635.3 951.304 1552.07 947.698 1533.62 948.121C1514.04 948.569 1493.07 944.382 1473.63 946.554C1461.97 947.858 1447.79 948.498 1436.02 947.863C1432.16 947.655 1416.54 947.633 1421.09 946.224Z" fill="#5e5e5e" fill-rule="nonzero" opacity="1" stroke="#3c3c3c" stroke-linecap="round" stroke-linejoin="miter" stroke-width="6"/>
<path d="M1779 988.937C1779 982.465 1784.11 977.219 1790.42 977.219C1796.72 977.219 1801.83 982.465 1801.83 988.937C1801.83 995.408 1796.72 1000.65 1790.42 1000.65C1784.11 1000.65 1779 995.408 1779 988.937Z" fill="#68c40c" fill-rule="nonzero" opacity="1" stroke="#3c3c3c" stroke-linecap="round" stroke-linejoin="miter" stroke-width="6"/>
<path d="M1786.21 1173.11C1786.21 1166.8 1791.46 1161.69 1797.93 1161.69C1804.4 1161.69 1809.65 1166.8 1809.65 1173.11C1809.65 1179.41 1804.4 1184.52 1797.93 1184.52C1791.46 1184.52 1786.21 1179.41 1786.21 1173.11Z" fill="#68c40c" fill-rule="nonzero" opacity="1" stroke="#3c3c3c" stroke-linecap="round" stroke-linejoin="miter" stroke-width="6"/>
<path d="M1780.8 1077.57C1780.8 1071.92 1784.84 1067.35 1789.82 1067.35C1794.79 1067.35 1798.83 1071.92 1798.83 1077.57C1798.83 1083.21 1794.79 1087.78 1789.82 1087.78C1784.84 1087.78 1780.8 1083.21 1780.8 1077.57Z" fill="#68c40c" fill-rule="nonzero" opacity="1" stroke="#3c3c3c" stroke-linecap="round" stroke-linejoin="miter" stroke-width="6"/>
<path d="M1782.01 1276.76C1782.01 1270.29 1786.58 1265.04 1792.22 1265.04C1797.86 1265.04 1802.43 1270.29 1802.43 1276.76C1802.43 1283.23 1797.86 1288.48 1792.22 1288.48C1786.58 1288.48 1782.01 1283.23 1782.01 1276.76Z" fill="#68c40c" fill-rule="nonzero" opacity="1" stroke="#3c3c3c" stroke-linecap="round" stroke-linejoin="miter" stroke-width="6"/>
<path d="M1455.35 967.463L1489.41 967.463C1495.38 967.463 1500.22 972.304 1500.22 978.274L1500.22 1013.21C1500.22 1019.18 1495.38 1024.02 1489.41 1024.02L1455.35 1024.02C1449.38 1024.02 1444.54 1019.18 1444.54 1013.21L1444.54 978.274C1444.54 972.304 1449.38 967.463 1455.35 967.463Z" fill="#303030" fill-rule="nonzero" opacity="1" stroke="none"/>
<path d="M1455.35 1062.3L1485.93 1062.3C1491.9 1062.3 1496.74 1067.14 1496.74 1073.11L1496.74 1107.18C1496.74 1113.15 1491.9 1117.99 1485.93 1117.99L1455.35 1117.99C1449.38 1117.99 1444.54 1113.15 1444.54 1107.18L1444.54 1073.11C1444.54 1067.14 1449.38 1062.3 1455.35 1062.3Z" fill="#303030" fill-rule="nonzero" opacity="1" stroke="none"/>
<path d="M1455.76 1167.59L1486.39 1167.59C1491.63 1167.59 1495.87 1172.5 1495.87 1178.57L1495.87 1211.42C1495.87 1217.48 1491.63 1222.4 1486.39 1222.4L1455.76 1222.4C1450.52 1222.4 1446.28 1217.48 1446.28 1211.42L1446.28 1178.57C1446.28 1172.5 1450.52 1167.59 1455.76 1167.59Z" fill="#303030" fill-rule="nonzero" opacity="1" stroke="none"/>
<path d="M1455.22 1265.91L1486.93 1265.91C1492.35 1265.91 1496.74 1270.06 1496.74 1275.19L1496.74 1309.69C1496.74 1314.82 1492.35 1318.98 1486.93 1318.98L1455.22 1318.98C1449.8 1318.98 1445.41 1314.82 1445.41 1309.69L1445.41 1275.19C1445.41 1270.06 1449.8 1265.91 1455.22 1265.91Z" fill="#303030" fill-rule="nonzero" opacity="1" stroke="none"/>
<path d="M1519.37 1012.71C1543.12 1012.71 1565.5 1015.32 1588.97 1015.32" fill="#303030" fill-rule="nonzero" opacity="1" stroke="#3c3c3c" stroke-linecap="round" stroke-linejoin="miter" stroke-width="6"/>
<path d="M1624.65 1019.67C1645.85 1019.67 1667.22 1024.02 1688.16 1024.02C1694.97 1024.02 1701.51 1024.89 1708.18 1024.89C1709.79 1024.89 1720.23 1024.89 1716.01 1024.89" fill="#303030" fill-rule="nonzero" opacity="1" stroke="#3c3c3c" stroke-linecap="round" stroke-linejoin="miter" stroke-width="6"/>
<path d="M1523.72 986.605C1544.06 986.605 1564.38 988.346 1584.62 988.346" fill="#303030" fill-rule="nonzero" opacity="1" stroke="#3c3c3c" stroke-linecap="round" stroke-linejoin="miter" stroke-width="6"/>
<path d="M1633.35 990.086C1629.97 988.395 1640.88 989.124 1644.66 989.216C1652.2 989.4 1659.75 989.629 1667.28 990.086C1677.4 990.699 1687.59 992.696 1697.74 992.696C1701.5 992.696 1714.43 992.149 1716.01 995.306" fill="#303030" fill-rule="nonzero" opacity="1" stroke="#3c3c3c" stroke-linecap="round" stroke-linejoin="miter" stroke-width="6"/>
<path d="M1520.24 1114.51C1519.37 1113.93 1516.89 1113.51 1517.63 1112.77C1520.09 1110.31 1524.59 1112.77 1528.07 1112.77C1534.45 1112.77 1540.83 1112.2 1547.21 1111.9C1561.84 1111.2 1576.98 1111.03 1591.58 1111.03" fill="#303030" fill-rule="nonzero" opacity="1" stroke="#3c3c3c" stroke-linecap="round" stroke-linejoin="miter" stroke-width="6"/>
<path d="M1521.11 1079.71C1519.66 1079.42 1515.28 1078.84 1516.76 1078.84C1523.61 1078.84 1531.75 1079.9 1538.51 1080.58C1551.99 1081.92 1567.2 1079.92 1580.27 1083.19" fill="#303030" fill-rule="nonzero" opacity="1" stroke="#3c3c3c" stroke-linecap="round" stroke-linejoin="miter" stroke-width="6"/>
<path d="M1627.26 1086.67C1621.6 1084.78 1648.7 1085.8 1652.49 1085.8C1665.25 1085.8 1678.01 1085.8 1690.77 1085.8C1694.37 1085.8 1710.45 1085.59 1709.05 1088.41" fill="#303030" fill-rule="nonzero" opacity="1" stroke="#3c3c3c" stroke-linecap="round" stroke-linejoin="miter" stroke-width="6"/>
<path d="M1632.48 1109.29C1651.62 1109.29 1670.77 1109.66 1689.9 1110.16C1692.12 1110.22 1705.98 1109.93 1709.92 1111.9" fill="#303030" fill-rule="nonzero" opacity="1" stroke="#3c3c3c" stroke-linecap="round" stroke-linejoin="miter" stroke-width="6"/>
<path d="M1520.24 1179.77C1519.66 1179.48 1517.85 1178.93 1518.5 1178.9C1525.16 1178.58 1531.84 1178.9 1538.51 1178.9C1553 1178.9 1567.81 1180.64 1582.01 1180.64" fill="#303030" fill-rule="nonzero" opacity="1" stroke="#3c3c3c" stroke-linecap="round" stroke-linejoin="miter" stroke-width="6"/>
<path d="M1511.53 1205C1528.4 1199.38 1555.95 1205 1575.05 1205" fill="#303030" fill-rule="nonzero" opacity="1" stroke="#3c3c3c" stroke-linecap="round" stroke-linejoin="miter" stroke-width="6"/>
<path d="M1613.34 1184.12C1606.15 1184.12 1638.15 1185.06 1642.92 1184.99C1657.71 1184.75 1672.5 1184.12 1687.29 1184.12C1690.66 1184.12 1695.32 1185.37 1696.87 1188.47" fill="#303030" fill-rule="nonzero" opacity="1" stroke="#3c3c3c" stroke-linecap="round" stroke-linejoin="miter" stroke-width="6"/>
<path d="M1609.86 1203.26C1639.06 1203.26 1668.64 1205.06 1697.74 1208.48" fill="#303030" fill-rule="nonzero" opacity="1" stroke="#3c3c3c" stroke-linecap="round" stroke-linejoin="miter" stroke-width="6"/>
<path d="M1521.98 1277.22C1520.68 1277.22 1517.22 1275.73 1518.5 1275.48C1533.01 1272.57 1548.07 1276.9 1562.87 1277.22C1570.69 1277.38 1578.54 1277.22 1586.36 1277.22" fill="#303030" fill-rule="nonzero" opacity="1" stroke="#3c3c3c" stroke-linecap="round" stroke-linejoin="miter" stroke-width="6"/>
<path d="M1520.24 1304.19C1519.08 1303.61 1517.34 1303.61 1516.76 1302.45C1515.72 1300.37 1521.4 1302.45 1523.72 1302.45C1529.52 1302.45 1535.32 1302.45 1541.12 1302.45C1552.44 1302.45 1563.69 1303.32 1575.05 1303.32" fill="#303030" fill-rule="nonzero" opacity="1" stroke="#3c3c3c" stroke-linecap="round" stroke-linejoin="miter" stroke-width="6"/>
<path d="M1627.26 1285.92C1625.42 1285.92 1620.2 1284.24 1622.04 1284.18C1639.14 1283.56 1656.26 1284.43 1673.37 1284.18C1675.71 1284.14 1678 1283.49 1680.33 1283.31C1683.92 1283.03 1699.56 1282.83 1696.87 1284.18" fill="#303030" fill-rule="nonzero" opacity="1" stroke="#3c3c3c" stroke-linecap="round" stroke-linejoin="miter" stroke-width="6"/>
<path d="M1615.95 1309.41C1615.37 1309.12 1613.56 1308.57 1614.21 1308.54C1630.15 1307.94 1646.12 1308.23 1662.06 1307.67C1673.95 1307.25 1687.1 1301.48 1697.74 1306.8" fill="#303030" fill-rule="nonzero" opacity="1" stroke="#3c3c3c" stroke-linecap="round" stroke-linejoin="miter" stroke-width="6"/>
<path d="M1844.56 964.031C1844.56 980.341 1844.56 996.651 1844.56 1012.96" fill="#303030" fill-rule="nonzero" opacity="1" stroke="#3c3c3c" stroke-linecap="round" stroke-linejoin="miter" stroke-width="6"/>
<path d="M1863.87 957.592C1861.09 971.488 1862.59 985.914 1862.59 1000.08" fill="#303030" fill-rule="nonzero" opacity="1" stroke="#3c3c3c" stroke-linecap="round" stroke-linejoin="miter" stroke-width="6"/>
<path d="M1841.98 1058.03C1841.98 1073.48 1841.98 1088.93 1841.98 1104.38" fill="#303030" fill-rule="nonzero" opacity="1" stroke="#3c3c3c" stroke-linecap="round" stroke-linejoin="miter" stroke-width="6"/>
<path d="M1860.01 1047.73C1860.01 1064.04 1860.01 1080.35 1860.01 1096.66" fill="#303030" fill-rule="nonzero" opacity="1" stroke="#3c3c3c" stroke-linecap="round" stroke-linejoin="miter" stroke-width="6"/>
<path d="M1984.91 911.237C1980.09 925.708 1983.62 943.539 1983.62 958.88" fill="#303030" fill-rule="nonzero" opacity="1" stroke="#3c3c3c" stroke-linecap="round" stroke-linejoin="miter" stroke-width="6"/>
<path d="M1997.79 903.512C1997.79 919.411 1996.5 935.251 1996.5 951.154" fill="#303030" fill-rule="nonzero" opacity="1" stroke="#3c3c3c" stroke-linecap="round" stroke-linejoin="miter" stroke-width="6"/>
<path d="M1974.61 1005.24C1974.61 1021.98 1973.78 1038.71 1973.32 1055.45" fill="#303030" fill-rule="nonzero" opacity="1" stroke="#3c3c3c" stroke-linecap="round" stroke-linejoin="miter" stroke-width="6"/>
<path d="M1987.49 1000.08C1987.49 1017.27 1985.82 1034.42 1984.91 1051.59" fill="#303030" fill-rule="nonzero" opacity="1" stroke="#3c3c3c" stroke-linecap="round" stroke-linejoin="miter" stroke-width="6"/>
<path d="M1966.88 1109.53C1966.88 1124.99 1966.1 1140.44 1965.6 1155.89" fill="#303030" fill-rule="nonzero" opacity="1" stroke="#3c3c3c" stroke-linecap="round" stroke-linejoin="miter" stroke-width="6"/>
<path d="M1977.19 1123.7C1977.19 1132.33 1975.75 1140.9 1974.61 1149.45" fill="#303030" fill-rule="nonzero" opacity="1" stroke="#3c3c3c" stroke-linecap="round" stroke-linejoin="miter" stroke-width="6"/>
<path d="M1836.83 1158.46C1836.83 1174.77 1836.83 1191.08 1836.83 1207.39" fill="#303030" fill-rule="nonzero" opacity="1" stroke="#3c3c3c" stroke-linecap="round" stroke-linejoin="miter" stroke-width="6"/>
<path d="M1849.71 1152.03C1850.77 1167.87 1850.43 1183.8 1849.71 1199.67" fill="#303030" fill-rule="nonzero" opacity="1" stroke="#3c3c3c" stroke-linecap="round" stroke-linejoin="miter" stroke-width="6"/>
<path d="M1838.12 1260.19C1838.12 1279.07 1838.12 1297.96 1838.12 1316.84C1838.12 1317.7 1838.12 1315.13 1838.12 1314.27" fill="#303030" fill-rule="nonzero" opacity="1" stroke="#3c3c3c" stroke-linecap="round" stroke-linejoin="miter" stroke-width="6"/>
<path d="M1851 1256.32C1851 1273.92 1851 1291.52 1851 1309.12" fill="#303030" fill-rule="nonzero" opacity="1" stroke="#3c3c3c" stroke-linecap="round" stroke-linejoin="miter" stroke-width="6"/>
<path d="M1973.32 1193.23C1973.32 1213.83 1973.32 1234.44 1973.32 1255.04C1973.32 1257.18 1973.32 1250.75 1973.32 1248.6" fill="#303030" fill-rule="nonzero" opacity="1" stroke="#3c3c3c" stroke-linecap="round" stroke-linejoin="miter" stroke-width="6"/>
<path d="M1984.91 1193.23C1984.91 1209.98 1985.69 1226.71 1986.2 1243.45" fill="#303030" fill-rule="nonzero" opacity="1" stroke="#3c3c3c" stroke-linecap="round" stroke-linejoin="miter" stroke-width="6"/>
<path d="M1680.14 660.971C1677.06 660.971 1674.18 663.908 1670.73 663.908C1667.82 663.908 1664.76 662.248 1661.92 662.721C1656.37 663.646 1649.84 667.209 1644.33 667.439C1640.22 667.61 1636.03 666.704 1631.98 667.439C1629.4 667.909 1626.68 668.987 1624.92 670.939C1624.27 671.667 1625.85 672.829 1626.7 673.314C1632.79 676.792 1641 684.083 1646.08 689.158C1649.3 692.384 1650.61 698.257 1655.48 699.721C1667.83 703.423 1680.22 706.224 1692.8 708.502C1691.42 705.71 1690.5 702.679 1689.95 698.627C1689.55 695.639 1689.31 692.729 1688.95 687.096C1688.67 682.624 1690.97 675.433 1695.84 682.123C1700.7 688.813 1696.19 671.116 1695.16 669.053C1694.52 667.78 1694.19 660.983 1694 659.648C1692.36 659.431 1681.65 660.971 1680.14 660.971ZM1791.83 663.564C1791.66 665.07 1791.43 666.255 1791.2 667.752C1791.37 668.012 1803.19 667.566 1791.73 668.471C1780.27 669.375 1787.09 677.592 1784.1 689.914C1782.95 694.683 1788.83 705.898 1787.3 709.596C1786.47 711.577 1785.61 713.259 1784.7 714.814C1784.7 714.825 1784.7 714.835 1784.7 714.846C1784.55 717.458 1784.54 720 1784.48 722.564C1786.69 722.531 1788.9 722.401 1791.11 722.033C1798.15 720.859 1805.9 719.326 1812.83 717.346C1822.26 714.65 1824.34 708.255 1831.02 703.252C1840.19 696.373 1855 682.022 1841.02 671.533C1835.33 667.269 1816.37 670.604 1809.3 669.189C1806.11 668.551 1803.64 665.727 1800.48 665.096C1797.37 664.473 1794.63 664.126 1791.83 663.564Z" fill="#5e5e5e" fill-rule="nonzero" opacity="1" stroke="#3c3c3c" stroke-linecap="round" stroke-linejoin="miter" stroke-width="6"/>
<path d="M1592.27 920.581C1592.27 921.248 1592.27 921.915 1592.27 922.581" fill="#5e5e5e" fill-rule="nonzero" opacity="1" stroke="#3c3c3c" stroke-linecap="round" stroke-linejoin="miter" stroke-width="6"/>
<path d="M1851.23 890.788C1849.63 893.703 1855.14 885.177 1857.64 882.64C1863.56 876.626 1870.18 871.013 1876.76 865.399C1878.55 863.87 1893.91 860.782 1893.74 859.07C1893.42 855.746 1885.49 854.352 1882.39 853.395C1873.91 850.778 1865.22 852.452 1856.24 851.829C1851.1 851.473 1844.82 850.056 1839.69 850.337C1837.79 850.441 1835.97 852.08 1834.21 851.537C1832.53 851.02 1835.02 848.893 1835.42 847.572C1836.07 845.455 1838.83 840.006 1840.52 838.296C1847.35 831.349 1859.31 831.13 1845.18 824.546C1837.44 820.942 1808.77 810.675 1800.92 813.776C1787.83 818.955 1778.12 826.733 1768.51 834.145C1766 836.083 1760.03 849.6 1758.85 849.968C1758.3 850.14 1757.53 849.829 1757.2 849.459C1752.99 844.768 1752.74 838.925 1745.8 835.089C1739.84 831.792 1728.19 832.348 1724.5 829.959C1719.47 826.701 1719.06 818.348 1716.93 813.88C1714.09 807.901 1709.2 804.911 1705.53 799.511C1704.89 798.572 1701.01 791.662 1699.18 791.762C1694.58 792.014 1695.95 815.356 1692.58 814.315C1689.29 813.302 1688.01 809.401 1685.54 807.804C1682.27 805.689 1676.02 803.768 1672.2 802.237C1665.11 799.402 1668.84 806.091 1662.54 805.765C1655.77 805.415 1645.42 799.389 1638.96 797.761C1628.58 795.145 1618.01 795.354 1607.37 793.794C1604.51 793.374 1600.39 790.578 1597.48 790.738C1587.89 791.263 1606.97 806.265 1608.34 807.835C1611.02 810.89 1613.39 814.096 1615.67 817.33C1616.65 818.724 1617.29 820.24 1618.09 821.695C1619.4 824.042 1623.94 828.066 1620.81 829.043C1620.25 829.218 1597.66 820.374 1594.9 821.767C1590.77 823.85 1605.08 838.668 1606.25 839.737C1612.91 845.83 1622.96 852.594 1627.02 859.891C1628.78 863.067 1628.24 869.895 1630.66 872.587C1632.75 874.92 1635.69 874.948 1636.04 878.589" fill="#5e5e5e" fill-rule="nonzero" opacity="1" stroke="#3c3c3c" stroke-linecap="round" stroke-linejoin="miter" stroke-width="6"/>
<path d="M1640.21 881.627C1659.52 863.516 1656.35 841.657 1668.77 818.278C1679.26 798.537 1681.63 787.768 1684.81 765.476C1688.43 740.132 1688.8 702.95 1693.01 677.712C1695.7 661.581 1693.44 633.44 1690.13 616.914C1685.04 591.437 1682.99 567.645 1682.99 541.134C1682.99 538.211 1702.89 517.038 1704.99 514.937C1707.72 512.205 1711.61 519.183 1715.36 520.12C1720.97 521.524 1727.88 521.588 1733.5 522.711C1749.72 525.956 1778.38 515.35 1793.1 522.711C1798.85 525.586 1798.07 577.989 1797.17 585.189C1789.63 645.51 1780.79 698.547 1787.71 760.841C1791.32 793.267 1797.26 831.45 1809.5 862.049C1814.45 874.423 1803.52 890.974 1806.06 903.654C1806.92 907.973 1806.68 912.671 1808.65 916.611C1809.51 918.339 1813.17 921.794 1811.24 921.794C1805.71 921.794 1803.53 913.177 1798.28 911.428C1791.02 909.006 1779.9 912.503 1772.37 911.428C1764.57 910.314 1757.01 907.24 1749.05 906.245C1729.93 903.855 1690.05 912.708 1673.9 906.245C1660.44 900.864 1625.75 895.188 1640.21 881.627Z" fill="#8b8b8b" fill-opacity="0.554054" fill-rule="nonzero" opacity="1" stroke="#363636" stroke-linecap="round" stroke-linejoin="miter" stroke-width="6"/>
<path d="M1570.84 860.852C1562.9 852.421 1559.01 845.181 1552.55 836.108C1549.42 831.702 1543.44 827.847 1539.17 824.07C1535.44 820.762 1531.66 817.765 1527.58 814.707C1526.06 813.57 1520.31 811.313 1522.22 812.032C1555.25 824.41 1597.49 829.986 1622.14 852.158C1624.4 854.194 1625.19 857.413 1626.6 859.515C1634.2 870.909 1644.55 882.685 1648.01 895.628C1648.84 898.765 1653.82 906.652 1649.79 909.672C1648.72 910.473 1639.86 909.004 1638.19 909.004C1631.04 909.004 1622.76 906.278 1615.89 904.991C1613.33 904.511 1601.44 904.86 1599.83 903.653C1599.48 903.388 1595.71 889.294 1594.48 887.603C1590.42 882.015 1586.48 876.265 1581.99 870.884C1578.63 866.851 1574.53 864.769 1570.84 860.852Z" fill="#5e5e5e" fill-rule="nonzero" opacity="1" stroke="#3c3c3c" stroke-linecap="round" stroke-linejoin="miter" stroke-width="6"/>
<path d="M1622.77 885.081C1616.32 891.204 1607.27 879.914 1607.27 872.581C1607.27 870.583 1613.35 872.041 1614.27 871.581C1621.35 868.041 1629.2 861.116 1636.27 857.581C1638.77 856.333 1639.96 858.581 1642.27 858.581C1645.23 858.581 1645.74 856.593 1648.27 855.581C1653.43 853.517 1663.56 858.113 1668.27 854.581C1670.24 853.103 1670.18 847.973 1672.27 846.581C1673.66 845.655 1682.24 849.581 1684.27 849.581C1690.66 849.581 1695.36 844.717 1702.27 845.581C1708.56 846.368 1713.13 851.558 1719.27 852.581C1728.57 854.132 1737.3 851.076 1746.27 849.581C1749.48 849.047 1751.81 851.159 1755.27 850.581C1757.98 850.129 1762.23 847.062 1765.27 848.581C1769.21 850.549 1774.53 852.397 1779.27 853.581C1784.04 854.775 1787.97 850.581 1792.27 850.581C1794.58 850.581 1797.82 853.231 1800.27 853.581C1805.1 854.272 1811.62 852.03 1816.27 853.581C1820.06 854.846 1816.85 857.156 1819.27 859.581C1821.17 861.481 1828.18 856.944 1829.27 858.581C1830.62 860.601 1829.69 863.739 1831.27 865.581C1835.88 870.956 1848.37 870.955 1850.27 878.581C1850.64 880.052 1851.2 888.655 1850.27 889.581C1849.46 890.394 1844.8 886.581 1843.27 886.581C1838.1 886.581 1834.2 891.76 1829.27 892.581C1823.6 893.527 1816.02 893.581 1810.27 893.581C1802.58 893.581 1795.03 895.444 1787.27 894.581C1782.07 894.003 1778.13 890.662 1773.27 889.581C1765.6 887.878 1757.08 887.581 1749.27 887.581C1739.49 887.581 1723.55 892.676 1714.27 889.581C1709.96 888.144 1708.2 885.581 1703.27 885.581C1692.53 885.581 1684.54 894.581 1673.27 894.581C1670.91 894.581 1655.13 893.822 1653.27 892.581C1651.66 891.504 1651.89 887.658 1650.27 886.581C1646.54 884.091 1638.74 892.369 1634.27 890.581C1631.41 889.435 1624.67 883.282 1622.77 885.081Z" fill="#000000" fill-rule="nonzero" opacity="1" stroke="#3c3c3c" stroke-linecap="round" stroke-linejoin="miter" stroke-width="6"/>
<path d="M1641.04 893.897C1629.48 895.501 1627.67 874.033 1625.39 862.594C1624.31 857.201 1628.14 851.861 1630.6 846.942C1632.62 842.899 1640.49 844.986 1642.78 843.464C1649.6 838.915 1630.72 836.421 1637.56 831.29C1639.07 830.154 1648.92 828.498 1649.73 826.073C1650.73 823.075 1641.34 813.596 1644.52 810.421C1645.34 809.602 1646.96 809.903 1647.99 810.421C1658.1 815.472 1669.77 829.551 1682.77 829.551C1684.95 829.551 1698.19 822.478 1698.43 822.595C1701.9 824.334 1700.03 831.585 1703.64 833.029C1705.26 833.675 1707.63 831.8 1708.86 833.029C1709.78 833.946 1706.54 835.348 1707.12 836.508C1709.56 841.388 1719.34 822.839 1721.03 819.117C1725.54 809.216 1728.44 798.76 1726.25 787.814C1726 786.542 1723.6 785.252 1724.51 784.335C1726.56 782.286 1730.8 782.728 1733.21 784.335C1748.86 794.767 1732.6 813.444 1740.16 819.117C1746.66 823.992 1762.43 813.184 1764.51 806.943C1767.61 797.639 1749.12 784.335 1767.99 784.335C1772.27 784.335 1774.43 783.817 1778.42 787.814C1779.63 789.015 1768.64 805.6 1769.73 812.161C1771.35 821.884 1783.42 822.373 1788.86 827.812C1796.18 835.129 1779.15 841.401 1788.86 848.681C1792.68 851.549 1798.3 846.881 1802.77 845.203C1807.77 843.328 1808.79 837.848 1811.47 836.508C1812.63 835.928 1812.89 838.728 1813.21 839.986C1813.86 842.616 1809.41 850.786 1811.47 852.159C1812.54 852.874 1836 851.969 1837.55 850.42C1838.47 849.504 1835.63 848.225 1835.81 846.942C1836.25 843.852 1837.9 841.039 1839.29 838.247C1840.8 835.223 1846.02 832.575 1844.51 829.551C1843.7 827.93 1833.57 830.787 1837.55 834.768C1840.85 838.061 1847.13 834.359 1849.73 838.247C1856.96 849.102 1836.01 862.207 1832.34 869.55C1829.24 875.75 1838.19 873.188 1839.29 876.506C1841.08 881.865 1811.92 892.886 1809.73 893.897C1806.7 895.295 1788.86 899.71 1788.86 906.07C1788.86 909.026 1798.88 906.975 1797.55 904.331C1794.31 897.844 1771.43 904.331 1766.25 904.331C1758.32 904.331 1765.74 895.878 1762.77 893.897C1756.61 889.787 1741.29 899.622 1736.69 890.419C1734.93 886.903 1745.8 883.242 1736.69 881.723C1717.56 878.536 1710.92 902.181 1700.17 904.331C1692.41 905.883 1668.77 907.763 1661.91 904.331C1650.79 898.771 1666.2 890.404 1641.04 893.897Z" fill="#e94420" fill-rule="nonzero" opacity="1" stroke="#3c3c3c" stroke-linecap="round" stroke-linejoin="miter" stroke-width="6"/>
<path d="M1647.99 892.158C1645.34 882.597 1642.74 872.356 1644.52 862.594C1645.55 856.89 1652.6 853.978 1654.95 848.681C1655.48 847.497 1650.18 846.942 1651.47 846.942C1652.21 846.942 1674.08 852.914 1674.08 845.203C1674.08 837.874 1665.12 844.798 1667.12 834.768C1667.38 833.497 1667.57 831.29 1668.86 831.29C1670.81 831.29 1671.79 847.029 1672.34 848.681C1673.45 852.019 1679.11 861.128 1681.04 864.333C1686.69 873.751 1691.73 855.769 1694.95 857.376C1698.99 859.395 1697.56 871.577 1708.86 867.811C1729.27 861.007 1718.62 847.502 1721.03 833.029C1722.02 827.101 1729.73 821.545 1729.73 817.378C1729.73 814.785 1726.25 810.421 1726.25 810.421C1726.25 810.421 1726.85 822.1 1727.99 827.812C1728.69 831.284 1731.92 841.725 1736.69 841.725C1737.98 841.725 1739 839.406 1740.16 839.986C1742.3 841.055 1739.77 845.873 1741.9 846.942C1744.08 848.031 1753.35 846.942 1755.82 846.942C1768.44 846.942 1756.17 833.7 1757.56 829.551C1758.33 827.218 1761.67 822.134 1762.77 824.334C1763.81 826.408 1761.38 829.435 1762.77 831.29C1766.09 835.71 1770.03 826.604 1767.99 834.768C1767.36 837.284 1763.88 839.21 1764.51 841.725C1766.13 848.213 1776.04 844.171 1780.16 845.203C1789.65 847.574 1783.29 848.152 1787.12 853.898C1790.15 858.439 1799.78 854.386 1804.51 859.115C1811.4 866.003 1796.36 868.799 1797.55 874.767C1798.96 881.79 1814.81 880.521 1813.21 886.941C1811.91 892.14 1799.87 898.422 1795.81 900.853C1794.7 901.52 1791.04 902.592 1792.34 902.592C1796.75 902.592 1801.39 894.253 1804.51 897.375C1810.06 902.927 1782.8 915.785 1776.68 914.766C1766.97 913.146 1772.02 900.946 1761.03 899.114C1756.55 898.368 1739.85 902.276 1736.69 899.114C1734.64 897.065 1739.5 891.122 1736.69 890.419C1725.97 887.74 1695.43 913.663 1689.73 906.07C1686.66 901.976 1688.35 892.516 1684.51 888.68C1683.14 887.302 1648.81 895.098 1647.99 892.158Z" fill="#fddf19" fill-rule="nonzero" opacity="1" stroke="#3c3c3c" stroke-linecap="round" stroke-linejoin="miter" stroke-width="6"/>
<path d="M1605.12 916.493C1604.89 916.698 1606.45 916.733 1606.36 916.493C1604 910.512 1601.97 904.424 1598.1 898.731C1594.76 893.817 1589.36 889.497 1584.88 884.916C1580.53 880.459 1577.01 875.696 1571.67 871.594C1566.6 867.697 1561.76 863.702 1556.8 859.752C1556.43 859.458 1555.54 859.026 1555.98 858.766C1556.47 858.473 1562.03 861.067 1562.58 861.233C1566.23 862.321 1570.34 862.789 1574.15 863.7C1589.38 867.34 1609.14 871.838 1622.05 878.008C1625.58 879.696 1628.49 882.244 1630.31 884.422C1630.56 884.717 1630.75 887.383 1631.96 887.383C1633.19 887.383 1633.06 886.067 1633.62 885.409C1637.01 881.355 1640.22 875.257 1640.22 870.607C1640.22 869.988 1637.57 866.82 1637.74 866.66C1638.27 866.188 1654.59 864.284 1655.09 864.193C1666.24 862.143 1677.62 860.458 1688.95 858.766C1690.72 858.502 1699 856.338 1700.52 856.792C1701.48 857.081 1694.65 863.794 1693.91 864.686C1692.56 866.302 1686.75 880.469 1687.3 881.462C1687.79 882.332 1692.82 882.234 1693.91 881.955C1702.25 879.819 1714.02 876.572 1723.64 878.008C1728.97 878.804 1717.27 889.426 1720.34 890.343C1721.74 890.762 1728.15 886.411 1729.42 885.902C1741.13 881.239 1752.67 874.271 1764.94 870.607C1775.74 867.381 1757.78 886.396 1766.59 886.396C1773.74 886.396 1780.83 883.45 1788.06 882.942C1801.49 881.998 1815.23 883.28 1828.54 881.955C1829.78 881.831 1844.75 880.693 1845.05 880.968C1847.68 883.321 1839.03 888.506 1837.62 889.85C1831.89 895.324 1824.69 907.442 1817.8 911.559C1815.9 912.696 1816.34 914.894 1814.49 916C1811.5 917.788 1809.59 916.812 1806.24 917.48C1793.26 920.063 1783.34 915.667 1769.89 914.519C1767.77 914.338 1760.72 912.582 1758.33 913.533C1755.36 914.714 1755.96 918.917 1753.38 919.947C1751.56 920.67 1743.43 918.569 1740.16 918.96C1727.99 920.415 1711.76 921.509 1700.52 924.387C1692.88 926.343 1676.87 933.25 1668.3 931.788C1659.48 930.283 1643.25 929.78 1636.09 926.361C1631.14 923.996 1630.62 918.739 1625.36 917.48C1620.71 916.369 1608.81 913.215 1605.12 916.493Z" fill="#5e5e5e" fill-rule="nonzero" opacity="1" stroke="#3c3c3c" stroke-linecap="round" stroke-linejoin="miter" stroke-width="6"/>
<path d="M1623.27 905.581C1611.25 899.572 1592.47 919.532 1580.27 922.581C1574.13 924.117 1567.59 922.678 1561.27 923.581C1555.48 924.409 1550.74 927.215 1545.27 928.581C1544.2 928.848 1541.9 929.758 1543.27 931.581C1548.51 938.57 1567.74 937.581 1575.27 937.581C1585.2 937.581 1594.9 940.734 1605.27 939.581C1621.6 937.767 1637.9 935.92 1654.27 933.581C1661.57 932.539 1665.27 935.081 1671.27 936.581C1675.67 937.68 1680.82 935.692 1685.27 936.581C1692.13 937.953 1698.51 942.649 1705.27 944.581C1715.39 947.471 1728.62 944.799 1738.27 941.581C1743.02 939.999 1753.57 937.45 1758.27 940.581C1761.56 942.773 1760.47 955.581 1756.27 955.581C1753.44 955.581 1759.59 950.476 1762.27 949.581C1768.72 947.433 1779.87 949.9 1785.27 945.581C1794.1 938.522 1807.43 932.89 1819.27 934.581C1826.62 935.631 1835.9 938.423 1843.27 936.581C1846.68 935.728 1860.27 932.468 1860.27 927.581C1860.27 921.178 1836.7 917.689 1832.27 916.581C1828.68 915.683 1818.97 912.381 1816.27 910.581C1812.77 908.248 1814.12 904.151 1806.27 902.581C1799.13 901.153 1791.43 908.558 1784.27 909.581C1775.92 910.774 1765.3 910.581 1757.27 910.581" fill="#5e5e5e" fill-rule="nonzero" opacity="1" stroke="none"/>
<path d="M1823.27 903.581C1816.64 916.841 1803.9 932.581 1826.27 932.581" fill="none" opacity="1" stroke="#363636" stroke-linecap="round" stroke-linejoin="miter" stroke-width="6"/>
<path d="M1602.27 906.581C1602.27 929.473 1577.73 925.581 1563.27 925.581" fill="none" opacity="1" stroke="#363636" stroke-linecap="round" stroke-linejoin="miter" stroke-width="6"/>
<path d="M1616.27 936.581C1627.08 931.178 1638.21 926.439 1649.27 921.581C1660.23 916.77 1676.02 909.139 1687.27 917.581C1690.54 920.032 1687.45 921.758 1689.27 923.581C1689.42 923.727 1697.94 925.315 1699.27 925.581C1707.01 927.128 1717.75 925.836 1725.27 924.581C1734.73 923.005 1757.49 928.69 1765.27 932.581" fill="none" opacity="1" stroke="#363636" stroke-linecap="round" stroke-linejoin="miter" stroke-width="6"/>
<path d="M1865.27 878.581C1858.16 878.581 1858.92 903.014 1861.27 904.581C1862.35 905.297 1875.55 907.657 1874.27 909.581C1872.6 912.092 1858.66 919.885 1855.27 921.581C1854.68 921.88 1853.74 922.053 1853.27 921.581C1852.27 920.581 1854.27 916.581 1853.27 915.581C1851.89 914.2 1840.32 912.581 1838.27 912.581" fill="none" opacity="1" stroke="#363636" stroke-linecap="round" stroke-linejoin="miter" stroke-width="6"/>
<path d="M1731.35 570.07C1712.69 580.016 1688.92 570.535 1667.71 570.07C1654.33 569.777 1630.86 576.191 1616.41 573.817C1609.11 572.617 1602.53 566.336 1595.52 564.45C1576.49 559.334 1560.53 572.187 1542.32 568.197C1536.5 566.921 1534.82 559.973 1529.02 558.829C1516.76 556.412 1508.32 567.565 1494.82 562.576C1480.23 557.18 1470.32 541.731 1456.83 534.474C1445.37 528.312 1427.91 523.79 1420.73 511.993C1416.28 504.677 1418.73 496.815 1415.03 489.511C1411.56 482.678 1404.61 481.632 1401.73 474.524C1400.15 470.619 1401.63 463.079 1399.83 459.536C1396.8 453.561 1388.16 461.924 1384.63 444.548C1382.4 433.523 1388.61 422.872 1390.33 412.699C1391.28 407.114 1385.33 397.184 1388.43 392.091C1396.72 378.472 1405.59 356.436 1416.93 345.255C1421.26 340.981 1427.22 344.995 1432.13 343.381C1443.36 339.689 1448.25 321.092 1458.73 319.026C1463.6 318.065 1471.68 321.242 1475.82 317.153C1482.65 310.42 1482.02 288.098 1489.12 283.43C1495.15 279.465 1509.84 284.067 1517.62 279.683C1526.08 274.92 1540.42 259.629 1540.42 249.708C1540.42 248.312 1537.52 246.949 1538.52 245.961C1538.71 245.772 1558.81 249.019 1563.22 247.835C1603.77 236.927 1600.17 187.884 1652.51 187.884C1680.32 187.884 1688.81 221.31 1713.31 230.973C1730.15 237.619 1761.16 226.781 1777.9 223.48C1794.52 220.203 1801.35 235.98 1814 242.214C1826.05 248.157 1842.11 234.657 1853.89 236.594C1861.71 237.879 1844.48 263.113 1863.39 268.443C1887.97 275.368 1910.47 271.982 1933.69 262.822C1938.84 260.791 1960.72 250.337 1965.99 253.455C1976.47 259.657 1974.53 284.835 1983.08 294.671C1993.83 307.035 2014.77 301.561 2026.78 313.406C2037.04 323.519 2025.07 337.432 2038.18 347.128C2044.22 351.595 2058.67 352.147 2062.88 358.369C2066.62 363.908 2062.28 373.062 2070.48 377.104C2082.73 383.146 2089.08 381.772 2098.97 393.965C2104.61 400.907 2104.35 412.384 2110.37 418.32C2116.77 424.63 2128.8 416.909 2133.17 427.687C2144.68 456.052 2104.72 470.6 2098.97 493.258C2096.18 504.288 2100.98 513.649 2095.17 525.107C2084.94 545.301 2064.2 563.808 2041.98 570.07C2035.32 571.948 2031.14 561.235 2022.98 562.576C2009.8 564.742 1993.63 572.111 1981.18 577.564C1973.17 581.077 1953.41 587.277 1946.99 592.552C1937.29 600.523 1926.22 612.826 1912.79 615.033C1900.59 617.038 1894.53 603.83 1884.29 600.045C1877.33 597.471 1872.08 599.511 1865.29 598.172C1853.64 595.874 1833.24 579.678 1825.4 571.944C1818.97 565.603 1805.24 572.547 1798.8 573.817C1784.86 576.566 1771.15 569.618 1757 571.944C1751.4 572.864 1733.7 580.979 1728.5 577.564C1723.15 574.042 1733.84 568.748 1731.35 570.07Z" fill="#8b8b8b" fill-rule="nonzero" opacity="1" stroke="#363636" stroke-linecap="round" stroke-linejoin="miter" stroke-width="6"/>
<path d="M1697.82 698.561C1687.34 677.272 1681.84 677.599 1673.05 676.828C1664.26 676.057 1664.42 677.43 1648.55 676.136C1632.67 674.842 1629.91 667.678 1617.48 673.892C1615.74 674.761 1610.64 690.983 1609.68 693.381C1608.29 696.856 1612.64 698.621 1610.98 702.476C1609.65 705.585 1604.49 706.889 1604.49 710.271C1604.49 712.208 1607.85 707.06 1609.68 707.673C1610.2 707.843 1621.9 711.836 1622.68 712.87C1625.21 716.245 1621.82 723.559 1625.28 725.862C1634.21 731.819 1646.66 725.959 1655.16 731.059C1669.29 739.539 1666.56 734.957 1679.85 734.957C1690.99 734.957 1702.56 738.855 1713.63 738.855C1718.82 738.855 1714.06 741.02 1717.52 742.753C1720.58 744.283 1734.99 745.351 1737.01 745.351C1740.08 745.351 1749.29 739.483 1751.3 740.154C1753.36 740.839 1753.27 744.383 1755.2 745.351C1759.76 747.629 1768.11 744.597 1773.39 745.351C1786.71 747.254 1800.11 747.95 1813.67 747.95C1822.1 747.95 1823.88 744.124 1830.56 741.453C1841.28 737.166 1856.18 742.191 1863.04 728.461C1864.35 725.845 1866.3 694.693 1865.64 693.381C1862.98 688.064 1854.03 685.665 1850.05 681.687C1842.02 673.658 1852.95 668.657 1831.86 671.293C1821.62 672.573 1810.75 684.376 1802.58 689.821C1794.92 694.93 1795.51 682.109 1778.62 701.598" fill="#8b8b8b" fill-rule="nonzero" opacity="1" stroke="#363636" stroke-linecap="round" stroke-linejoin="miter" stroke-width="6"/>
<path d="M1554.9 353.338C1556.4 350.226 1562.75 344.185 1559.4 344.003C1543.99 343.167 1528.38 346.645 1513.49 351.092C1500.23 355.054 1509.79 369.829 1497.28 375.421C1488.2 379.478 1473.93 383.501 1463.97 384.201C1461.85 384.35 1458.88 381.542 1457.67 383.355C1454.78 387.685 1465.12 397.729 1454.96 402.871C1449.76 405.499 1446.81 397.071 1441.9 404.431C1440.66 406.297 1432.5 430.309 1434.69 433.282C1436.42 435.649 1451.4 436.705 1453.14 439.072C1459.1 447.19 1428.53 460.105 1450.86 478.526C1457.98 484.396 1476.9 480.155 1485.52 483.179C1500.42 488.406 1516.19 493.942 1531.41 499.282C1539.15 501.996 1576.04 515.449 1580.01 519.06C1583.96 522.653 1586.16 529.045 1591.25 530.509C1623.44 539.769 1653.34 527.083 1685.32 523.26C1717.82 519.374 1755.72 545.469 1791.52 544.146C1816.11 543.238 1839.79 535.604 1863.54 533.936C1878.39 532.894 1890.35 540.85 1904.04 542.688C1942.73 547.883 1989.85 551.602 2026.91 535.993C2033.74 533.115 2045.38 527.281 2051.22 522.691C2052.77 521.47 2074.54 461.623 2072.86 459.331C2069.87 455.26 2054 451.6 2049.01 446.189C2038.54 434.824 2028.87 419.185 2018.88 409.01C2010.52 400.496 1995 408.051 1987.83 401.528C1984.57 398.565 1989.58 391.242 1986.49 388.095C1974.12 375.502 1900.22 364.268 1883.44 367.631" fill="#5e5e5e" fill-rule="nonzero" opacity="1" stroke="#3c3c3c" stroke-linecap="round" stroke-linejoin="miter" stroke-width="6"/>
<path d="M1654.73 266.048C1658.93 260.058 1647.56 247.205 1642.36 251.38C1619.61 269.63 1606.04 306.632 1582.86 323.7C1567.87 334.745 1550.11 329.963 1533.76 331.362C1521.05 332.449 1466.34 331.167 1479.07 373.839C1483.32 388.097 1508.67 380.833 1517.78 384.955C1546.59 397.989 1561.19 407.769 1595.21 407.186C1618.63 406.784 1632.01 413.722 1655.48 421.651C1677.2 428.992 1702.14 424.386 1723.73 432.26C1735.1 436.41 1741.8 448.201 1753.66 452.206C1779.74 461.019 1794.83 434.728 1819.52 431.856C1835.07 430.049 1850.73 439.381 1866.22 439.115C1885.67 438.781 1971.8 445.98 1979.59 421.05C1992.5 379.685 1952.07 370.898 1936.1 348.018C1922.86 329.043 1911.42 329.379 1892.6 320.865C1854.45 303.598 1832.8 264.517 1787.65 263.767C1772.73 263.519 1768.51 270.142 1752.92 273.663C1732.19 278.344 1706.27 283.54 1685.06 283.507C1679.96 283.499 1646.17 278.239 1654.73 266.048Z" fill="#adadad" fill-rule="nonzero" opacity="1" stroke="#3c3c3c" stroke-linecap="round" stroke-linejoin="miter" stroke-width="6"/>
<path d="M1507.29-438.634C1505.34-439.284 1499.6-439.664 1501.44-440.583C1504.34-442.036 1507.94-440.583 1511.18-440.583" fill="#eb493a" fill-rule="nonzero" opacity="1" stroke="#3c3c3c" stroke-linecap="round" stroke-linejoin="miter" stroke-width="6"/>
<path d="M908.939 691.795C891.398 740.52 901.143 882.798 901.143 882.798C901.143 882.798 885.551 978.3 912.837 1015.33C940.681 1053.12 1020.03 1050.41 1053.17 1025.08C1086.3 999.739 1078.5 906.578 1078.5 888.645C1078.5 817.775 1088.25 715.183 1068.76 691.795C1049.27 668.406 996.645 670.355 996.645 670.355C996.645 670.355 922.676 653.636 908.939 691.795Z" fill="#eb493a" fill-rule="nonzero" opacity="1" stroke="#3c3c3c" stroke-linecap="round" stroke-linejoin="miter" stroke-width="6"/>
<path d="M1080.62 779.307C1068.62 803.291 1056.99 798.477 1030.77 802.848C1025.11 803.79 980.897 800.096 979.529 801.463C977.787 803.205 977.796 843.682 978.145 845.775C979.039 851.142 982.299 884.6 982.299 909.474C982.299 915.439 979.306 932.791 983.684 937.169C998.698 952.184 1068.57 939.106 1077.85 920.552" fill="#dddddd" fill-rule="nonzero" opacity="1" stroke="#3c3c3c" stroke-linecap="round" stroke-linejoin="miter" stroke-width="6"/>
<path d="M908.907 687.913C908.907 729.861 1064 737.819 1064 693.453" fill="none" opacity="1" stroke="#3c3c3c" stroke-linecap="round" stroke-linejoin="miter" stroke-width="6"/>
<path d="M1009.3 681.682C1044.12 723.56 959.17 709.509 950.45 692.068C944.987 681.142 1002.6 673.62 1009.3 681.682Z" fill="#4d4d4d" fill-rule="nonzero" opacity="1" stroke="#3c3c3c" stroke-linecap="round" stroke-linejoin="miter" stroke-width="6"/>
<path d="M953.735 701.276C949.623 679.991 982.382 659.251 976.76 631.139C972.168 608.18 897.234 642.558 920.278 604.151C930.128 587.736 972.952 591.446 986.969 580.934C993.934 575.71 987.182 552.987 1003.39 561.093C1015.75 567.273 1010.71 572.394 1025.42 574.495C1043.99 577.148 1096.4 537.536 1102.77 575.749C1116.86 660.295 1041.68 599.05 1015.53 633.908C993.337 663.503 1038.52 682.921 1033.05 699.345C1026.9 717.802 955.608 710.972 953.735 701.276Z" fill="#4d4d4d" fill-rule="nonzero" opacity="1" stroke="#3c3c3c" stroke-linecap="round" stroke-linejoin="miter" stroke-width="6"/>
<path d="M1086.14 558.618C1085.77 544.747 1033.21 632.747 1090.92 621.205C1110.56 617.277 1112.36 587.023 1108.31 570.788C1104.45 555.369 1086.31 564.929 1086.14 558.618Z" fill="#303030" fill-rule="nonzero" opacity="1" stroke="#3c3c3c" stroke-linecap="round" stroke-linejoin="miter" stroke-width="6"/>
</g>
</svg>
