<?xml version="1.0" encoding="UTF-8" standalone="no"?>
<!DOCTYPE svg PUBLIC "-//W3C//DTD SVG 1.1//EN" "http://www.w3.org/Graphics/SVG/1.1/DTD/svg11.dtd">
<!-- Created with Vectornator (http://vectornator.io/) -->
<svg height="100%" stroke-miterlimit="10" style="fill-rule:nonzero;clip-rule:evenodd;stroke-linecap:round;stroke-linejoin:round;" version="1.1" viewBox="0 0 2224 1668" width="100%" xml:space="preserve" xmlns="http://www.w3.org/2000/svg" xmlns:vectornator="http://vectornator.io" xmlns:xlink="http://www.w3.org/1999/xlink">
<defs/>
<g id="Layer-1" vectornator:layerName="Layer 1">
<path d="M646.086 305.524C649.658 284.253 657.292 255.909 672.029 238.358C692.186 214.353 745.236 197.225 760.01 233.88C772.622 265.17 730.683 302.711 730.683 333.51" fill="#64d6ee" fill-rule="nonzero" opacity="1" stroke="#3c3c3c" stroke-linecap="round" stroke-linejoin="miter" stroke-width="6"/>
<path d="M163.533 1130.84C131.968 1146.5 96.9885 1158.81 76.6798 1189.05C71.0063 1197.49 63.0035 1225.81 80.0637 1228.23C120.055 1233.9 156.598 1202 189.476 1185.69" fill="#e5b989" fill-rule="nonzero" opacity="1" stroke="#3c3c3c" stroke-linecap="round" stroke-linejoin="miter" stroke-width="6"/>
<path d="M588.499 1303.97C588.499 1297.21 589.5 1317.48 590.755 1324.12C592.621 1334 595.715 1343.61 598.651 1353.23C607.741 1382.99 635.132 1425.98 671.969 1410.32C693.83 1401.02 681.842 1330.01 675.353 1310.69C673.43 1304.96 660.689 1263.81 660.689 1274.86" fill="#e5b989" fill-rule="nonzero" opacity="1" stroke="#3c3c3c" stroke-linecap="round" stroke-linejoin="miter" stroke-width="6"/>
<path d="M859.47 811.27C875.32 811.27 888.646 798.95 903.461 793.359C930.171 783.279 1001.13 758.526 1033.18 767.612C1042.55 770.269 1046.49 784.177 1047.84 792.24C1050.49 808.004 1029.83 825.051 1018.51 832.54C1004.94 841.519 992.477 852.176 977.906 859.406C955.759 870.396 931.591 875.791 910.228 888.512C896.982 896.399 879.91 897.162 866.238 905.303C862.599 907.47 842.292 915.464 849.318 913.139" fill="#e5b989" fill-rule="nonzero" opacity="1" stroke="#3c3c3c" stroke-linecap="round" stroke-linejoin="miter" stroke-width="6"/>
<path d="M133.719 1165.18C117.614 1110 122.557 1066.56 138.114 1012.52C146.843 982.202 204.207 856.304 219.417 835.882C294.128 735.567 279.187 801.427 252.102 678.972C232.325 589.561 246.258 485.394 329.01 364.941C394.932 268.988 495.018 248.455 603.683 258.084C726.736 268.988 871.763 299.518 939.882 497.968C971.676 590.592 956.207 689.385 959.798 733.272C961.041 748.469 947.404 838.425 936.397 878.939C921.173 934.972 896.524 1020.2 887.913 1041.56C863.672 1101.71 833.718 1180.39 817.061 1204.53C796.78 1233.93 731.254 1310.2 699.55 1325.93C670.398 1340.4 547.009 1389.85 416.078 1365.81C301.662 1344.8 263.865 1323.86 247.958 1314.57C212.718 1294 154.258 1235.54 133.719 1165.18Z" fill="#64d6ee" fill-rule="nonzero" opacity="1" stroke="#3c3c3c" stroke-linecap="round" stroke-linejoin="miter" stroke-width="6"/>
<path d="M297.484 1296.13C297.484 1285.32 283.065 1330.69 280.565 1339.79C272.34 1369.72 247.343 1432.15 298.612 1439.42C332.639 1444.25 346.597 1422.54 359.522 1396.88C368.364 1379.33 379.197 1364.05 385.466 1345.39C389.965 1331.99 390.35 1317.78 396.745 1305.09C398.358 1301.89 399.001 1286.43 399.001 1290.54" fill="#e5b989" fill-rule="nonzero" opacity="1" stroke="#3c3c3c" stroke-linecap="round" stroke-linejoin="miter" stroke-width="6"/>
<path d="M510.67 877.464C508.098 872.358 506.636 888.584 507.286 894.255C508.47 904.597 512.498 914.419 515.182 924.48C522.015 950.1 539.636 996.42 574.964 989.408C595.861 985.26 599.779 961.779 599.779 944.63C599.779 909.871 597.775 875.725 581.732 843.881" fill="#e5b989" fill-rule="nonzero" opacity="1" stroke="#3c3c3c" stroke-linecap="round" stroke-linejoin="miter" stroke-width="6"/>
<path d="M411.469 358.138C414.127 363.415 404.579 348.518 401.317 343.585C398.086 338.699 388.405 325.792 384.398 317.838C369.129 287.533 380.618 253.107 410.341 238.358C452.885 217.247 489.198 275.609 501.706 306.644C503.87 312.012 510.699 317.686 511.858 323.435C513.063 329.416 511.32 336.921 514.114 342.466" fill="#64d6ee" fill-rule="nonzero" opacity="1" stroke="#3c3c3c" stroke-linecap="round" stroke-linejoin="miter" stroke-width="6"/>
<path d="M438.54 360.377C431.573 343.091 417.57 329.527 406.957 314.48C400.347 305.108 393.763 250.582 418.237 270.822C426.384 277.56 429.657 287.837 435.156 296.569C444.89 312.025 458.614 331.044 471.251 343.585C475.796 348.096 476.487 355.499 481.403 360.377" fill="#e5b989" fill-rule="nonzero" opacity="1" stroke="#3c3c3c" stroke-linecap="round" stroke-linejoin="miter" stroke-width="6"/>
<path d="M556.664 518.746C540.215 455.555 584.854 390.04 650.609 390.04C716.364 390.04 769.668 442.857 769.668 508.011C769.668 573.165 732.705 617.114 666.95 617.114C601.196 617.114 571.434 575.484 556.664 518.746Z" fill="#ffffff" fill-rule="nonzero" opacity="1" stroke="#3c3c3c" stroke-linecap="butt" stroke-linejoin="miter" stroke-width="6"/>
<path d="M648.678 482.554C648.678 454.092 672.881 431.019 702.738 431.019C732.594 431.019 756.797 454.092 756.797 482.554C756.797 511.016 732.594 534.089 702.738 534.089C672.881 534.089 648.678 511.016 648.678 482.554Z" fill="#303030" fill-rule="nonzero" opacity="1" stroke="#3c3c3c" stroke-linecap="butt" stroke-linejoin="miter" stroke-width="6"/>
<path d="M691.154 483.796C691.154 471.108 700.95 460.823 713.035 460.823C725.119 460.823 734.916 471.108 734.916 483.796C734.916 496.484 725.119 506.769 713.035 506.769C700.95 506.769 691.154 496.484 691.154 483.796Z" fill="#ffffff" fill-rule="nonzero" opacity="1" stroke="#3c3c3c" stroke-linecap="butt" stroke-linejoin="miter" stroke-width="6"/>
<path d="M848.421 439.26C829.29 390.259 843.127 359.533 893.275 359.533C919.326 359.533 937.347 377.458 949.172 399.218C964.852 428.074 978.541 460.109 978.47 484.185C978.409 505.104 984 537.077 933.852 537.077C883.704 537.077 870.37 495.48 848.421 439.26Z" fill="#64d6ee" fill-rule="nonzero" opacity="1" stroke="#3c3c3c" stroke-linecap="butt" stroke-linejoin="miter" stroke-width="6"/>
<path d="M869.882 586.813C866.315 581.106 863.89 658.723 881.644 664.351C898.267 669.621 907.072 649.366 906.902 637.943C906.784 630.009 905.422 582.719 905.201 581.797" fill="#ffffff" fill-rule="nonzero" opacity="1" stroke="#3c3c3c" stroke-linecap="round" stroke-linejoin="miter" stroke-width="6"/>
<path d="M905.118 580.282C905.118 598.359 913.796 637.22 920.304 646.181C926.813 655.143 937.952 657.789 945.103 650.692C957.153 638.734 944.988 588.474 940.069 574.652" fill="#ffffff" fill-rule="nonzero" opacity="1" stroke="#3c3c3c" stroke-linecap="round" stroke-linejoin="miter" stroke-width="6"/>
<path d="M855.438 521.372C839.006 528.841 820.666 538.217 808.751 561.836C796.521 586.079 803.295 602.134 811.53 608.672C836.413 628.428 870.938 594.741 894.999 590.761C911.13 588.093 928.523 590.6 944.63 587.403C957.5 584.848 975.201 575.783 971.701 562.775C959.601 517.81 934.817 515.378 908.535 510.161C902.657 508.995 862.076 518.356 855.438 521.372Z" fill="#e5b989" fill-rule="nonzero" opacity="1" stroke="#3c3c3c" stroke-linecap="round" stroke-linejoin="miter" stroke-width="6"/>
<path d="M888.141 497.864C870.127 499.609 848.019 511.377 863.741 524.179C876.24 534.356 924.034 524.98 924.359 512.449C924.871 492.778 889.328 497.749 888.141 497.864Z" fill="#303030" fill-rule="nonzero" opacity="1" stroke="#3c3c3c" stroke-linecap="round" stroke-linejoin="miter" stroke-width="6"/>
<path d="M862.183 459.116C871.245 455.634 896.092 457.791 905.683 456.284C936.148 451.498 945.789 456.899 962.48 430.299" fill="none" opacity="1" stroke="#3c3c3c" stroke-linecap="round" stroke-linejoin="miter" stroke-width="6"/>
<g opacity="1">
<path d="M935.034 455.443C940.523 478.972 934.275 477.859 936.832 469.42C940.332 457.869 907.231 464.737 925.689 460.997C979.009 450.195 1002.46 461.37 1042.98 452.05C1122.16 433.843 1296.84 401.679 1314.56 399.344C1318.87 398.775 1329.47 401.816 1332.01 398.506C1341.28 386.423 1335.84 365.543 1340.52 352.005" fill="#ffffff" fill-rule="nonzero" opacity="1" stroke="#3c3c3c" stroke-linecap="round" stroke-linejoin="miter" stroke-width="6"/>
<path d="M923.192 451.733C921.785 450.16 912.033 413.852 916.085 436.116C918.005 446.667 912.587 404.857 930.291 426.846C935.849 433.75 945.354 419.869 957.507 410.852C985.562 390.034 1038.33 328.992 1054.78 316.486C1072.24 303.206 1157.41 229.413 1178.34 221.146C1182.95 219.328 1267.58 231.395 1282.18 242.588C1287.56 246.714 1278.66 308.458 1277.35 328.128C1277.08 332.183 1279.87 342.177 1278.19 345.584C1274.63 352.818 1257.49 358.3 1250.93 360.889C1244.31 363.502 1238.79 369.837 1231.93 372.178C1211.94 378.988 1193.43 386.323 1173.01 391.656C1150.05 397.652 1128.09 408.543 1106.03 416.59C1078.14 426.764 1047.34 434.197 1018.53 441.301C1006.15 444.354 994.71 452.873 982.45 456.305C967.389 460.522 952.325 464.173 937.166 468.131C916.089 473.636 927.875 456.969 923.192 451.733Z" fill="#ffffff" fill-rule="nonzero" opacity="1" stroke="#3c3c3c" stroke-linecap="round" stroke-linejoin="miter" stroke-width="6"/>
<path d="M949.766 436.286C958.515 432.502 955.233 436.279 964.001 432.583C999.744 417.519 957.687 438.558 992.475 421.258C1070.47 382.469 1151.01 349.963 1228.62 311.37C1248.24 301.609 1266.66 290.054 1286.3 282.146C1294.04 279.028 1305.83 266.593 1314.4 267.632C1335.91 270.241 1453.79 311.756 1454.29 315.588C1454.74 318.97 1382.32 347.05 1353.6 353.884C1337.71 357.665 1301.4 371.694 1285.11 375.411C1244.55 384.668 1063.13 431.833 1006.8 450.253C968.554 462.76 953.866 443.688 948.908 446.537C945.053 448.752 928.667 477.413 926.613 471.351C924.56 465.289 943.766 438.882 949.766 436.286Z" fill="#ffffff" fill-rule="nonzero" opacity="1" stroke="#3c3c3c" stroke-linecap="round" stroke-linejoin="miter" stroke-width="6"/>
<path d="M940.2 458.57C944.419 464.242 926.012 427.907 927.719 438.653C929.426 449.4 922.547 437.123 933.704 431.738C946.888 425.375 959.676 415.657 973.427 410.719C994.972 402.981 1173.84 299.593 1190.43 289.117C1218.24 271.548 1249.8 256.343 1277.79 241.536" fill="none" opacity="1" stroke="#3c3c3c" stroke-linecap="round" stroke-linejoin="miter" stroke-width="6"/>
</g>
<path d="M1086.48 770.622C1101.75 750.25 1128.78 741.798 1151.99 731.316M1230.6 705.112C1268.6 693.547 1307.03 681.471 1346.94 681.397M1408.41 695.753C1433.87 704.237 1457.82 716.452 1480.34 731.114M1608.69 849.235C1620.2 868.812 1628.97 893.131 1636.85 915.751M1655.48 1062.61C1649.44 1082.26 1639.78 1100.29 1627.3 1116.57M1260.55 1184.28C1245.48 1174.23 1230.95 1158.76 1218.79 1140.47M1193.16 1004.59C1208.92 967.83 1242.07 938.563 1275.52 918.489M1391.57 881.055C1431.34 873.597 1470.64 872.202 1509.62 874.629M1820.19 933.463C1847.69 938.316 1879.22 940.844 1910.22 938.407M2065.39 845.492C2076.21 831.433 2086.58 819.163 2093.47 802.442C2100.46 785.448 2105.72 767.563 2109.67 749.177M2121.54 589.064C2121.54 572.556 2122.62 555.356 2123.65 537.955M2069.13 317.663C2057 296.709 2043.55 274.199 2028.05 253.016M1930.63 171.668C1884.25 154.805 1835.98 156.613 1788.15 163.455M1719.12 175.412C1675 183.434 1629.9 193.665 1585.27 201.238M1545.05 207.231C1528.16 209.342 1514.44 220.481 1498.26 224.077C1493.57 225.117 1488.67 225.963 1483.66 226.755M1432.75 239.05C1422.72 244.061 1408.89 248.609 1397.18 250.281C1395.79 250.48 1373.49 259.322 1384.08 254.024" fill="none" opacity="1" stroke="#3c3c3c" stroke-linecap="round" stroke-linejoin="miter" stroke-width="6"/>
<path d="M1344.77 1210.48C1356.51 1216.35 1370.96 1212.35 1384.08 1212.35C1412.55 1212.35 1440.95 1212.21 1468.31 1206.74C1472.33 1205.93 1477.45 1202.44 1481.41 1201.12" fill="none" opacity="1" stroke="#3c3c3c" stroke-linecap="round" stroke-linejoin="miter" stroke-width="6"/>
<path d="M1659.23 905.387C1674.06 905.387 1688.07 912.356 1702.28 916.618" fill="none" opacity="1" stroke="#3c3c3c" stroke-linecap="round" stroke-linejoin="miter" stroke-width="6"/>
<path d="M2112.18 656.447C2113.43 655.823 2115.93 653.18 2115.93 654.575C2115.93 665.255 2113.43 675.788 2112.18 686.395" fill="none" opacity="1" stroke="#3c3c3c" stroke-linecap="round" stroke-linejoin="miter" stroke-width="6"/>
<path d="M2089.72 370.072C2089.72 380.733 2096.49 390.339 2100.95 400.019" fill="none" opacity="1" stroke="#3c3c3c" stroke-linecap="round" stroke-linejoin="miter" stroke-width="6"/>
<path d="M1973.68 912.874C1985.75 906.838 1996.38 898.258 2007.37 890.413" fill="none" opacity="1" stroke="#3c3c3c" stroke-linecap="round" stroke-linejoin="miter" stroke-width="6"/>
<path d="M1546.92 1169.3C1553.9 1169.3 1559.96 1164 1565.64 1159.94" fill="none" opacity="1" stroke="#3c3c3c" stroke-linecap="round" stroke-linejoin="miter" stroke-width="6"/>
<path d="M1187.55 1055.13C1190.09 1065.27 1193.6 1075.15 1196.91 1085.07" fill="none" opacity="1" stroke="#3c3c3c" stroke-linecap="round" stroke-linejoin="miter" stroke-width="6"/>
<path d="M1524.46 751.905C1531.96 766.9 1547.84 775.957 1560.02 787.468" fill="none" opacity="1" stroke="#3c3c3c" stroke-linecap="round" stroke-linejoin="miter" stroke-width="6"/>
<path d="M1971.8 199.744C1971.8 207.734 1981.13 212.812 1986.78 218.461" fill="none" opacity="1" stroke="#3c3c3c" stroke-linecap="round" stroke-linejoin="miter" stroke-width="6"/>
<path d="M2108.44 454.3C2108.44 466.219 2110.79 478.024 2112.18 489.863" fill="none" opacity="1" stroke="#3c3c3c" stroke-linecap="round" stroke-linejoin="miter" stroke-width="6"/>
</g>
</svg>
